<svg xmlns="http://www.w3.org/2000/svg" viewBox="0 0 200 200"><path fill="#FED0B5" d="M70.606 101.346c-.195.02-.302.029-.302.029v-.068c.117.02.224.029.302.039zm.293-.04v.069l-.293-.03c.078-.009.176-.019.293-.038z"/><path fill="#E2AF98" d="M96.999 3.621 84.849 90.63l-3.682 6.596 12.15-87.008z"/><path fill="#F2C0A7" d="m93.317 10.218-12.15 87.008-11.338 2.132L81.98 12.35zM97.013 3.627 84.835 90.634l74.416 42.139 6.297 3.645 10.182 5.875L163.14 42.7v-.905L97.012 3.626zm41.634 33.592c1.687.993 3.042 3.343 3.042 5.272 0 .601-.15 1.084-.391 1.444-.452.062-.994-.059-1.567-.391-1.717-.964-3.073-3.344-3.073-5.272 0-.602.181-1.053.392-1.415.452-.091 1.024.03 1.597.362zM108.58 19.896c1.657.993 3.013 3.344 3.013 5.272 0 .602-.12 1.084-.362 1.445-.452.061-.994-.06-1.597-.392-1.687-.963-3.042-3.312-3.042-5.272 0-.601.15-1.053.391-1.415.452-.09 1.025.03 1.597.362z"/><path fill="#EA3D5B" d="m165.929 42.2 18.048 99.471-18.445 3.47-12.588-100.498zM148.789 52.161l9.524 106.041-94.367-53.69L79.16 11.961z"/><path fill="#E22951" d="m152.944 44.643 12.588 100.498-7.219 13.061-9.524-106.041z"/><path fill="#FF6C85" d="m96.29 2-4.158 7.532-12.984 2.44 2.832 1.627 11.297 6.537 3.675 2.11L148.8 52.16l4.158-7.532 10.182-1.928 2.802-.512L96.29 2zm55.462 41.966-3.646 6.568L96.952 21.01l-3.675-2.108-11.297-6.537 11.327-2.14 3.706-6.598 66.126 38.17-11.387 2.169z"/><path fill="#FCDCAB" d="M96.106 33.526c0-.602.156-1.07.379-1.426-.87.11-1.449.87-1.449 2.117 0 1.939 1.36 4.3 3.031 5.259 1.159.669 2.161.512 2.674-.29-.446.067-1.003-.067-1.582-.401-1.694-.958-3.053-3.32-3.053-5.259z"/><path fill="#E2AF98" d="M98.09 32.478c-.58-.334-1.137-.467-1.605-.378-.223.357-.379.824-.379 1.426 0 1.939 1.36 4.301 3.053 5.259.58.334 1.136.468 1.582.401.245-.357.379-.847.379-1.448 0-1.917-1.36-4.278-3.03-5.26z"/><path fill="#FCDCAB" d="M126.182 50.845c0-.602.156-1.07.38-1.427-.87.111-1.45.87-1.45 2.118 0 1.939 1.36 4.3 3.031 5.258 1.159.67 2.162.513 2.674-.29-.445.067-1.002-.067-1.582-.4-1.693-.958-3.053-3.32-3.053-5.26z"/><path fill="#E2AF98" d="M128.166 49.797c-.58-.334-1.137-.468-1.605-.379-.223.357-.379.825-.379 1.427 0 1.939 1.36 4.3 3.053 5.258.58.334 1.137.468 1.582.402.245-.357.38-.848.38-1.448 0-1.918-1.36-4.279-3.031-5.26z"/><path fill="#FFDCC5" d="M111.232 26.613c-.512.815-1.506.965-2.681.301-1.657-.963-3.013-3.343-3.013-5.272 0-1.234.573-1.987 1.446-2.108-.24.362-.391.814-.391 1.415 0 1.96 1.355 4.309 3.042 5.272.603.333 1.145.453 1.597.392zm30.066 17.322c-.512.815-1.506.965-2.681.302-1.657-.964-3.013-3.344-3.013-5.272 0-1.235.572-2.019 1.446-2.108-.21.362-.392.813-.392 1.415 0 1.928 1.356 4.308 3.073 5.272.573.332 1.115.453 1.567.391z"/><path fill="#FFF" d="M106.563 82.102c1.527 0 3.02-.283 4.403-.87 4.06-1.724 7.035-5.772 8.852-12.03.31-1.073.592-2.168.875-3.263.875-3.424 1.705-6.657 3.54-9.35.764-1.126 1.528-1.784 2.271-1.959a1.683 1.683 0 0 0 1.257-2.023 1.69 1.69 0 0 0-2.02-1.257c-1.619.378-3.027 1.472-4.298 3.346-2.158 3.176-3.106 6.851-4.014 10.405-.27 1.06-.546 2.12-.85 3.16-1.52 5.241-3.85 8.561-6.93 9.871-3.941 1.668-8.667-.352-11.306-3.213-2.593-2.81-4.251-6.744-5.212-12.383a56.355 56.355 0 0 1-.099-18.27c.29-1.837.71-3.713 1.797-4.973.822-.955 2.408-1.58 3.409-.922a1.68 1.68 0 0 0 2.33-.475c.52-.775.302-1.82-.474-2.335-2.587-1.714-6.016-.573-7.819 1.535-1.632 1.896-2.205 4.312-2.573 6.642a59.553 59.553 0 0 0 .112 19.362c1.072 6.314 2.994 10.794 6.055 14.104 2.902 3.151 6.897 4.898 10.694 4.898z"/><path fill="#9BA2A6" d="m59.681 110.876-.077 17.792-19.496 11.33.061-17.792z"/><path fill="#FFC950" d="m59.681 110.876-.077 17.792-19.496 11.33.061-17.792z"/><path fill="#FFB839" d="M59.681 110.876v2.09l-19.512 11.311v-2.071z"/><path fill="#FFD469" d="m40.169 122.206-.061 17.792-19.63-11.333.077-17.792z"/><path fill="#FFC950" d="M40.169 122.206v2.071l-19.614-11.289v-2.115z"/><path fill="#DBB741" d="m59.681 110.876-19.512 11.33-19.614-11.333 19.496-11.33z"/><path fill="#FFC950" d="m61.13 105.087-.082 5.739-20.879 12.168v-5.739z"/><path fill="#CFD8DD" d="m31.192 112.099 8.977 10.895-12.26-7.012.083-5.739z"/><path fill="#FFD469" d="M40.169 117.255v5.739l-21.14-12.171.082-5.74z"/><path fill="#FFE088" d="m61.13 105.087-20.961 12.168-21.058-12.172 20.938-12.168z"/><path fill="#FF6C85" d="m53.094 109.757-3.2 1.856-21.057-12.171 3.176-1.857z"/><path fill="#FF6C85" d="m27.992 110.243 3.2 1.856L52.25 99.928l-3.177-1.856z"/><path fill="#FD546B" d="M31.192 112.099v5.74l-3.283-1.857.083-5.739zM31.192 117.891v16.96l-3.283-1.856.083-16.961z"/><path fill="#E22951" d="M31.192 117.891v1.219l-3.283-1.856.083-1.22z"/><path fill="#EA3D5B" d="M49.894 111.609v5.739l3.283-1.856-.083-5.74zM49.894 117.4v16.96l3.283-1.856-.083-16.96z"/><path fill="#E22951" d="M49.894 117.4v1.22l3.207-1.813-.007-1.263z"/><path fill="#FFD469" d="m156.174 155.144-.017 5.947-.173 1.226.016-5.947zM114.92 157.482l-.016 5.947-.383-1.21.017-5.947zM157.102 157.423l-.017 5.948-.556 1.185.016-5.947z"/><path fill="#FFD469" d="m114.753 159.739-.017 5.947-.753-1.15.017-5.947zM157.302 159.761l-.016 5.947-.921 1.103.017-5.948z"/><path fill="#FFD469" d="m115.298 161.978-.017 5.947-1.101-1.054.016-5.947zM156.76 162.076l-.017 5.947-1.247.989.017-5.948z"/><path fill="#FFC950" d="m116.539 164.118-.016 5.947-1.415-.914.017-5.948zM155.513 163.064l-.017 5.948-.012 1.23.017-5.947z"/><path fill="#FFD469" d="m155.501 164.295-.017 5.947-1.539.836.017-5.947zM116.749 165.344l-.016 5.947-.21-1.226.016-5.947z"/><path fill="#FFC950" d="m118.431 166.092-.017 5.948-1.681-.749.016-5.947zM153.962 165.131l-.017 5.947-.396 1.208.017-5.947z"/><path fill="#FFD469" d="m153.566 166.339-.017 5.947-1.777.656.017-5.947zM119.024 167.273l-.017 5.948-.593-1.181.017-5.948z"/><path fill="#FFC950" d="m120.904 167.829-.017 5.947-1.88-.555.017-5.948zM151.789 166.995l-.017 5.947-.764 1.146.017-5.947z"/><path fill="#FFD469" d="m151.025 168.141-.017 5.947-1.955.45.017-5.947zM121.86 168.927l-.017 5.948-.956-1.099.017-5.947z"/><path fill="#FFC950" d="m123.884 169.272-.016 5.948-2.025-.345.017-5.948zM149.07 168.591l-.017 5.947-1.116 1.042.017-5.947z"/><path fill="#FFD469" d="m147.954 169.633-.017 5.947-2.064.236.017-5.948zM125.165 170.252l-.016 5.947-1.281-.979.016-5.948z"/><path fill="#FFC950" d="m127.261 170.371-.016 5.947-2.096-.119.016-5.947zM145.89 169.868l-.017 5.948-1.423.903.017-5.947z"/><path fill="#FFD469" d="m144.467 170.772-.017 5.947-2.099.009.016-5.947zM128.829 171.195l-.017 5.948-1.567-.825.016-5.947z"/><path fill="#FFC950" d="m130.923 171.09-.016 5.947-2.095.106.017-5.948z"/><path fill="#FFD469" d="m140.678 171.516-.016 5.947-2.07-.22.017-5.947z"/><path fill="#FFC950" d="m142.367 170.781-.016 5.947-1.689.735.016-5.947zM134.752 171.401l-.017 5.948-2.024.329.016-5.947z"/><path fill="#FFD469" d="m132.727 171.731-.016 5.947-1.804-.641.016-5.947z"/><path fill="#FFC950" d="m138.609 171.296-.017 5.947-1.885.545.016-5.947z"/><path fill="#FFD469" d="m136.723 171.841-.016 5.947-1.972-.439.017-5.948z"/><path fill="#FFE088" d="m152.274 151.074.597 1.184 1.678.746.214 1.223 1.411.917-.174 1.226 1.102 1.053-.557 1.186.757 1.152-.92 1.102.378 1.213-1.247.988-.012 1.231-1.539.836-.396 1.208-1.777.656-.764 1.146-1.955.45-1.116 1.042-2.064.235-1.423.904-2.1.009-1.689.735-2.069-.22-1.886.545-1.971-.44-2.025.33-1.804-.641-2.094.105-1.568-.824-2.096-.119-1.281-.98-2.024-.345-.956-1.098-1.88-.556-.593-1.181-1.682-.748-.21-1.226-1.414-.915.173-1.225-1.102-1.054.557-1.185-.753-1.15.92-1.107-.382-1.21 1.255-.989.005-1.23 1.539-.836.395-1.208 1.778-.657.767-1.143 1.951-.452 1.117-1.043 2.063-.235 1.424-.903 2.106-.009 1.682-.735 2.073.217 1.886-.54 1.967.437 2.025-.329 1.804.641 2.094-.106 1.572.823 2.092.121 1.285.981 2.02.343.956 1.098z"/><path fill="#FFD469" d="M148.094 151.871c-6.922-4.037-18.106-4.043-24.98-.006-3.972 2.335-5.64 5.502-4.995 8.542.457-2.2 2.118-4.323 4.995-6.013 6.874-4.03 18.058-4.03 24.98.006 2.92 1.703 4.617 3.855 5.074 6.074.644-3.058-1.047-6.256-5.074-8.603z"/><path fill="#FFC950" d="M148.094 154.4c-6.922-4.037-18.106-4.037-24.98-.006-2.877 1.69-4.538 3.812-4.995 6.013.457 2.22 2.154 4.371 5.074 6.074 6.922 4.037 18.105 4.037 24.98 0 2.876-1.69 4.538-3.812 4.995-6.007-.457-2.22-2.155-4.371-5.074-6.074z"/><path fill="#FFB839" d="m144.512 155.343-.004 1.487-1.924 1.13.004-1.487zM135.409 158.867l.004-1.487c0-.208.135-.39.397-.544.305-.18.676-.276 1.12-.285.44-.01.943.085 1.5.285l-.004 1.487c-.557-.2-1.06-.296-1.5-.285-.444.01-.815.105-1.12.285-.263.154-.397.336-.397.544zM140.259 157.84l-.005 1.487-3 1.761.004-1.487z"/><path fill="#FFB839" d="m131.464 158.503.004-1.486c-.001.399.132.792.396 1.177.336.482.822 1.029 1.465 1.636l-.004 1.487c-.643-.607-1.13-1.154-1.465-1.636-.264-.385-.397-.778-.396-1.178zm10.595 1.464-.004 1.487c-.38-.816-.981-1.524-1.8-2.127l.004-1.487c.819.603 1.42 1.31 1.8 2.127zM145.12 159.209l-.005 1.487-3.06.758.004-1.487zM135.123 162.042l-.004 1.487a.51.51 0 0 0-.005-.07c-.032-.242-.183-.522-.457-.847l.004-1.487c.274.325.425.606.457.848a.512.512 0 0 1 .005.07z"/><path fill="#FFB839" d="m134.661 161.125-.004 1.487-2.436 1.43.004-1.487zM139.117 162.38l-.004 1.486c0 .101-.01.203-.027.306l.005-1.487c.017-.102.026-.205.026-.306zm-11.053.54-.004 1.487c-.827-.54-1.512-1.118-2.044-1.732-.54-.614-.857-1.174-.97-1.679l.003-1.486c.114.504.431 1.064.971 1.678.532.614 1.217 1.193 2.044 1.733z"/><path fill="#FFB839" d="m139.09 162.685-.004 1.487c-.085.509-.515.99-1.294 1.448-.966.567-2.148.843-3.546.831-1.402-.009-2.852-.354-4.358-1.04l.005-1.486c1.505.685 2.955 1.03 4.357 1.04 1.398.01 2.58-.265 3.546-.832.78-.457 1.21-.939 1.295-1.448z"/><path fill="#FFB839" d="m129.893 163.925-.005 1.486-1.977 1.161.004-1.486z"/><path fill="#FFE088" d="M139.09 162.685c-.085.509-.515.99-1.294 1.448-.966.567-2.148.843-3.546.832-1.402-.01-2.852-.355-4.357-1.04l-1.978 1.16-1.775-1.035 1.924-1.13c-.827-.54-1.512-1.118-2.044-1.732-.54-.614-.857-1.174-.97-1.678l3.136-.695c.118.457.37.925.748 1.41.382.481.863.927 1.444 1.337l2.95-1.732c-.642-.607-1.128-1.154-1.464-1.636-.332-.484-.457-.982-.368-1.488.081-.507.519-.993 1.31-1.457.977-.574 2.17-.856 3.591-.85 1.414.008 2.875.36 4.38 1.059l1.96-1.15 1.775 1.035-1.924 1.13c1.338.919 2.182 1.83 2.532 2.736l-3.06.758c-.38-.816-.982-1.524-1.801-2.127l-3.001 1.761c.639.597 1.128 1.132 1.46 1.607.336.478.458.969.373 1.477zm-3.169-4.377 2.509-1.472c-.557-.2-1.06-.296-1.5-.285-.444.01-.815.106-1.12.285-.294.172-.427.38-.391.62.04.243.206.527.502.852m-2.277 4.539c.422 0 .785-.088 1.08-.26.293-.173.426-.377.394-.614-.032-.242-.183-.523-.457-.848l-2.436 1.43c.519.195.99.292 1.42.292"/><path fill="#FFB839" d="m127.915 165.086-.004 1.486-1.776-1.035.005-1.487z"/><path fill="#FFF" d="m138.664 171.94-.984 1.409 1.404-.994.59 3.398.591-3.398 1.395.994-.984-1.418 3.363-.596-3.363-.597.984-1.409-1.395.986-.591-3.389-.599 3.397-1.395-.994.976 1.409-3.356.597z"/><path fill="#F2C0A7" d="M112.735 162.092s-1.212 1.57-1.346 3.14c-.135 1.57-1.48 14.673-1.66 16.064-.18 1.39-.539 3.993-.539 3.993s-3.544 5.609-3.23 6.147 4.262 1.032 5.25-1.39c.986-2.424 1.929-7.674 2.243-8.347s3.944-13.356 8.66-17.678c2.333-2.603-9.154-3.904-9.378-1.93z"/><path fill="#FED0B5" d="M114.684 195.3s1.556-2.973 1.463-7.037c-.093-4.065-.464-15.237-.464-16.77 0-1.533-.302-4.715 3.995-6.875 4.296-2.16 5.876 5.017 5.876 5.017s-5.993 1.812-4.831 4.692-.944 13.591-.944 15.17-.264 3.69-.96 4.572c-.698.883-3.717 2.973-4.135 1.231z"/><path fill="#2A2A38" d="M107.166 188.686s-2.23 2.764-2.183 3.17c.046.407.209.941 1.254.941s5.18-.383 5.644-1.939c.464-1.556-.151-2.288 1.126-3.205 0 0-.325 1.475-.15 1.649.173.174 1.195.464 1.218.035.024-.43.535-4.82.349-5.296-.186-.476-1.233-1.436-1.233-1.436s-.779 4.362-1.898 5.536c-1.12 1.174-3.649 2.742-4.127.545zm8.124 5.02s-1.418 3.256-1.266 3.636c.153.38.45.852 1.459.575 1.008-.277 4.893-1.74 4.929-3.364.036-1.624-.751-2.166.238-3.39 0 0 .077 1.51.29 1.631.215.122 1.277.131 1.186-.29-.091-.42-.76-4.788-1.066-5.198-.305-.41-1.013-.75-1.013-.75s-.153 4.103-.921 5.532-2.792 3.61-3.836 1.619z"/><path fill="#474756" d="M112.411 162.375s-1.338-.13.39-2.074c1.727-1.943 13.13-11.532 17.146-12.05 4.017-.518 13.683 3.877 14.331 5.216.648 1.339-1.417 8.303-4.181 9.771-2.764 1.469-15.851 7.17-16.283 7.127-.432-.043-5.097-7.256-11.403-7.99z"/><path fill="#FED0B5" d="M113.028 124.397s-1.056-1.114-1.596-1.363c-.534-.25-1.777-.64-2.426-.943-.648-.308-1.613-2.029-1.777-3.034-.161-1 .566-2.767 1.136-2.51.352.163.564.966.834 1.72.308.86 1.105 1.469 2.018 1.474a.464.464 0 0 0 .114-.009c.146-.042-.301-1.305-.559-1.682-.258-.376-.269-1.346.159-1.37.427-.024.647.924 1.328 1.732.268.319.484.837.653 1.369.358 1.13 1.125 2.065 2.114 2.725.074.048.146.1.217.156.727.569-2.215 1.735-2.215 1.735z"/><path fill="#1352AB" d="M131.185 117.523s1.655 7.21-.591 9.87c-2.246 2.66-7.506 7.742-8.924 7.506s-6.856-5.379-9.634-11.348c0 0 .71-2.364 2.778-1.891l7.388 7.683s7.328-13.475 8.983-11.82z"/><path fill="#255BB8" d="M125.116 150.15c-.013.424.186.826.532 1.072a104.91 104.91 0 0 0 4.575 3.066c.238.152.476.294.7.433 8.333 5.072 9.285 2.91 11.568 1.868 2.733-1.245 1.591-4.104 1.427-6.409-.134-1.863-5.527-6.884-4.1-11.455a5.5 5.5 0 0 1 .775-1.544c1.496-2.101 2.577-4.562 3.312-6.845.982-3.062 1.336-5.803 1.198-6.928-.095-.774-1.064-1.656-2.201-2.43-.277-.19-.562-.376-.852-.55a26.544 26.544 0 0 0-1.708-.955c-.095-.052-.186-.095-.273-.138-.19-.1-.363-.186-.51-.255-.047-.022-.09-.04-.13-.06-.021-.014-.043-.023-.065-.031-.069-.035-.125-.065-.172-.087a62.423 62.423 0 0 0-4.135-1.794 36.962 36.962 0 0 0-1.41-.52c-2.066-.717-4.548 1.626-5.606 3.873-.062.187-.14.37-.228.545-3.703 7.336-.923 8.052-.449 8.564a.385.385 0 0 1 .052.074c.065.143.087.943.082 2.028-.01 2.15-.115 5.425-.17 6.99a4.115 4.115 0 0 1-.39 1.585c-1.44 3.114-1.754 8.098-1.822 9.903z"/><path fill="#1352AB" d="M127.416 129.644c.065.143.087.943.082 2.028 1.83.523 4.07 1.224 5.661 1.942 2.3 1.025 4.908 3.074 6.66 5.111a5.5 5.5 0 0 1 .774-1.544c1.496-2.101 2.577-4.562 3.312-6.845-1.02 1.518-3.676 3.978-5.332 3.369-3.576-1.315-9.129-3.992-11.209-4.135a.385.385 0 0 1 .052.074z"/><path fill="#FED0B5" d="M139.389 144.42s-1.371.692-1.764 1.138c-.394.44-1.123 1.519-1.6 2.054-.48.533-2.406.964-3.416.833-1.004-.133-2.489-1.336-2.078-1.808.256-.29 1.087-.264 1.887-.307.911-.048 1.723-.637 1.99-1.51a.463.463 0 0 0 .024-.112c.002-.151-1.336-.085-1.771.054-.435.138-1.367-.129-1.267-.545.099-.417 1.07-.356 2.04-.777.382-.164.94-.222 1.498-.232 1.186-.02 2.301-.486 3.217-1.244.067-.057.138-.111.212-.163.753-.534 1.028 2.619 1.028 2.619z"/><path fill="#255BB8" d="M143.304 122.583a1.534 1.534 0 0 1 1.97.803c1.474 3.286 5.346 12.46 3.925 15.198-1.741 3.356-10.963 6.66-10.963 6.66-.973-.71-1.597-1.522-1.614-2.511l7.871-5.807s-4.8-8.383-3.952-11.394c.478-1.696 1.747-2.538 2.763-2.95z"/><path fill="#E7F1F7" d="m129.825 153.89.398.398.713.71-.013-.277c-.086-2.058-.562-15.083 1.12-19.062.355-.834.597-1.535.818-2.175.216-.64.406-1.22.657-1.83.8-1.945 2.192-4.138 6.893-9.184.07-.074 1.072-.822 1.639-2.041a30.786 30.786 0 0 0-2.62-1.41c-.096-.048-.178-.086-.238-.117a62.423 62.423 0 0 0-4.135-1.794c-.302.402-.605.86-.908 1.375-3.325 5.708-2.456 9.34-2.901 11.887a6.988 6.988 0 0 0-.052.346c-.07.472-.147 1.172-.238 2.042-.55 5.435-1.405 17.453-1.133 21.133z"/><path fill="#DCE8F1" d="M130.958 132.758c.675.233 1.328.475 1.903.726.216-.64.406-1.22.657-1.83-.796-.328-1.578-.652-2.322-.938-.07.472-.147 1.172-.238 2.042z"/><path fill="#3765C7" d="M140.255 126.505s-.363-1.466-.363-1.484c.026.07 1.462.225 1.462.225s1.076-.156 1.479-3.386c.039-.316.06-.61.069-.882-.277-.19-.562-.376-.852-.55-.567 1.22-1.57 1.968-1.639 2.042-4.173 4.48-5.738 6.707-6.599 8.514l6.443-4.48zm-9.275 4.073c.06.112.125.203.199.264.004-.043.012-.087.017-.126.017-.134.034-.25.052-.346.445-2.547-.424-6.179 2.901-11.887.303-.515.606-.973.908-1.375a36.962 36.962 0 0 0-1.41-.52c-.691.524-1.413 1.229-2.148 2.176l1.003.882-1.31.73s-1.492 7.733-.212 10.202z"/><path fill="#F2C0A7" d="M133.166 117.324c.311 1.462.618 2.923.93 4.39.064.31.138.64.35.881.225.264 2.91.402 3.995-.151 1.743-.887 2.703-2.508 2.137-3.615-.035-.065-.208-2.569-.407-3.745-.043-.242-.086-.489-.203-.71-.113-.22-.303-.41-.54-.47-.282-.065-.572.056-.831.172l-4.908 2.219c-.199.09-.415.194-.515.393-.095.195-.052.424-.008.636z"/><path fill="#FED0B5" d="M140.83 105.234a16.868 16.868 0 0 1 1.203 5.511c.097 2.067-.21 4.203-1.24 5.998s-2.859 3.2-4.92 3.379c-.904.077-1.853-.091-2.59-.62-1.077-.77-1.521-2.144-1.79-3.441a23.902 23.902 0 0 1-.484-4.093c-.035-1.11.015-2.256.466-3.272.739-1.66 2.462-2.714 4.236-3.11 1.774-.396 3.618-.232 5.428-.066"/><path fill="#7F5341" d="M137.945 122.967s5.767-1.797 6.206-9.51-4.516-11.43-8.792-10.111c-4.276 1.319-4.916 3.637-5.316 5.515s-.32 5.195 0 5.595 3.597 7.354 5.036 6.954c0 0 .04-2.158-.48-3.077 0 0-1.838.72-2.318-.36-.48-1.079-1.245-3.962-1.125-4.762.12-.799-.073-.953-.073-1.353s-.107-1 .133-1.52c.24-.519 5.302-1.917 5.302-2.836 0-.92 4.425 10.03 1.427 15.465z"/><path fill="#545466" d="M58.675 40.424c-.152-.089-.365-.076-.6.057l-39.2 22.841c-.464.267-.842.924-.84 1.451l.176 25.406c0 .264.095.448.244.534l-2.013-1.169c-.152-.089-.244-.273-.244-.533l-.175-25.41c-.003-.523.375-1.184.838-1.45l39.201-22.838c.235-.136.448-.15.6-.06l2.013 1.171z"/><path fill="#474756" d="M58.076 40.482c.466-.269.842-.052.85.478l.167 25.404c.008.532-.366 1.18-.83 1.448l-39.21 22.843c-.464.268-.84.053-.842-.475l-.175-25.407c-.002-.526.374-1.184.838-1.452l39.202-22.839z"/><path fill="#3E3E4C" d="M34.13 72.302c.161-.062.258.05.193.264-.063.215-.315.472-.286.665-.098.19-.064.273-.015.386.03.068.023.17.023.26 0 .064.005.13-.02.203-.024.077-.081.122-.122.186-.03.046-.029.083-.039.13-.014.061-.047.096-.075.153a.928.928 0 0 0-.3.119 1.048 1.048 0 0 0-.309.258c-.157.212-.122.443-.189.664-.081.269-.24.547-.363.809-.05.106-.128.373-.225.443-.05.03-.073.015-.098.003-.025-.014-.05-.029-.088-.007.004.21.031.292-.052.54-.078.231-.161.336-.267.397-.07.041-.15.062-.245.088-.014.062.01.145-.01.201-.027.075-.043.1-.057.108-.16.05-.177.072-.205.129-.023.046-.034.177-.038.22-.028.245.01.333-.112.578-.026.053-.094.034-.096.129-.002.093.115.016.138.079.07.197-.29.476-.265.74.042.419.321.241.627.091-.013.235-.23.483-.434.6a.423.423 0 0 1-.234.07c-.119-.008-.24-.167-.331-.24-.123-.096-.259-.077-.288-.29a1.12 1.12 0 0 1 .05-.464c.036-.106.096-.147.112-.265.01-.067-.017-.163-.02-.23-.006-.187.053-.36.08-.555.023-.179-.045-.267-.035-.433.004-.075.008-.17.053-.254.049-.092.108-.157.122-.257.02-.144-.009-.271.013-.416.025-.17.082-.347.093-.516.006-.086.006-.183.022-.272.012-.076.043-.14.049-.215.012-.198.005-.42-.03-.586-.02-.09-.097-.046-.173-.04-.068.006-.111-.025-.168-.042-.089-.026-.224.005-.243-.114-.017-.12-.017-.18-.085-.253-.06-.062-.099-.137-.142-.218-.023-.04-.03-.148-.062-.171-.04-.027-.12.028-.16 0-.054-.035-.044-.157-.001-.24.035-.072.063-.098.038-.16-.014-.038-.057-.042-.072-.08-.022-.06-.023-.225.06-.277.015-.01.038-.011.063-.013a.177.177 0 0 0 .07-.02.129.129 0 0 0 .049-.051c.028-.052.001-.122.011-.172a.557.557 0 0 1 .055-.136c.019-.032.048-.044.062-.082.026-.075-.027-.145-.027-.211 0-.11.02-.29-.059-.327a.07.07 0 0 0-.063.005c-.072.063-.052.056-.074.123-.025.076-.047.11-.072.124-.026.015-.055.01-.094.007-.047-.003-.105.033-.15.03-.053 0-.088-.04-.137-.05-.054-.01-.115.005-.16-.018-.036-.02-.062-.054-.1-.073-.036-.016-.08-.008-.114-.026-.05-.023-.07-.049-.126-.05-.1 0-.172-.054-.267-.067a.427.427 0 0 0-.375.098.829.829 0 0 1-.134.1.55.55 0 0 1-.127.053c-.049.014-.1.046-.151.06-.062.014-.087-.008-.13-.03-.037-.019-.072-.043-.115-.042-.025 0-.05.024-.076.013-.029-.014-.053-.082-.08-.104.018-.049.032-.144.018-.18-.013-.034-.03-.037-.052-.024-.029.016-.068.061-.12.097-.17.099-.108-.167-.235-.169-.088.001-.072.056-.095-.051a.469.469 0 0 0-.076-.185c-.082-.12-.198-.285-.336-.309-.01.201.22.276.103.536-.165-.052-.268-.103-.338-.291-.016-.045-.031-.169-.06-.197-.016-.018-.037-.026-.054-.016-.016.009-.027.032-.028.075-.18.104-.197.012-.243-.129-.058-.18-.208-.238-.319-.35-.103-.107-.122-.251-.124-.446 0-.143-.042-.242-.012-.399.039-.204-.152-.211-.08-.437.023-.011.048-.023.072-.037a.43.43 0 0 0 .079-.057c.01-.183-.228-.024-.313-.075-.08-.048-.133-.12-.226-.152-.04-.014-.062-.04-.094-.059-.037-.023-.089-.024-.114-.064-.022-.037.029-.156-.014-.17-.051.018-.07.034-.088.05a.304.304 0 0 1-.05.04c-.026-.036-.027-.076-.03-.116-.074.038-.105.108-.154.143-.031-.096-.03-.304-.083-.365-.07-.075-.208.098-.296.048-.086-.05-.128-.087-.25-.063a1.467 1.467 0 0 0-.499.194c-.149.086-.297.19-.44.312-.228.195-.387.488-.567.75-.096.14-.166.272-.225.427-.028.075-.053.167-.102.238-.057.087-.12.123-.166.206.047-.132.038-.238.092-.37.063-.158.168-.28.15-.43-.012-.097-.077-.17-.166-.118-.052.03-.077.08-.123.107-.1.038-.068-.002-.11-.017-.093-.032-.292.078-.323-.08-.034-.156.052-.354.191-.463.082-.061.207-.12.246-.248.022-.072 0-.186-.052-.182-.073.036-.119.116-.153.145a1.183 1.183 0 0 1-.275.168c-.127.06-.3-.006-.136-.216.061-.08.172-.17.242-.217l.104-.06c.03-.002.017.049.05.053.024.005.041.003.052-.003.059-.034-.067-.202-.109-.226-.094-.056-.311.107-.291-.091a.26.26 0 0 0 .088-.033c.103-.059.188-.186.237-.327.029-.08.029-.106.092-.16.06-.037.081-.049.105-.062l.058-.033c.086-.05.17-.107.157-.153l.026-.105a.194.194 0 0 0 .123-.03.335.335 0 0 0 .066-.05c-.005-.078-.009-.116.063-.166a.3.3 0 0 1 .27-.02c.05.028.073.1.147.08a.22.22 0 0 0 .052-.022c.081-.047.16-.144.237-.205a.48.48 0 0 1 .056-.039c.128-.074.223-.037.346-.066a.22.22 0 0 0 .06-.025c.062-.036.116-.097.183-.142.088-.05.173-.06.259-.069a.61.61 0 0 0 .248-.064.4.4 0 0 0 .125-.116c.031.015.055.013.076.002.04-.023.064-.086.094-.154.047-.11.093-.159.144-.188.049-.029.103-.04.167-.067a.572.572 0 0 0 .205-.156c.04-.049.047-.082.094-.116.11-.064.222-.021.312-.053.298-.108.648-.39.907-.325.078.02.1.032.192-.021l.079-.048c.126-.047.218-.068.31-.12a.58.58 0 0 0 .12-.093c-.008-.06-.056-.072-.084-.107-.054-.066-.058-.108-.155-.062-.052.029-.075.044-.098.059l-.052.03a.505.505 0 0 1-.05.027c-.08.037-.138.027-.208.03-.09.005-.17.01-.23-.054-.066-.07-.068-.076-.193-.004l-.156.094a.66.66 0 0 1-.178.078c-.05.011-.078.01-.12.034a.365.365 0 0 0-.05.036c-.067.055-.197.212-.294.268-.04.024-.076.03-.097.003.09-.095.3-.276.306-.416.004-.153-.113-.19.03-.357.096-.112.184-.189.202-.324.008-.07-.025-.153.012-.233.027-.058.109-.122.145-.167.045-.056.086-.123.125-.185.072-.11.14-.194.233-.272.11-.092.193-.123.289-.258.151-.208.268-.358.444-.526.166-.159.33-.265.502-.372.154-.096.28-.254.41-.418.314-.396.66-.693 1.013-1.002.434-.38.862-.76 1.309-1.1.13-.1.278-.166.405-.268.084-.064.15-.15.24-.202.119-.066.211-.063.318-.106.091-.05.152-.104.21-.14.03-.019.08-.052.131-.082.114-.065.233-.111.143.073-.11.226-.35.412-.51.556-.151.137-.235.334-.366.497-.13.162-.297.284-.4.481-.08.155-.107.32-.158.478-.055.166-.167.297-.193.472-.016.116.03.198-.057.311a1.253 1.253 0 0 1-.32.265c-.095.06-.194.12-.292.177-.066.038-.131.074-.195.107-.039.02-.1.04-.155.071a.232.232 0 0 0-.116.13c-.014.044.017.087.003.13a.607.607 0 0 1-.117.184c-.165.197-.077.261-.031.381.045.118-.032.436.138.413a.181.181 0 0 0 .073-.026c.106-.065.14-.074.178-.04.053.046.068.253.175.192a.287.287 0 0 0 .073-.07c.117-.142.112-.394.06-.48-.068-.107-.22-.088-.316-.15-.082-.052-.132-.157-.091-.318a.633.633 0 0 1 .268-.35.192.192 0 0 1 .11-.031c-.042.173-.093.266-.056.417.015.05.033.134.09.11.077-.041.084-.099.08-.15-.002-.078-.08-.135-.047-.238.024-.083.102-.151.16-.192.028-.019.063-.042.097-.061a.375.375 0 0 1 .095-.043c.035-.006.06.015.1.006.002-.044-.02-.064-.018-.105.034-.02.077-.051.118-.075a.209.209 0 0 1 .076-.03c.05-.005.066.058.118.055a.11.11 0 0 0 .052-.018c.171-.08.204-.043.239-.018a.44.44 0 0 0 .183.094c.047.009.092-.017.137-.044.054-.03.105-.06.154-.027.048.032.06.067.126.067.057 0 .119-.04.141.031.032.09-.118.375.075.276.03-.017.052-.038.074-.06a.389.389 0 0 1 .07-.057c.116-.034.09.024.131.085.031.05.078.068.144.052.084-.023.117-.075.117.05a.287.287 0 0 1-.09.082.592.592 0 0 1-.086.038c-.03.011-.062.022-.09.038-.01.056-.004.111-.022.164-.145.044-.225-.117-.376-.03-.03.184.123.162.212.228.051.037.056.084.037.177-.004.021-.02.04-.026.07-.008.049.008.087-.016.14-.065.028-.233-.056-.32-.006-.086.126.28.001.253.18-.122.074-.24.104-.296.09-.039-.01-.061-.049-.105-.052-.022-.001-.055.02-.084.022-.072.002-.107-.058-.174-.066-.054-.006-.132.028-.208.071-.05.03-.1.062-.139.091-.037.027-.097.102-.142.128-.026.015-.047.015-.057-.018-.014-.05.051-.135.096-.183a.308.308 0 0 1 .077-.064l.065-.034c.024-.013.099-.046.157-.08a.227.227 0 0 0 .072-.055c.041-.07-.041-.089-.023-.161.02-.082.12-.145.15-.225.032-.092-.022-.17-.06-.178-.062-.014-.105-.02-.163-.057-.051-.037-.041-.038-.109-.006-.109.051-.17.103-.262.07-.072-.03-.083-.062-.183-.004-.187.11-.258.31-.194.47.025.064.095.104.07.21-.016.075-.02.064-.077.123-.025.023-.1.072-.115.097-.026.048-.004.148.015.17.06.07.207-.001.267.066-.073.036-.127.034-.196.074a.421.421 0 0 0-.075.056c-.042.04-.058.07-.098.093-.063.033-.084-.004-.12.012-.031.018-.053.057-.075.097-.02.036-.038.072-.055.082-.047-.04-.008-.132-.025-.17-.09.083-.09.22-.161.312-.098.128-.213.128-.297.311-.037.08-.034.166-.057.245a.827.827 0 0 1-.143.26c-.065.09-.106.132-.118.238-.014.116.022.098.072.07a.316.316 0 0 1 .086-.044c.107-.023.066.087.095.163.013.031.027.035.044.026.025-.015.058-.063.104-.095.117-.07.192-.096.248-.08.08.025.13.09.238.063.064-.013.137-.06.205-.085.121-.046.174-.072.183.076.006.074.007.145.025.212.025.09.052.206.147.198a.188.188 0 0 0 .079-.024.165.165 0 0 0 .074-.093c.055-.168-.072-.286-.048-.453.012-.087.024-.122.085-.172.09-.076.156-.06.164-.191.012-.153-.078-.181-.142-.253-.087-.096-.032-.239-.016-.4.01-.092-.048-.323.005-.42.089-.072.147-.057.179-.065a.236.236 0 0 0 .055-.025c.032-.018.066-.042.096-.06.033-.019.08-.055.12-.079.02-.011.04-.02.055-.022.04-.004.082.052.115.066.039.018.086.035.131.037.04.001.097-.034.117.01.033.066-.044.23.015.282.025.021.079.003.138-.03a.9.9 0 0 0 .207-.169c.098-.118.03-.338.132-.42.065-.04.063.034.074.077a.23.23 0 0 0 .054.103c.036.044.162.28.233.239.02.044.053.075.086.1.037.031.092.011.132.033.037.024.02.069.039.103.027.046.072.024.125.012.092-.022.172-.059.146.093-.008.045-.03.088-.049.132-.05.126-.075.124-.176.203-.096.08-.168.194-.25.3a.457.457 0 0 1-.137.117c-.046.027-.094.047-.141.072-.208.12-.397.343-.526.577.09-.1.136-.215.231-.27.1-.041.22-.105.232-.025.017.115-.086.141-.145.201-.02.135.055.027.086.061l-.006.091c.008.072.041.083.097.051.07-.048.098-.093.127-.121a.338.338 0 0 1 .053-.035c.1-.076.124-.16.17-.187.036.212-.073.315-.229.407a.79.79 0 0 0-.166.129c-.061.059-.1.143-.155.193 0-.07.006-.147-.003-.213-.039.023-.12.178-.174.226-.049.042-.104.084-.155.13-.078.068-.117.119-.1.208.01.056.06.084.035.164l-.09.047c-.039.056.006.096-.014.145a.19.19 0 0 1-.086.091c-.031.018-.066.031-.098.044-.035.012-.067.024-.093.039-.043.09-.04.158-.059.232-.114.06-.104.122-.104.145.001.058-.01.091-.023.099-.015.009-.034-.014-.042-.068-.004-.033-.001-.092-.044-.067-.06.044-.032.069-.028.101.012.073.035.14.041.22a.902.902 0 0 1-.007.233c-.016.09-.08.178-.137.258-.102.148-.34.382-.356.547-.01.09.036.16.052.23.015.06.031.09.069.13.022.027.035.086.016.142-.024.13-.035.15-.05.158-.043.025-.113-.06-.13-.076-.027-.02-.062-.028-.07-.072-.008-.05 0-.111-.01-.16-.013-.063-.02-.052-.067-.067a.1.1 0 0 0-.097.008c-.023.014-.05.035-.09.062-.073.03-.086.002-.124.022-.039.022-.072.06-.105.084-.043.026-.061.036-.078.045a.25.25 0 0 0-.123.12c-.016.034-.02.062-.047.082a.443.443 0 0 1-.112.053c-.033.003-.043-.013-.071.003a.487.487 0 0 1-.163.094.34.34 0 0 0-.121.068c-.033.028-.045.059-.066.101l-.04.092c-.02.043-.051.072-.078.109-.106.14-.059.213-.05.326.008.076-.035.105-.062.182a.417.417 0 0 0-.026.18c.005.059.01.121.027.17.02.056.036.06.089.058.086-.005.023.09.037.158.01.045.041.037.076.017l.078.017c.036 0 .052-.025.064-.046.022-.042.02-.05.049-.067.031-.016.05-.023.071-.034.044-.032.06-.06.085-.08.117-.051.143-.081.153-.128l.006-.081c.027-.046.04-.063.043-.09.004-.036-.008-.064 0-.102.01-.061.067-.102.12-.133l.066-.036.058-.035a.178.178 0 0 1 .057-.024c.035-.006.05.02.035.064-.018.063-.057.076-.071.131-.02.073.037.092.029.153-.012.085-.043.056-.084.134-.018.034-.016.075-.028.11-.051.174-.029.154.092.09.07-.035.158-.07.237-.116a.67.67 0 0 0 .054-.035h.054c.053.054.06.116.062.17v.115c-.002.079-.047.178-.032.247.053-.016.098.01.133.034.04.025.069.056.127.022a.403.403 0 0 0 .105-.11.16.16 0 0 1 .057-.055.115.115 0 0 1 .074-.02c.02.005.035.018.062.005.053-.019.086-.01.105.001 0-.048.02-.07.046-.086.154-.124.133-.197.172-.274a.33.33 0 0 1 .134-.152c.054-.031.111-.044.17-.07a.52.52 0 0 0 .14-.122c.04-.042.079-.085.125-.111a.196.196 0 0 1 .06-.023c.058-.01.07.023.136-.003.066-.035.094-.055.119-.069.153-.088.263-.15.38-.166.075-.01.139.022.204.043.07.021.093.086.15.124.064.04.101-.002.185-.039.086-.04.156-.026.234-.021.095.009.224-.056.273.05.01.022.009.065.021.084.012.021.041.016.05.03.032.048.04.073.014.162-.049.16-.145.218-.136.383.086-.042.109-.11.13-.177.023-.068.044-.135.094-.164a.12.12 0 0 1 .075-.013c0 .054-.019.119-.01.164.082-.102.1-.174.168-.213a.231.231 0 0 1 .067-.025c.095-.021.14.033.208.067.053.03.095.024.136.001.065-.037.126-.123.225-.188.105-.063.137-.063.184-.022.078.068.083.056.195.012zm-12.213-.166a.683.683 0 0 1-.028.069.387.387 0 0 1 .028-.069zM36.966 61.13c.066-.038.11-.028.135.036.023.055.009.087.06.102.037.011.08.048.052.126-.02.052-.094.099-.123.155a.319.319 0 0 1-.141.157c-.111.078-.2.176-.303.236a.428.428 0 0 1-.076.035.22.22 0 0 0-.044.02c-.028.015-.049.036-.09.069a.37.37 0 0 1-.047.035c-.035.02-.06.019-.065-.027-.002-.036.016-.096-.003-.123-.016-.026-.063.004-.066-.033-.002-.07.166-.115.107-.184-.009-.008-.022-.006-.04.004-.024.015-.056.044-.09.073a.627.627 0 0 1-.088.072.07.07 0 0 1-.024.01v-.052c-.012-.082.074-.155.146-.197a.338.338 0 0 1 .079-.035c.045-.01.083-.003.132-.03a.264.264 0 0 0 .005-.004c.03-.017.056-.051.08-.072a.25.25 0 0 1 .097-.056l.05-.024a.229.229 0 0 0 .023-.016c.099-.066.11-.194.203-.256a.375.375 0 0 1 .031-.02z"/><path fill="#3E3E4C" d="M34.014 59.451c.224-.13.445-.209.671-.336.09-.052.18-.116.27-.168a1.28 1.28 0 0 1 .038-.021c.075-.041.07-.038.115-.003.039.032.006.05.078.038a.21.21 0 0 0 .072-.03.961.961 0 0 0 .057-.035l.058-.037c.046-.027.09-.044.122-.027-.114.143-.284.256-.422.366-.084.067-.58.337-.614.5a3.802 3.802 0 0 0 .244-.15c.082-.052.164-.104.248-.152.03-.018.097-.067.156-.101.044-.026.085-.043.102-.032.04.025-.006.056-.01.096-.008.1.03.127.103.085a.369.369 0 0 0 .043-.03c.189-.147.332-.387.53-.516.145-.093.282-.211.426-.294l.033-.019c.047-.024.203-.121.222-.087.05.077-.213.304-.28.376-.099.106-.158.24-.244.341-.055.067-.137.075-.182.188-.022.055-.002.126-.022.185-.014.046-.033.068-.053.11-.057.116-.098.232-.046.315.045.075.164 0 .22.038.123.087-.065.373-.077.533-.014.175-.032.228-.176.36-.075.07-.118.1-.104.195.015.091.08.107.085.216.002.083-.008.179 0 .259.007.064.044.093-.028.172a.105.105 0 0 1-.03.024.396.396 0 0 1-.029.015.37.37 0 0 0-.053.03c-.05.043-.086.097-.127.15-.084.104-.154.163-.244.241-.078.069-.133.162-.198.252-.119.165-.314.178-.408.386-.034.079-.04.172-.081.252a.509.509 0 0 1-.196.217c-.044.025-.069.035-.088.047-.029.016-.046.035-.095.108-.039.063-.057.102-.112.155-.04.036-.113.065-.146.103-.084.105-.03.22-.075.326-.032.075-.098.109-.114.198-.026.145.087.193.007.385-.03.07-.05.09-.094.115-.015.01-.034.019-.057.032-.037.019-.09.054-.123.061-.031.006-.05-.02-.078-.014-.038.02-.091.072-.113.087a.679.679 0 0 1-.028.016c-.09.053-.114.03-.184-.024a.646.646 0 0 0-.199-.107c-.06-.022-.136-.04-.165-.11-.043-.11-.033-.292-.056-.422-.01-.065-.035-.108-.05-.165-.044-.17.065-.4.031-.573-.207.09-.198-.36-.227-.508-.042-.214-.155-.391-.332-.433a.298.298 0 0 0-.226.034.49.49 0 0 0-.075.055c-.103.087-.164.12-.27.19-.069.044-.158.135-.236.18a.195.195 0 0 1-.058.024c-.04.007-.055-.03-.088-.032-.04-.003-.064.018-.105.034-.043.016-.195.08-.215.05-.068-.105.22-.237.247-.342-.065.034-.383.189-.338.002.008-.037.055-.07.077-.106l.043-.088a.31.31 0 0 1 .107-.106.497.497 0 0 1 .082-.036c.047-.017.105-.019.16-.05a.22.22 0 0 0 .059-.05c.03-.037.035-.087.063-.122a.127.127 0 0 1 .036-.03.316.316 0 0 1 .045-.022.183.183 0 0 0 .02-.013c.086-.069.176-.246.15-.342-.044.027-.144.112-.226.16-.053.03-.099.045-.116.016-.003-.13.061-.2.15-.251.048-.027.102-.05.157-.072.056-.023.112-.047.164-.077a.424.424 0 0 0 .152-.138c.1-.16-.017-.163-.099-.123-.082.04-.162.082-.138-.064.136-.1.3-.232.455-.322a.845.845 0 0 1 .213-.092c.115-.028.183.115.309.042.135-.09.081-.206.169-.282.04-.025.062-.017.088-.028.04-.016.098-.041.154-.073a.508.508 0 0 0 .152-.124c.02-.146-.154.02-.14-.127.122-.144.256-.245.39-.332.167-.108.33-.25.497-.376.074-.056.147-.103.22-.146zm13.863-6.992c.14-.082.177-.026.271-.006.05.012.095-.002.143-.03.046-.026.094-.066.146-.108.054-.043.126-.108.19-.144a.227.227 0 0 1 .06-.026c.095-.022.08.104.146.1.017.148-.159.379-.263.52a3.09 3.09 0 0 1-.418.443c-.059.053-.413.369-.261.392.116-.209.313-.358.469-.502.048-.046.156-.156.235-.202.025-.014.047-.022.064-.02.073.01.039.121.117.076a.4.4 0 0 0 .061-.047c.123-.11.188-.213.312-.285a.567.567 0 0 1 .067-.033c.025.094-.094.224.054.16.082-.033.174-.098.26-.136.03-.013.086-.032.133-.059a.206.206 0 0 0 .058-.046c.08-.106-.01-.065.02-.137a.289.289 0 0 1 .132-.136c.068-.04.145-.063.194-.083.203-.08.33-.09.329.15-.002.092-.011.217.086.16.13-.089.066-.196.154-.277.054-.035.08-.003.113-.014.082-.044.123-.073.16-.094.041-.024.085-.046.128-.07a.75.75 0 0 0 .078-.052c.05-.036.095-.083.15-.122.047-.034.08-.039.12-.103.03-.044.019-.102.048-.142a.772.772 0 0 1 .221-.173c.084-.049.168-.087.211-.098a.976.976 0 0 0 .294-.115l.097-.06c.042-.024.086-.042.114-.022.022.015-.006.093.018.1.134-.051.123.002.146.008.04.01.072.003.106-.016a.605.605 0 0 0 .11-.092c.078-.078.149-.13.217-.17.119-.069.231-.097.37-.15.005.028.013.075.003.106-.062.176.084.119.23.035.092-.053.183-.117.22-.138.052-.03.11-.06.165-.091a.964.964 0 0 0 .097-.063c.032-.025.088-.089.132-.115.035-.02.063-.017.069.044-.093.112-.015.119.057.077a.214.214 0 0 0 .056-.046c.116-.138.014-.06.007-.141-.007-.107.097-.201.225-.275.15-.087.333-.145.402-.163.238-.06.479-.038.692-.012.052.005.172.083.224.053.107-.104.256-.078.318-.076.177.009.062.134-.073.257.002.053.006.11-.006.166-.077.046-.087.001-.145.013-.037.008-.082.045-.121.054-.052.01-.062-.019-.103-.016-.07.023-.084.041-.117.06-.032.018-.048.033-.063.04-.016.01-.029.012-.058.004-.03-.008-.037-.09-.086-.061-.099.059-.082.254-.09.327-.113.067-.223.08-.265.002-.005.1.02.152.07.182.017.009.06-.004.085.015l.017.073c.024.051.088.045-.002.159-.094.07-.13.058-.174.077a.43.43 0 0 0-.055.025c-.04.023-.05.047-.097.114a2.04 2.04 0 0 1-.276.332c-.109.107-.102.165-.157.286-.024.053-.042.079-.059.088-.04.024-.071-.051-.155-.04-.13.203-.362.273-.491.465-.078.114-.05.162-.047.26.007.082-.005.16-.005.244-.15.092-.055.24-.102.364a2.97 2.97 0 0 1-.157.284c-.08.105-.174.096-.246.208-.086.132-.075.298-.152.44.02-.133.048-.305.021-.414-.023-.105-.124-.143-.15-.248-.046-.162.025-.242.138-.417.08-.127.128-.244.227-.353.063-.07.151-.114.207-.19.047-.063.065-.137.1-.207.053-.103.182-.256.19-.371.005-.077-.009-.095-.03-.082-.035.02-.088.117-.116.178-.056.122-.1.236-.192.29-.043-.032-.04-.093-.05-.134-.076.075-.096.107-.173.152-.051.03-.1.049-.144.074a.321.321 0 0 0-.068.05c-.16.154-.083.4-.222.542-.121.08-.1-.076-.181-.042-.06.034-.13.16-.197.203-.083.049-.153.051-.22.053-.067.002-.133.003-.199.041a.311.311 0 0 0-.065.05c-.086.09-.143.227-.235.309-.082.073-.162.096-.242.177-.133.134-.15.326-.226.499a.676.676 0 0 1-.141.216c-.053.059-.148.12-.135.207.015.091.14-.01.189.014.048.02.017.107.091.064.08-.051.119-.171.197-.217.093-.03.178.026.182.092.004.077-.037.12-.078.198-.067.128-.126.224-.122.349.007.196-.095.392-.166.61-.045.135-.082.349-.157.466-.08.124-.205.198-.3.264-.102.074-.286.31-.357.45-.057.11-.057.231-.133.334-.08.062-.094.077-.11.125-.073.224.167.21.173.35.005.079-.047.189-.113.227a.086.086 0 0 1-.069.01c-.094-.025-.031-.182-.02-.281.033-.226-.108.013-.188-.077-.058-.067.02-.206-.049-.167a.548.548 0 0 0-.079.064c-.034.031-.063.083-.1.105a.072.072 0 0 1-.055.008c-.064-.013-.031-.088-.054-.148-.086.078-.082.181-.15.275-.057.077-.26.157-.222.263.061-.033.09.007.143.002.046-.003.09-.045.13-.051.129-.016.01.07-.08.164-.2.208-.071.204.058.214.109.008.134.064.138.203.01.24-.015.457-.146.733-.12.258-.224.474-.412.694-.078.092-.162.17-.246.252-.147.14-.334.3-.483.442-.103.097-.27.182-.297.358-.032.224.167.191.253.269.085.069.15.442.031.64a.241.241 0 0 1-.088.087c-.112.058-.13.07-.148.09-.065.07-.067.13-.09.216-.055-.022-.014-.154-.06-.182-.018-.007-.042.002-.066.016-.164.046-.296-.108-.387-.055-.026.015-.048.046-.066.1-.048.151.026.406.074.496.076.15.248-.065.324.025.056.067-.016.229.06.298.094.082.083.154.028.186-.045.026-.118.026-.19-.015-.096-.055-.164-.164-.244-.24a.55.55 0 0 1-.167-.27c-.044-.239.047-.711-.152-.794-.004.083-.036.205-.112.249-.169.038-.048-.122-.032-.211.024-.137-.103-.139-.157-.207-.051-.065-.122-.272-.238-.22-.074.041-.278.257-.326.315a.7.7 0 0 0-.074.101c-.073.118-.075.1-.145.178a.755.755 0 0 0-.173.299c-.047.123-.098.29-.21.374-.032.019-.053.023-.073.027a.19.19 0 0 0-.065.021c-.047.213.04.44-.048.653-.049.118-.085.15-.118.29-.012.047-.034.182-.059.22-.105.085-.12-.08-.156-.12-.046-.044-.121-.007-.15-.052-.02-.03-.015-.114-.031-.157-.063-.164-.143-.304-.164-.504-.017-.168.011-.37-.006-.537a.232.232 0 0 0-.058.022c-.12.07-.047.22-.148.28-.047.028-.147-.193-.173-.218-.062-.06-.14-.155-.23-.166-.045-.006-.1.015-.16.05-.13.075-.282.212-.394.279-.045.026-.099.061-.153.093-.08.045-.16.082-.214.064-.088-.028-.087-.106-.156-.067a.467.467 0 0 0-.088.076.669.669 0 0 1-.126.11c-.046.026-.087.026-.145.004-.104-.04-.17-.22-.307-.14a.32.32 0 0 0-.067.054c-.002.269.157.601.382.471a.62.62 0 0 0 .202-.228c.068-.116.1-.175.125-.19.028-.015.048.021.098.094.068.093.185-.02.261.038.087.064-.016.238-.085.366-.037.07-.07.118-.1.194-.04.106-.053.106-.096.178-.04.071-.07.151-.11.22-.025.043-.043.061-.06.07-.224.168-.166.315-.31.399a.337.337 0 0 1-.058.025c-.05.018-.08.006-.116.027a.19.19 0 0 0-.052.05c-.05.063-.053.148-.106.204-.224.153-.254.213-.301.31-.17.033-.186-.203-.28-.316-.046-.057-.062-.144-.116-.188-.047-.041-.1-.048-.14-.104-.045-.06-.043-.173-.085-.227-.04-.051-.1-.069-.135-.129-.033-.059-.068-.126-.112-.176l-.072-.07c-.029-.006-.063.028-.088.026-.1-.008-.156-.116-.214-.204.047.095.042.241.042.378.1.074.142.255.25.335.092.072.156.042.142.23-.014.173-.006.18.115.197.047.008.107.02.128.073.015.038-.026.193.025.163.055.012.055.068.088.104.054.058.156.006.208.05.058.056-.026.178.017.25.167-.096.284-.188.414-.306.072-.066.222-.243.325-.302.027-.017.052-.024.07-.018-.128.442-.12.872-.433 1.298-.054.07-.105.129-.15.206-.05.091-.075.18-.13.272-.137.223-.328.347-.407.6-.057.18-.028.34-.011.483.025.193.138.26.147.462.007.152.046.351-.048.54-.053.108-.153.169-.22.264-.06.084-.095.151-.164.232-.137.161-.137.185-.108.34.031.164.13.359-.08.542-.093.08-.146.077-.185.222-.022.086.007.152-.02.245-.04.139-.128.355-.19.499-.079.182-.226.352-.349.506a.995.995 0 0 1-.28.224 3.318 3.318 0 0 1-.144.077l-.146.08c-.153.088-.264.115-.318-.024-.029-.076-.02-.189-.046-.264-.02-.054-.07-.082-.099-.127-.136-.23-.104-.668-.273-.859-.078-.087-.154-.158-.145-.343.004-.106.055-.345.163-.425.025-.148-.033-.254-.05-.374-.013-.101.008-.23-.003-.336-.025-.223-.237-.3-.348-.426-.111-.124-.013-.257.01-.462.022-.186-.032-.181-.114-.134a1.52 1.52 0 0 0-.058.036l-.067.041a.33.33 0 0 1-.066.031c-.157.054-.242-.167-.395-.079-.123.078-.237.293-.34.383-.051.035-.07.038-.09.042-.02.006-.04.01-.061.022-.072.05-.102.127-.158.18a.562.562 0 0 1-.127.093c-.105.06-.134.078-.162.1-.056.046-.096.088-.141.113a.197.197 0 0 1-.094.028.406.406 0 0 1-.36-.189c-.045-.068-.066-.127-.142-.154-.064-.027-.127-.013-.18-.056-.112-.091-.1-.294-.1-.485-.001-.098-.124-.037-.163-.083-.044-.057-.021-.233-.011-.326.016-.153-.001-.313.142-.443.062-.041.084-.051.107-.062a.642.642 0 0 0 .064-.03.251.251 0 0 0 .081-.072c.078-.107.037-.175.036-.271.102-.19.077-.45.24-.627.128-.14.212-.118.256-.33.035-.164.01-.27.106-.44.045-.083.143-.17.172-.265.116-.385-.389-.038-.373-.207.004-.045.06-.072.078-.123.022-.065.004-.106-.002-.156a2.175 2.175 0 0 1-.01-.387c.175-.086.367-.171.54-.243.032-.013.069-.028.102-.047.054-.032.1-.074.11-.142.01-.079-.053-.098-.068-.163-.025-.125-.002-.187-.105-.236-.08-.037-.191-.034-.159-.206.054-.032.09-.04.127-.05.034-.01.07-.018.106-.039.15-.102.069-.092.124-.19.088-.16.29-.192.372-.444.067-.21.21-.265.323-.427.053-.078.057-.14.119-.215.047-.06.106-.087.147-.156.108-.185-.003-.342.06-.527.065-.191.246-.277.173-.45a1.092 1.092 0 0 0-.198.141c-.054.045-.108.09-.16.119-.072.042-.138.052-.185-.017-.107-.15.077-.452.113-.68.147-.082.304-.197.348-.265.07-.114.04-.198.127-.314.047-.062.086-.05.125-.15.038-.105-.013-.19.009-.293.024-.118.076-.145.137-.24.112-.173.087-.26.26-.378.139-.095.143-.111.257-.27.097-.133.16-.153.27-.229.054-.037.089-.053.14-.115.03-.04.049-.1.076-.131a.375.375 0 0 1 .099-.084.646.646 0 0 1 .104-.045c.034-.014.068-.027.102-.047.114-.087.166-.164.227-.2a.134.134 0 0 1 .06-.018c.061-.005.096.055.146.076.115.044.262-.107.398-.124.082-.01.26.01.3.087.051.095-.04.306-.143.4a.477.477 0 0 1-.085.063c-.046.027-.092.043-.138.06-.047.016-.093.032-.138.058-.065.127.017.19.065.217.052.029.119.017.19-.024a.663.663 0 0 0 .144-.117c.15-.157.196-.417.339-.557a.5.5 0 0 1 .156-.08.43.43 0 0 0 .092-.037.73.73 0 0 0 .221-.234c.066-.099.098-.2.19-.275.139-.084.26-.105.347-.153.188-.108.295-.232.411-.456.084-.164.037-.147.147-.213a.552.552 0 0 1 .103-.045c.029-.01.055-.018.083-.034a.351.351 0 0 0 .093-.082c-.006-.072.033-.153.034-.23.189-.108.276-.157.363-.131.095.03.155.101.265.038a.406.406 0 0 0 .072-.056c.012-.134-.05-.19-.066-.299-.023-.144.015-.167.107-.288.107-.144.125-.263.196-.406.036-.07.07-.11.097-.126.057-.033.095.028.107.124.019.143-.053.288-.069.438-.02.172.083.212.108.344.048.263-.087.48-.302.674a.547.547 0 0 0 .385-.203c.156-.184.325-.598.206-.704-.07-.06-.085-.048-.124-.148-.008-.028-.02-.042-.035-.064-.054-.087-.066-.106-.031-.235.028-.11.085-.214.075-.32.133-.078.143.288.27.272.028-.099-.045-.239.037-.328.034.01.061.004.085-.01.026-.015.049-.04.071-.064a.302.302 0 0 1 .07-.06c.105-.04.097.09.206.027.07-.2-.408-.129-.018-.392.145-.098.297-.209.442-.293.079-.045.148-.037.223-.08.076-.243-.162-.075-.135-.267.151-.121.261-.298.417-.423a.749.749 0 0 1 .095-.064 2.19 2.19 0 0 1 .121-.067.696.696 0 0 0 .155-.116c.107-.108.106-.18.219-.245.057-.033.098-.05.141-.076a.656.656 0 0 0 .08-.054c.18-.14.254-.38.438-.498zm4.737 9.695c.103-.06.175.193.21.256.077.119.122.23.176.368.045.11.128.226.227.263.096.039.238.009.336.044.202.082.205.406.191.697a1.338 1.338 0 0 1-.175.565c-.067.133-.104.24-.126.373-.028.146-.07.307-.192.403a.219.219 0 0 1-.022.015c-.016.009-.028.013-.04.018l-.033.015a.206.206 0 0 0-.06.06c-.044.066-.038.136-.096.17-.031-.018-.038-.066-.068-.075-.023.065 0 .113-.029.18a.277.277 0 0 1-.116.147c-.05.029-.104.035-.152.045-.127.012-.195.028-.247-.08-.053-.088-.017-.272-.144-.267a.054.054 0 0 0-.022.006l-.015.013-.01.011c-.007.004-.015.002-.03-.012-.028-.045.031-.155-.03-.171-.047.075-.092.197-.158.235a.079.079 0 0 1-.057.01c-.097-.02-.068-.167-.202-.14a.19.19 0 0 0-.05.022c-.057.032-.11.09-.167.13a.816.816 0 0 1-.1.067c-.058.034-.119.062-.175.094-.12.07-.209.13-.321.257-.11.133-.194.276-.318.348a.354.354 0 0 1-.03.015c-.052.025-.106.039-.156.068a.27.27 0 0 0-.068.054c-.067.075-.098.177-.157.237a.398.398 0 0 1-.076.06c-.109.063-.169-.01-.162-.134.11-.074.05-.254.05-.338a.527.527 0 0 0-.116-.295c-.074-.1-.105-.17-.1-.343 0-.068.096-.284.037-.304-.023.01-.042.053-.06.096-.019.041-.038.083-.053.092-.051-.006.008-.196.053-.257a.23.23 0 0 1 .071-.057c.061-.035.14-.065.175-.085.223-.141.342-.294.362-.582a.487.487 0 0 1 .067-.046 1.12 1.12 0 0 1 .078-.04.926.926 0 0 0 .072-.036c.073-.043.128-.102.139-.249.008-.08-.015-.154.03-.239a.404.404 0 0 1 .153-.146.31.31 0 0 1 .113-.043c.055-.008.138-.016.209-.057a.266.266 0 0 0 .127-.175c.045-.146-.009-.252.096-.406a.32.32 0 0 1 .099-.1.163.163 0 0 1 .079-.022.591.591 0 0 0 .26-.082l.058-.036c.088-.051.155-.063.1.089-.058.156-.073.198.024.253.102.048.208.047.336-.027a.772.772 0 0 0 .076-.051c.298-.214.079-.62.13-.881z"/><path fill="#3E3E4C" d="M43.532 67.665a.544.544 0 0 1 .052-.027c.069.185.002.535-.059.775a16.24 16.24 0 0 1-.268.899c-.042.13-.054.24-.172.31a.28.28 0 0 1-.012.006c-.127.066-.239-.063-.264-.17-.05-.204.208-.664.044-.748.032-.233.26-.31.357-.495.126-.232.113-.43.322-.55z"/><path fill="#FFF" d="M23.018 78.77c.141.14.213.397.217.77 0 .374-.065.71-.205 1.014a1.518 1.518 0 01-.63.704c-.282.163-.494.176-.634.034-.141-.142-.213-.399-.217-.77a2.427 2.427 0 01.205-1.016c.137-.303.349-.537.63-.701.282-.164.494-.177.634-.034zm-.241 1.682c.077-.208.117-.448.114-.712 0-.267-.042-.457-.122-.572-.083-.116-.21-.122-.383-.022a.898.898 0 00-.381.468c-.08.21-.12.447-.117.71.001.266.043.455.127.568.081.115.206.124.375.027l.008-.005c.172-.1.3-.255.379-.462M24.237 77.784l.015 2.368-.33.19-.014-2.01-.419.244-.003-.356zM25.395 77.05c.173-.099.324-.124.456-.076.13.05.197.182.198.4 0 .121-.026.253-.081.397a4.718 4.718 0 01-.301.603l-.48.848.937-.546v.385l-1.41.822-.003-.339.621-1.086c.14-.245.239-.43.297-.556a.79.79 0 00.085-.333c0-.096-.033-.157-.095-.188-.063-.03-.143-.017-.24.04-.168.096-.308.279-.42.542l-.283-.02c.09-.209.189-.385.299-.528.107-.141.247-.265.42-.364zm2.307-1.286l.003.31-.495.932c.188-.1.337-.12.443-.052.108.067.163.192.163.373.001.243-.067.473-.21.694a1.59 1.59 0 01-.55.526l-.009.006a.941.941 0 01-.651.133l.146-.41c.168.037.341.004.523-.101a.924.924 0 00.305-.273.59.59 0 00.116-.348c0-.121-.046-.192-.132-.214-.087-.022-.208.013-.36.102a1.251 1.251 0 00-.223.168v-.305l.472-.916-.746.436-.004-.356 1.209-.705zm4.136-2.41l.003.36-.872.508.004.582c.086-.105.185-.19.295-.253.192-.11.359-.142.5-.09.142.05.212.191.215.418 0 .23-.07.46-.217.696a1.527 1.527 0 01-.534.537l-.01.006c-.274.158-.493.178-.658.064l.185-.4a.474.474 0 00.063.029.655.655 0 00.436-.09c.1-.06.19-.148.27-.26a.617.617 0 00.117-.367c0-.13-.044-.205-.13-.227-.084-.021-.195.008-.324.082a1.358 1.358 0 00-.373.33l-.15-.098-.007-1.137 1.187-.69zm1.776.027c.126.069.189.219.192.453 0 .233-.066.46-.2.681a1.432 1.432 0 01-.515.514c-.326.188-.555.152-.683-.113a1.408 1.408 0 01-.11-.594 2.8 2.8 0 01.064-.65 1.96 1.96 0 01.184-.494c.153-.274.34-.477.565-.607l.01-.005c.218-.127.418-.162.597-.11l-.172.398a.51.51 0 00-.385.048.943.943 0 00-.403.449c-.086.191-.128.41-.13.654.05-.094.119-.193.211-.303.093-.109.196-.198.309-.263.183-.106.339-.126.466-.058zm-.23 1.012a.678.678 0 00.113-.366c0-.122-.037-.202-.109-.248-.069-.042-.16-.03-.275.035l-.01.006a.868.868 0 00-.297.286.664.664 0 00-.118.366c0 .119.04.2.117.242.076.041.168.033.28-.032l.01-.006a.829.829 0 00.289-.283M35.534 71.202l.003.356-.862 2.521-.384.225.84-2.502-.733.426.003.319-.315.184-.007-.682zM37.036 71.4c.2.03.301.174.302.434.003.205-.068.417-.208.637a1.608 1.608 0 01-.558.53l-.012.008c-.223.129-.407.165-.548.112-.142-.057-.214-.184-.215-.387-.003-.262.096-.525.294-.786-.15-.053-.223-.172-.226-.351 0-.184.064-.372.195-.567.132-.198.298-.356.496-.47.199-.115.365-.154.497-.108.134.041.201.152.202.335 0 .181-.072.387-.219.613zm-.176.989c.09-.12.133-.241.133-.365 0-.127-.044-.196-.133-.214-.086-.017-.186.008-.296.071a.949.949 0 00-.293.274.591.591 0 00-.129.362c0 .126.046.195.137.21.091.014.188-.01.292-.07a1.04 1.04 0 00.289-.268m-.562-1.263a.542.542 0 00-.109.316c0 .1.037.165.11.19.077.025.163.01.264-.048.1-.06.188-.146.261-.258a.582.582 0 00.11-.319c-.003-.098-.04-.16-.113-.185-.076-.026-.162-.008-.264.05a.775.775 0 00-.259.254m5.177-2.917c.072.152.109.35.112.594 0 .245-.02.46-.065.65a1.853 1.853 0 01-.183.493c-.152.275-.34.477-.564.61-.225.129-.428.167-.61.113l.172-.398a.4.4 0 00.184.016.48.48 0 00.203-.063.966.966 0 00.403-.45c.086-.192.128-.41.128-.653a1.706 1.706 0 01-.211.303 1.19 1.19 0 01-.306.261c-.186.107-.341.128-.467.059-.125-.067-.19-.218-.191-.454a1.28 1.28 0 01.199-.68c.133-.222.303-.392.508-.51l.007-.005c.327-.188.553-.15.68.114zm-.396.81a.662.662 0 00.118-.364c-.002-.12-.041-.202-.117-.245-.076-.04-.17-.031-.28.033l-.01.005a.79.79 0 00-.284.283.68.68 0 00-.111.365c.002.12.037.204.104.248.067.043.157.033.271-.032l.01-.006a.87.87 0 00.3-.287m2.323-2.122c.141.14.213.396.216.77.001.374-.065.71-.204 1.014a1.512 1.512 0 01-.63.701l-.009.005c-.278.16-.486.172-.626.031-.14-.142-.213-.398-.216-.769a2.39 2.39 0 01.205-1.017c.137-.303.348-.536.629-.7.282-.164.494-.177.635-.035zm-.242 1.682c.078-.209.116-.444.115-.712-.003-.267-.044-.456-.125-.571-.08-.118-.207-.124-.38-.024a.897.897 0 00-.381.469 1.94 1.94 0 00-.12.711c.004.264.045.454.128.568.08.114.208.123.377.025a.874.874 0 00.387-.467M44.621 65.911l.016 2.367-.33.191-.015-2.011-.418.245-.003-.356zM45.78 65.177c.172-.1.324-.125.456-.077.13.05.197.182.197.4 0 .122-.025.253-.08.397a4.719 4.719 0 01-.301.604l-.48.848.934-.545.003.383-1.41.822-.004-.338.622-1.086c.14-.245.236-.43.296-.557a.818.818 0 00.086-.332c0-.097-.033-.157-.096-.188-.062-.031-.142-.017-.24.039-.17.098-.31.28-.42.543l-.283-.02c.09-.209.19-.385.3-.528.107-.142.247-.265.42-.365zm4.076-2.31v.312l-.494.93c.19-.104.337-.122.445-.055.106.07.16.193.161.374a1.24 1.24 0 01-.21.695 1.62 1.62 0 01-.55.528.957.957 0 01-.66.136l.146-.407c.17.035.348 0 .533-.107a.964.964 0 00.298-.271.595.595 0 00.113-.346c0-.12-.044-.191-.132-.212-.084-.021-.2.009-.347.093l-.014.009c-.075.043-.151.1-.22.164l-.003-.304.475-.917-.749.437v-.357l1.208-.703zM51.377 61.981l-.739 1.844.495-.288-.004-.435.33-.19.004.432.248-.143.003.361-.248.145.004.597-.33.19-.006-.595-.885.516-.003-.351.749-1.863zM53.252 60.883l.003.364-.872.508.004.581a1.09 1.09 0 01.295-.252l.01-.006c.188-.109.353-.137.491-.087.141.052.21.194.213.42.001.228-.07.46-.214.695a1.544 1.544 0 01-.536.538l-.01.006c-.274.158-.493.178-.658.065l.185-.4a.47.47 0 00.063.028.634.634 0 00.438-.094.866.866 0 00.267-.256.623.623 0 00.12-.367c0-.132-.044-.206-.13-.228-.084-.021-.187.004-.313.076l-.013.008a1.357 1.357 0 00-.373.33l-.15-.098-.007-1.138 1.187-.693zm1.776.03c.126.067.189.219.192.453 0 .233-.066.46-.2.681a1.424 1.424 0 01-.508.51l-.007.004c-.326.189-.553.15-.68-.114-.074-.15-.112-.35-.112-.593-.001-.245.02-.461.065-.651.042-.189.105-.354.182-.493.153-.274.34-.477.564-.609.223-.128.426-.166.61-.113l-.174.398a.37.37 0 00-.182-.016.48.48 0 00-.203.062.972.972 0 00-.403.449 1.625 1.625 0 00-.13.656c.05-.093.12-.194.213-.304.09-.107.194-.197.307-.262.185-.107.34-.127.466-.058zm-.228 1.009a.657.657 0 00.111-.363c0-.121-.035-.205-.106-.249-.07-.042-.164-.03-.278.036l-.01.006a.868.868 0 00-.297.286.663.663 0 00-.118.364c0 .121.042.202.117.245.078.042.175.028.292-.04a.83.83 0 00.289-.285M22.654 82.785c.105-.06.21-.103.316-.124a.514.514 0 01.272.01l-.15.332a.329.329 0 00-.2-.01.847.847 0 00-.248.096.656.656 0 00-.2.174.334.334 0 00-.077.217c0 .08.027.122.08.132.05.012.162-.008.333-.06.172-.053.3-.061.387-.028.086.038.13.138.131.303a.89.89 0 01-.16.501 1.255 1.255 0 01-.439.41c-.256.147-.482.175-.683.088l.173-.343a.565.565 0 00.517-.05l.007-.005a.662.662 0 00.215-.191.382.382 0 00.078-.223c0-.074-.024-.116-.075-.129a.594.594 0 00-.258.04 1.943 1.943 0 01-.28.07.346.346 0 01-.169-.015c-.1-.026-.148-.129-.149-.306a.843.843 0 01.163-.502c.112-.162.25-.289.416-.387zm2.367-1.332l.007 1.067a1.46 1.46 0 01-.697 1.266c-.206.119-.375.144-.507.07-.132-.07-.2-.243-.202-.517l-.008-1.067.28-.163.007 1.055c.003.173.042.288.119.346.074.056.174.05.3-.023l.009-.005a.787.787 0 00.307-.332c.075-.146.113-.305.11-.479l-.006-1.055.281-.163zm1.415.392l.437.44-.354.208-.402-.41-.368.215.003.64-.28.163-.013-1.903.618-.36.018-.01c.244-.14.42-.193.528-.16.11.035.165.16.166.376.003.313-.117.58-.353.801zm-.018-.314a.588.588 0 00.085-.322c-.003-.125-.031-.192-.09-.205-.059-.012-.164.028-.315.114l-.356.209.004.68.35-.204c.158-.094.266-.184.322-.272M28.356 79.512l.001.302-.886.517.003.502.797-.463.003.286-.797.462.004.509.914-.533.003.302-1.196.697-.012-1.904zM30.267 78.396l.014 1.903-.304.178-.951-.841.01 1.389-.282.165-.011-1.904.28-.164.973.861-.008-1.423zM31.528 77.664l.743 1.477-.298.174-.169-.336-.831.485-.163.528-.3.175.718-2.33.3-.173zm-.442 1.436l.602-.352-.307-.61-.295.962M34.364 76.01l.014 1.903-.282.165-.008-1.488-.572 1.66-.156.09-.586-.985.008 1.489-.279.161-.012-1.904.436-.252.51.903.493-1.489zM35.992 75.063l.001.303-.886.516.003.505.797-.465.001.286-.795.464.004.509.914-.533.001.303-1.194.694-.014-1.903z"/><path fill="#FFC950" d="m27.749 65.147.003.522c.003.297-.205.66-.473.817l-1.305.76-.007-.927 1.782-1.038v-.134zm-1.956 1.275.005.926.011-.007-2.926 1.704-.007-.925 1.388-.808a.9.9 0 0 0 .136-.079l1.393-.81zM24.947 66.712c.368-.478.628-1.12.67-1.72l2.122-1.238.01 1.327-2.802 1.631zm.677-1.928c-.014-.631-.291-1.024-.694-1.079l2.798-1.629v-.063l.01 1.539-2.114 1.232z"/><path fill="#FFC950" d="M25.44 64.918c0 .061-.002.118-.01.18-.057.78-.526 1.636-1.097 1.969-.572.33-1.048.027-1.117-.678a1.519 1.519 0 0 1-.008-.17v-.028c.003-.82.496-1.766 1.104-2.12.61-.352 1.11.016 1.125.823l.002.024zm-1.214-1.005-1.372.8-.007-.924 2.915-1.697.007.924-1.37.798c-.029.014-.057.028-.088.045l-.085.054z"/><path fill="#FFC950" d="m20.92 69.259 1.782-1.036.006.923-1.31.763c-.267.154-.476.036-.48-.26l-.027-4.179c-.001-.298.207-.66.473-.816l1.307-.762.007.925-1.782 1.038v.2l2.8-1.63c-.4.52-.67 1.234-.675 1.878l-2.108 1.226v.2l2.117-1.233c.05.548.315.887.687.934l-2.8 1.63.003.199z"/><path fill="#474756" d="M25.616 64.991c-.04.6-.3 1.243-.669 1.721l2.801-1.631v.066l.001.134-1.782 1.038.007.926-.165.096-.016-.919-1.393.811a1.074 1.074 0 0 1-.136.079l-1.388.808.007.925-.175.103-.006-.925-1.782 1.036-.003-.2 2.8-1.63c-.372-.046-.637-.385-.687-.933l-2.117 1.234v-.2l2.108-1.227c.004-.644.274-1.358.675-1.878l-2.8 1.63v-.2l1.782-1.038-.007-.925.176-.104.007.925 1.372-.8.085-.054c.03-.017.06-.031.088-.045l1.37-.798-.007-.924.177-.105.006.927 1.782-1.038v.2l-2.797 1.63c.403.054.68.447.694 1.078l2.114-1.232.007.199-2.129 1.24zM24.33 67.07c.575-.335 1.044-1.19 1.1-1.97.009-.063.01-.12.01-.18l-.002-.025c-.014-.807-.515-1.175-1.122-.824-.611.355-1.104 1.302-1.108 2.12v.029c0 .058.003.117.01.17.068.705.544 1.008 1.112.68"/><path fill="#FFC950" d="m27.727 61.876-1.782 1.038-.006-.925 1.305-.76c.268-.155.48-.037.48.261l.003.386z"/><path fill="#FFF" d="m42.056 52.828.014-.008a1.06 1.06 0 0 1 .45-.153.46.46 0 0 1 .338.1l-.287.464c-.129-.099-.289-.095-.482.014l-.013.008a1.147 1.147 0 0 0-.307.26 1.4 1.4 0 0 0-.22.378 1.173 1.173 0 0 0-.08.41.581.581 0 0 0 .076.325c.051.078.122.12.216.13a.582.582 0 0 0 .326-.096c.187-.108.347-.284.476-.529l.283.143a2.044 2.044 0 0 1-.78.835l-.016.009c-.194.11-.371.16-.53.152a.467.467 0 0 1-.37-.2c-.09-.123-.132-.294-.13-.514 0-.22.049-.444.14-.669.092-.226.217-.431.375-.618.156-.184.33-.33.521-.44zm1.969-.586.017-.01-.003.457c-.049.023-.081.04-.097.049l-.01.006a.742.742 0 0 0-.278.274.81.81 0 0 0-.108.415l-.006.806-.428.243.014-1.707.41-.232-.004.226c.052-.112.121-.212.21-.305.083-.086.176-.16.283-.222zm1.698-.075-.01.136-1.117.631c.02.093.068.15.143.17.073.018.166-.003.278-.067a.981.981 0 0 0 .204-.153c.061-.061.116-.135.168-.221l.226.156a1.542 1.542 0 0 1-.611.622c-.167.093-.315.14-.443.136a.355.355 0 0 1-.292-.146c-.07-.093-.103-.225-.101-.394 0-.168.036-.338.106-.512.069-.17.164-.33.285-.472.12-.142.253-.254.403-.34a.728.728 0 0 1 .392-.112.335.335 0 0 1 .272.153c.066.097.098.235.097.413zm-1.13.482.728-.411c-.014-.099-.053-.163-.118-.19-.067-.027-.146-.014-.242.038a.737.737 0 0 0-.245.233.78.78 0 0 0-.123.33m2.502-2.756.428-.242-.018 2.353-.407.23.001-.197a1.141 1.141 0 0 1-.454.477l-.01.006a.692.692 0 0 1-.377.106.322.322 0 0 1-.26-.16c-.063-.097-.094-.233-.095-.408a1.576 1.576 0 0 1 .367-.975c.11-.13.231-.236.366-.313l.013-.008c.188-.106.335-.118.44-.042l.006-.827zm-.112 1.899a.815.815 0 0 0 .11-.405c0-.142-.035-.238-.106-.283-.07-.047-.159-.037-.268.024l-.009.004a.717.717 0 0 0-.262.276.815.815 0 0 0-.11.404c0 .145.034.24.103.285.072.046.163.037.272-.026l.009-.005a.723.723 0 0 0 .26-.274m1.343-2.66c.05.023.074.074.072.15a.48.48 0 0 1-.075.246.517.517 0 0 1-.192.188c-.079.045-.144.055-.193.03-.048-.026-.073-.077-.071-.155 0-.077.026-.158.074-.237a.518.518 0 0 1 .193-.188c.079-.046.144-.058.192-.034zM47.9 51.782l.014-1.706.428-.242-.014 1.706zM48.795 49.204l.427-.243-.002.415.366-.205-.003.38-.366.207-.005.693c-.001.073.015.12.045.142.033.02.078.014.136-.02a.516.516 0 0 0 .174-.161l.113.285a1.02 1.02 0 0 1-.156.169 1.342 1.342 0 0 1-.194.135c-.175.099-.31.124-.406.074-.096-.05-.143-.174-.141-.374l.006-.703-.227.129v-.379l.23-.13.003-.414zm2.858-1.786.014-.008c.166-.093.316-.145.45-.153s.246.027.335.1l-.287.468c-.128-.101-.288-.098-.48.011a1.096 1.096 0 0 0-.318.27 1.288 1.288 0 0 0-.303.788c0 .136.025.245.076.323a.276.276 0 0 0 .215.13.563.563 0 0 0 .327-.095c.189-.11.348-.286.476-.53l.284.142a2.056 2.056 0 0 1-.795.844c-.197.111-.373.162-.532.153a.473.473 0 0 1-.37-.2c-.088-.124-.133-.294-.131-.514.003-.221.05-.444.14-.669.093-.226.218-.431.378-.62a1.97 1.97 0 0 1 .52-.44zm2.179-.516c.12.057.181.213.178.467l-.008.974-.4.224.002-.213a.964.964 0 0 1-.451.491.625.625 0 0 1-.294.1.227.227 0 0 1-.191-.074.366.366 0 0 1-.064-.229.807.807 0 0 1 .16-.463c.1-.144.254-.278.463-.398l.016-.01.339-.19c.002-.109-.027-.174-.082-.2-.057-.028-.142-.01-.256.056l-.017.01a1.143 1.143 0 0 0-.214.163c-.077.07-.141.147-.194.224l-.15-.258c.08-.112.177-.217.289-.316.113-.098.229-.181.348-.25.227-.127.404-.163.526-.108zm-.253 1.142.002-.176-.294.168-.01.005c-.17.098-.254.212-.255.344 0 .063.02.1.063.112.043.013.101-.002.176-.043a.72.72 0 0 0 .197-.17.653.653 0 0 0 .121-.24m1.723-2.159.017-.01-.003.457a1.74 1.74 0 0 0-.095.048l-.01.006a.745.745 0 0 0-.28.275.792.792 0 0 0-.106.416l-.008.805-.428.243.014-1.707.41-.231-.004.226c.052-.112.123-.214.21-.306.083-.086.177-.16.283-.222zm1.34-1.373.427-.242-.018 2.353-.407.23.001-.196a1.141 1.141 0 0 1-.454.476l-.01.006a.692.692 0 0 1-.377.106.33.33 0 0 1-.262-.16c-.061-.097-.092-.233-.093-.408a1.576 1.576 0 0 1 .367-.975 1.374 1.374 0 0 1 .379-.32c.188-.107.335-.12.44-.043l.006-.827zm-.113 1.9a.815.815 0 0 0 .11-.405c0-.145-.035-.239-.106-.284-.07-.047-.159-.037-.268.024l-.009.005a.718.718 0 0 0-.262.275.815.815 0 0 0-.11.405c0 .144.034.238.103.285.072.045.163.036.272-.027l.009-.004a.723.723 0 0 0 .26-.275"/><path fill="#DCE8F1" d="M54.297 52.93c1.339-.772 2.425-.152 2.43 1.385.004 1.536-1.076 3.407-2.414 4.18l-3.562 2.057c-1.337.771-2.424.15-2.428-1.385-.005-1.537 1.075-3.408 2.412-4.18l3.562-2.057z"/><path fill="#C5D4DD" d="M49.203 58.088zm3.107-2.274c.015-.008.025-.007.03.008l.012.02.01.026-.025.032c-.01.02-.012.021-.03.033-.022.015-.041.037-.062.049a.085.085 0 0 1-.015.007l-.028.017-.023.003v-.026l-.014-.006c0-.014.034-.025.022-.038l-.05.032v-.01c-.002-.018.016-.034.03-.042a.073.073 0 0 1 .016-.007l.029-.007.016-.015.035-.02c.021-.013.024-.039.042-.052a.085.085 0 0 1 .005-.004zm2.255-1.79c.03-.018.037-.006.056-.003.01.003.02 0 .03-.005l.03-.023c.01-.009.025-.022.038-.029a.041.041 0 0 1 .013-.005c.02-.005.017.02.03.019.005.03-.033.078-.053.108a.61.61 0 0 1-.086.091c-.013.012-.086.077-.056.082.025-.044.065-.075.097-.104.01-.01.032-.032.049-.042.005-.003.01-.005.014-.004.015.002.008.025.024.015a.082.082 0 0 0 .012-.009c.026-.023.039-.044.065-.06a.118.118 0 0 1 .014-.006c.004.02-.02.046.01.034.018-.007.038-.022.054-.028l.04-.023c.016-.02-.002-.013.005-.028a.06.06 0 0 1 .027-.028c.014-.008.03-.013.04-.017.041-.016.068-.019.068.03-.002.02-.003.045.017.034.027-.02.013-.04.031-.057l.024-.004.033-.019.044-.025.03-.025.025-.021.01-.03a.255.255 0 0 1 .089-.056.187.187 0 0 0 .056-.02l.048-.021.004.021.021-.01.01.012c.008.002.014 0 .02-.003a.14.14 0 0 0 .023-.019.22.22 0 0 1 .046-.036c.024-.014.047-.02.076-.031v.022c-.012.036.017.025.046.008.02-.011.04-.025.048-.03.01-.006.024-.012.036-.02a.159.159 0 0 0 .018-.01c.006-.005.018-.019.027-.024.007-.004.013-.004.015.009-.02.023-.005.025.01.016a.043.043 0 0 0 .012-.01c.025-.029.003-.011.003-.029-.002-.022.02-.042.046-.058a.337.337 0 0 1 .083-.032.386.386 0 0 1 .142-.002c.01 0 .036.016.046.01l.067-.016c.036.003.012.028-.016.053v.035c-.017.01-.02 0-.032.003l-.025.011-.02-.004-.024.012-.014.01h-.011l-.018-.014c-.021.014-.017.053-.018.068-.023.014-.047.018-.056.002-.001.02.004.031.016.036l.016.003.003.016c.006.011.02.01 0 .034l-.036.014c-.019.01-.021.015-.03.029a.408.408 0 0 1-.057.07c-.023.02-.021.032-.034.059-.004.01-.008.015-.011.017-.009.005-.015-.01-.032-.008-.028.041-.075.056-.103.096-.015.023-.01.034-.008.054l-.002.051c-.031.018-.011.048-.021.075l-.032.058a.078.078 0 0 1-.026.022c-.009.004-.018.01-.025.02-.017.028-.015.062-.03.092.003-.028.009-.064.003-.086-.004-.021-.025-.03-.03-.05-.01-.035.005-.052.027-.087.017-.026.026-.05.047-.072l.043-.04.021-.043c.011-.021.037-.053.039-.076 0-.016-.002-.02-.007-.017a.116.116 0 0 0-.024.037c-.011.025-.02.049-.04.06l-.008-.03c-.017.018-.021.024-.04.034l-.041.025c-.032.03-.016.083-.046.11-.024.017-.02-.015-.037-.006-.014.007-.028.033-.04.04a.08.08 0 0 1-.045.012c-.015.001-.029 0-.043.009a.06.06 0 0 0-.013.01c-.016.018-.029.046-.048.063-.017.015-.034.02-.05.037-.027.027-.03.067-.046.102a.142.142 0 0 1-.03.046c-.01.01-.03.023-.028.042.003.019.03-.001.039.003.01.004.004.022.018.014.018-.01.026-.036.042-.045l.037.018c.002.017-.007.025-.015.04-.014.028-.026.048-.026.073.001.041-.02.082-.035.127-.008.028-.016.072-.031.096-.017.025-.042.04-.063.055a.349.349 0 0 0-.073.092c-.011.022-.011.048-.028.069a.027.027 0 0 1-.011.01c-.026.062.024.06.025.087 0 .018-.01.04-.025.049a.019.019 0 0 1-.014.002c-.02-.006-.005-.038-.003-.059.006-.046-.022.002-.039-.016-.012-.013.004-.042-.01-.034a.108.108 0 0 0-.016.013c-.008.007-.014.017-.022.022a.017.017 0 0 1-.012.002l-.01-.031c-.017.017-.016.037-.031.057-.011.016-.053.032-.046.055h.03l.027-.01c.026-.005.001.013-.017.033-.041.043-.015.042.012.045.022.001.028.012.029.04a.31.31 0 0 1-.03.152.618.618 0 0 1-.086.144c-.015.018-.033.035-.05.051-.03.03-.07.063-.1.092-.02.02-.056.036-.061.073-.007.047.033.04.052.057.018.013.03.09.005.132a.05.05 0 0 1-.02.02l-.02.01-.026.05-.013-.037-.032.012c-.015.001-.043-.031-.062-.02-.005.003-.01.01-.013.02-.01.033.006.085.016.103.015.031.051-.014.067.005.01.014-.004.048.012.061.02.017.018.032.006.039-.009.005-.024.005-.04-.004-.02-.01-.034-.032-.05-.048a.119.119 0 0 1-.034-.056c-.01-.049.009-.146-.033-.164 0 .017-.006.042-.022.052-.035.007-.01-.025-.007-.044.005-.029-.021-.03-.032-.043-.01-.013-.025-.055-.049-.045l-.068.065-.015.022c-.016.023-.016.02-.03.036a.15.15 0 0 0-.035.06c-.01.027-.021.062-.043.078l-.03.01c-.01.044.009.09-.009.135-.011.024-.018.032-.025.06l-.012.045c-.022.018-.024-.016-.032-.024l-.031-.012-.007-.03c-.013-.035-.03-.064-.034-.106-.003-.035.003-.075 0-.11a.046.046 0 0 0-.013.005c-.024.014-.01.044-.03.056l-.036-.044c-.013-.012-.028-.032-.048-.035a.059.059 0 0 0-.031.01c-.027.016-.06.045-.083.059l-.03.017c-.017.01-.034.019-.046.016-.018-.007-.018-.023-.032-.015a.099.099 0 0 0-.018.016.142.142 0 0 1-.026.022c-.01.005-.018.006-.03 0-.022-.007-.036-.044-.064-.028a.064.064 0 0 0-.013.01c0 .056.032.125.079.099a.126.126 0 0 0 .041-.047c.014-.024.02-.036.026-.04.006-.002.01.005.02.02.014.02.039-.004.054.008.019.012-.004.049-.018.076l-.02.04c-.009.022-.011.022-.02.036l-.022.045a.044.044 0 0 1-.013.015c-.046.036-.035.065-.063.082a.064.064 0 0 1-.013.005c-.01.004-.016.001-.024.006l-.033.053-.032.02-.03.045c-.035.005-.038-.043-.057-.067-.01-.011-.013-.029-.024-.039-.01-.008-.021-.01-.03-.021-.008-.013-.008-.035-.016-.046-.009-.011-.021-.015-.028-.027l-.024-.036-.015-.015-.018.005c-.022-.001-.033-.026-.046-.045.012.02.01.051.01.081.022.015.03.052.051.07.02.015.034.008.03.047-.003.036 0 .037.025.04l.025.016.007.033.017.022c.01.011.033 0 .043.01.012.01-.006.037.003.052a.432.432 0 0 0 .086-.063c.015-.014.046-.05.067-.063.006-.003.011-.005.015-.003-.026.09-.026.18-.09.267l-.03.044-.028.056c-.028.044-.068.07-.083.123-.013.037-.007.07-.003.1.005.04.028.053.03.095.001.032.01.073-.01.111-.01.023-.032.036-.045.056-.013.016-.02.03-.034.048-.029.032-.027.036-.022.07.006.034.027.073-.018.111-.018.017-.029.017-.037.047l-.004.05a1.31 1.31 0 0 1-.039.103c-.016.038-.047.074-.072.104a.212.212 0 0 1-.06.048c-.02.012-.04.021-.058.031-.032.019-.054.024-.065-.005-.007-.015-.005-.04-.01-.053l-.02-.028c-.03-.047-.023-.137-.057-.176-.016-.02-.031-.033-.03-.07.001-.024.011-.073.033-.089.006-.032-.007-.053-.01-.077-.003-.021.002-.047 0-.07-.006-.045-.049-.062-.073-.088-.022-.026-.002-.053.003-.096.004-.038-.007-.037-.023-.027l-.012.007-.014.009a.046.046 0 0 1-.014.005c-.032.011-.049-.034-.08-.015-.027.017-.05.06-.071.079l-.034.014-.03.036c-.011.01-.025.019-.036.025l-.024.014c-.012.01-.02.02-.03.025a.036.036 0 0 1-.019.005.087.087 0 0 1-.075-.038c-.008-.015-.013-.027-.03-.033l-.035-.011c-.024-.018-.022-.062-.022-.1 0-.02-.025-.008-.033-.017-.01-.012-.004-.05-.003-.067.004-.033 0-.066.03-.093a.088.088 0 0 1 .021-.01c.018-.011.025-.016.03-.023.017-.023.009-.037.009-.056.02-.04.015-.094.048-.13.027-.028.045-.024.054-.068.007-.033.002-.056.021-.09.01-.018.03-.036.036-.055.024-.08-.08-.008-.077-.044l.016-.025v-.032c-.002-.026-.005-.051-.002-.08a1.712 1.712 0 0 1 .132-.06c.011-.006.021-.015.024-.029l-.014-.033c-.006-.027 0-.04-.023-.05-.017-.007-.039-.007-.032-.042.011-.007.018-.008.026-.01.006-.002.013-.004.02-.008.033-.021.017-.02.028-.04.018-.033.06-.04.076-.09.014-.045.043-.056.067-.09l.024-.044.031-.032c.022-.038-.002-.07.012-.109.014-.04.05-.056.036-.093a.206.206 0 0 0-.042.03c-.01.01-.022.019-.032.025-.016.009-.03.01-.038-.004-.023-.032.016-.094.023-.142a.215.215 0 0 0 .072-.055c.014-.021.008-.039.026-.064.01-.013.018-.01.025-.03.009-.023-.001-.041.003-.061.005-.024.015-.03.028-.05.023-.036.018-.053.054-.077.029-.02.029-.023.052-.056.021-.028.034-.032.057-.05l.028-.022.017-.027a.072.072 0 0 1 .02-.017l.022-.01a.075.075 0 0 0 .031-.017c.013-.01.023-.026.036-.033a.03.03 0 0 1 .013-.005l.03.017c.023.009.054-.023.081-.026.017-.002.055.002.063.018.01.02-.008.062-.03.083a.079.079 0 0 1-.017.013l-.03.012a.148.148 0 0 0-.027.012c-.014.026.003.039.013.045.01.006.025.003.04-.005a.143.143 0 0 0 .03-.024c.03-.032.04-.086.07-.116.024-.016.04-.017.053-.025a.145.145 0 0 0 .043-.047c.014-.02.02-.042.04-.057.029-.017.053-.022.071-.03a.198.198 0 0 0 .085-.096c.018-.033.008-.03.03-.043a.118.118 0 0 1 .022-.01.066.066 0 0 0 .016-.006.088.088 0 0 0 .02-.018l.007-.047.026-.016c.018-.01.033-.017.05-.012.02.006.031.021.054.008a.085.085 0 0 0 .015-.011c.001-.026-.011-.04-.014-.062-.004-.03.003-.034.022-.06.022-.03.026-.055.04-.083.008-.015.014-.023.02-.026.012-.007.02.005.023.025.003.03-.01.06-.015.092-.004.034.017.043.023.07.01.053-.018.098-.062.14a.125.125 0 0 0 .079-.043c.032-.037.068-.124.043-.146-.016-.012-.019-.009-.026-.03l-.008-.013c-.011-.018-.013-.023-.006-.048.006-.024.018-.046.015-.066.028-.017.03.06.056.055.006-.02-.008-.05.008-.067a.02.02 0 0 0 .017-.001.06.06 0 0 0 .014-.013l.015-.014c.023-.008.02.02.044.006.015-.043-.086-.026-.005-.081.03-.02.061-.043.092-.061.016-.01.03-.008.047-.017.015-.05-.035-.014-.03-.054.033-.027.055-.062.087-.088.01-.008.022-.015.033-.021a.13.13 0 0 0 .043-.03c.023-.022.022-.037.044-.05.014-.007.023-.01.032-.016a.142.142 0 0 0 .016-.01c.037-.03.053-.08.09-.104zm-2.861 1.442c.046-.026.09-.043.136-.068l.064-.04c.015-.007.014-.007.024 0 .008.007.001.01.015.008.007-.001.017-.007.026-.012a.22.22 0 0 1 .015-.01c.009-.005.017-.008.023-.004-.022.029-.058.053-.086.075-.018.014-.12.07-.128.103a.513.513 0 0 0 .015-.008c.03-.017.058-.037.086-.054l.055-.028-.002.02c-.002.021.006.026.022.017a.085.085 0 0 0 .008-.005c.039-.03.068-.08.11-.107.029-.02.057-.044.087-.061a.2.2 0 0 1 .007-.004l.046-.017c.01.015-.045.062-.059.077-.019.022-.031.048-.05.07-.01.014-.027.014-.037.04l-.004.037-.011.022c-.013.025-.02.049-.01.067.009.015.034 0 .045.007.026.017-.014.077-.015.11-.003.037-.007.047-.037.074-.016.015-.024.02-.021.041.003.02.017.022.017.045.001.016-.002.036 0 .054.001.012.01.018-.006.034l-.023.015-.027.031a.308.308 0 0 1-.05.05c-.015.013-.027.033-.04.052-.025.033-.065.036-.085.079l-.016.051a.103.103 0 0 1-.04.046l-.018.01c-.006.003-.01.007-.02.023l-.024.03-.03.023c-.017.021-.006.045-.015.067-.007.015-.021.023-.024.04-.005.03.018.04.002.08a.045.045 0 0 1-.023.026l-.01.005-.024.013-.017-.004-.022.018a.126.126 0 0 1-.006.003c-.018.011-.023.006-.039-.004a.131.131 0 0 0-.04-.023c-.013-.004-.028-.008-.034-.023-.01-.023-.007-.06-.012-.087l-.01-.034c-.009-.035.014-.083.006-.12-.043.021-.04-.073-.047-.103-.009-.044-.032-.08-.069-.09a.068.068 0 0 0-.047.008.1.1 0 0 0-.015.01c-.021.02-.034.026-.056.04-.014.01-.03.028-.046.037a.038.038 0 0 1-.014.005l-.018-.006-.022.007-.045.01c-.013-.021.046-.05.052-.07-.014.006-.08.039-.07 0l.015-.022.01-.018a.059.059 0 0 1 .039-.029c.01-.005.022-.005.033-.012a.043.043 0 0 0 .012-.009l.013-.025.021-.014c.017-.013.036-.051.03-.07-.009.005-.03.023-.046.032-.01.007-.02.01-.024.004 0-.026.013-.04.03-.051a.24.24 0 0 1 .034-.015l.032-.016a.088.088 0 0 0 .033-.03c.02-.032-.003-.033-.021-.024-.017.008-.033.016-.028-.015.028-.02.061-.046.093-.065a.173.173 0 0 1 .045-.019c.024-.006.038.023.063.008.029-.018.017-.042.035-.059l.018-.005a.271.271 0 0 0 .035-.017.098.098 0 0 0 .03-.023c.004-.031-.033.004-.03-.027a.327.327 0 0 1 .08-.068c.035-.022.069-.051.103-.077a.457.457 0 0 1 .048-.032z"/><path fill="#C5D4DD" d="M51.725 58.122c.034-.013.055.01.04.053-.013.045-.064.099-.059.139-.02.038-.012.055-.002.08.005.012.004.034.004.053l-.004.042-.025.037-.008.027-.016.031a.213.213 0 0 0-.062.026.213.213 0 0 0-.064.054c-.032.044-.025.09-.039.137-.016.055-.05.112-.074.167-.011.022-.027.077-.047.09-.011.007-.016.005-.021.002-.005-.004-.01-.006-.017-.002 0 .045.006.06-.01.112-.017.048-.034.07-.056.082-.015.009-.032.013-.052.018l-.001.04c-.005.017-.009.022-.012.024-.033.01-.036.015-.042.026l-.008.046c-.006.051.003.069-.024.12-.005.01-.018.005-.02.026 0 .02.025.004.03.015.014.042-.06.1-.055.154.008.086.065.05.13.018-.003.049-.048.1-.09.125a.084.084 0 0 1-.048.013c-.025-.001-.05-.033-.068-.048-.027-.02-.055-.017-.06-.06a.222.222 0 0 1 .01-.097c.007-.02.02-.03.023-.053l-.003-.05c-.002-.037.01-.072.016-.113.004-.038-.01-.055-.007-.09l.01-.053c.01-.018.023-.032.026-.053.004-.03-.002-.055.002-.084.006-.037.017-.072.02-.108 0-.018 0-.037.003-.056l.01-.044a.478.478 0 0 0-.006-.12c-.003-.02-.02-.011-.035-.009-.014 0-.023-.005-.034-.008-.019-.006-.046-.001-.05-.024-.005-.025-.005-.038-.019-.052-.011-.014-.02-.029-.03-.045l-.012-.036h-.033v-.05l.008-.033-.014-.016c-.006-.013-.006-.047.01-.058l.04-.017.001-.035.012-.03.013-.016-.006-.043c0-.023.004-.06-.012-.067l-.019.004-.01.022c-.005.016-.01.023-.015.026-.005.003-.011.002-.019 0l-.03.007-.028-.011-.034-.003-.02-.015-.025-.006-.025-.01c-.02 0-.036-.01-.055-.014a.086.086 0 0 0-.078.021.168.168 0 0 1-.027.02.108.108 0 0 1-.027.012l-.031.011-.027-.006-.023-.008-.017.003-.015-.022.002-.036c-.002-.008-.006-.009-.01-.006-.006.004-.014.013-.024.02-.036.02-.024-.034-.05-.035-.017 0-.015.012-.019-.011a.116.116 0 0 0-.015-.037c-.018-.025-.042-.06-.07-.064-.001.04.046.056.021.11-.033-.01-.056-.021-.07-.06l-.012-.04c-.003-.004-.007-.006-.01-.004-.004.002-.007.007-.007.016-.038.022-.04.002-.05-.027-.011-.038-.043-.05-.066-.074-.02-.021-.025-.05-.025-.09 0-.031-.009-.052-.003-.082.008-.043-.03-.045-.017-.091l.032-.02c.001-.038-.047-.005-.066-.015-.015-.01-.026-.025-.046-.031l-.02-.013-.023-.013-.003-.036-.034.022v-.027l-.032.03c-.006-.02-.006-.063-.017-.075-.014-.016-.043.02-.062.01-.018-.01-.026-.017-.051-.012a.24.24 0 0 0-.08.026.54.54 0 0 0-.114.077c-.047.04-.08.1-.117.155a.417.417 0 0 0-.046.088l-.02.05c-.013.018-.027.025-.036.043.01-.028.008-.05.018-.077.014-.032.036-.058.032-.09-.003-.02-.017-.034-.036-.023l-.028.024c-.017.006-.01-.002-.018-.005-.02-.008-.06.015-.067-.018-.007-.031.011-.073.039-.094.018-.014.043-.025.051-.052l-.011-.037-.032.03a.195.195 0 0 1-.056.033c-.026.012-.062 0-.028-.044a.229.229 0 0 1 .05-.045l.021-.012.01.012.011-.001c.013-.007-.013-.043-.022-.047-.02-.013-.064.022-.06-.02a.053.053 0 0 0 .019-.007.121.121 0 0 0 .048-.067l.019-.032c.012-.012.07-.036.067-.052l.004-.02.039-.018c0-.016-.002-.023.013-.035a.062.062 0 0 1 .056-.004c.011.005.016.02.03.016a.04.04 0 0 0 .013-.005c.016-.009.032-.029.048-.04a.092.092 0 0 1 .012-.01c.026-.014.046-.007.071-.013a.044.044 0 0 0 .013-.005c.012-.007.023-.02.037-.029a.119.119 0 0 1 .053-.013c.018-.002.035-.004.05-.013a.08.08 0 0 0 .026-.024c.007.002.012.002.017 0 .008-.005.013-.018.02-.032.01-.024.02-.034.03-.04.01-.006.02-.008.033-.013a.126.126 0 0 0 .042-.032l.021-.025c.021-.013.045-.004.064-.01.061-.023.133-.082.186-.068.018.004.023.007.044-.005l.022-.013c.017-.006.036-.01.055-.021a.12.12 0 0 0 .025-.02l-.018-.02c-.01-.015-.011-.023-.032-.014l-.042.024c-.015.007-.027.006-.041.006-.02.002-.036.002-.048-.01-.014-.015-.015-.016-.04-.002l-.03.019a.144.144 0 0 1-.04.017c-.01.002-.016.002-.025.007-.023.019-.05.051-.07.063-.008.005-.015.006-.02 0 .018-.019.063-.057.063-.084 0-.033-.023-.042.006-.075.02-.024.04-.04.042-.067l.002-.05.031-.033.025-.038a.23.23 0 0 1 .049-.056c.022-.019.04-.026.06-.053a.616.616 0 0 1 .196-.187.356.356 0 0 0 .084-.086c.064-.081.136-.142.208-.206.09-.08.18-.158.27-.227.029-.023.058-.035.084-.056.018-.014.032-.032.052-.043.022-.013.041-.011.064-.02.018-.01.03-.022.043-.029l.029-.018c.023-.014.046-.022.028.016-.024.047-.072.085-.106.115-.032.028-.048.068-.075.102-.027.034-.062.059-.083.1-.016.032-.022.065-.033.099-.011.033-.035.061-.04.097-.003.024.007.04-.011.063a.27.27 0 0 1-.067.057l-.066.039a1.083 1.083 0 0 1-.034.018c-.008.004-.02.008-.032.015-.01.006-.02.014-.023.027v.027l-.024.038c-.035.04-.016.054-.007.079.01.023-.006.09.028.084.005.001.01 0 .015-.004.021-.013.03-.017.038-.01.01.01.014.054.036.041a.058.058 0 0 0 .015-.014c.025-.03.023-.082.012-.1-.014-.022-.045-.019-.066-.03-.016-.012-.026-.034-.018-.067a.132.132 0 0 1 .056-.072.045.045 0 0 1 .023-.007c-.01.036-.02.056-.012.087l.018.023c.016-.009.018-.021.017-.03 0-.018-.017-.03-.01-.05l.033-.04.04-.023.021.003-.004-.022.04-.021.024.01.035-.017.025.01.038.02c.022.002.043-.029.06-.015l.026.014c.012 0 .025-.01.03.006.006.02-.024.077.015.058l.036-.027c.018-.006.012.007.02.02l.03.01c.018-.004.025-.016.025.011a.058.058 0 0 1-.018.016c-.012.007-.026.01-.038.016l-.004.034c-.03.009-.046-.024-.078-.006-.006.038.026.034.044.047.01.008.012.017.008.037l-.005.014-.003.03c-.015.005-.05-.012-.068-.002-.017.026.06 0 .053.037-.025.015-.05.022-.06.019l-.022-.012-.017.005c-.015.001-.022-.012-.036-.014-.011-.001-.028.006-.044.015a.334.334 0 0 0-.029.019c-.007.005-.02.02-.029.026-.005.003-.01.003-.011-.003l.02-.038.029-.02.047-.028-.004-.034.03-.046-.013-.036-.033-.013h-.022c-.023.01-.035.02-.055.014-.015-.006-.016-.013-.037 0-.04.022-.053.062-.04.096.005.013.02.022.014.043l-.015.025-.024.02.003.037c.012.013.043-.001.054.013-.014.007-.026.007-.04.015a.087.087 0 0 0-.015.012l-.023.02-.023.002c-.006.003-.011.013-.016.02-.003.007-.007.014-.01.016l-.005-.034c-.02.016-.02.044-.033.064-.021.026-.045.025-.063.064l-.01.05c-.006.02-.017.035-.03.054-.014.019-.022.027-.025.05-.002.02.003.02.01.016a.103.103 0 0 1 .024-.012c.02-.004.012.018.02.033.002.007.004.009.008.007.005-.003.012-.013.022-.021.021-.013.038-.019.05-.015.017.005.028.018.05.011.013-.002.028-.01.042-.016.025-.01.036-.016.037.015.002.016.002.03.006.044.004.02.01.043.03.042l.031-.025c.013-.034-.014-.06-.01-.093.003-.018.006-.026.018-.036l.016-.01c.011-.008.017-.012.02-.03 0-.03-.018-.036-.032-.05-.018-.02-.005-.052-.003-.084.003-.019-.01-.066.002-.087l.037-.014.03-.017.037-.021.024.013.027.008.024.003c.007.013-.01.047.003.057.005.005.016.001.029-.006a.18.18 0 0 0 .042-.035c.02-.025.007-.07.028-.086l.015.015.011.022c.007.01.034.057.048.05l.018.02.028.006.008.02.025.004c.02-.003.036-.011.03.019l-.01.029c-.01.025-.016.025-.036.041-.02.016-.035.04-.052.062a.1.1 0 0 1-.03.025l-.027.014a.317.317 0 0 0-.11.12c.02-.021.029-.045.049-.056.021-.01.045-.022.048-.006.002.024-.018.03-.031.041-.004.028.013.006.018.014l-.001.018c.002.015.008.017.018.011l.03-.025.021-.015.025-.032c.006.045-.016.066-.048.084l-.035.027-.032.04v-.044l-.036.046-.032.027c-.017.014-.025.025-.02.044l.006.033-.02.01-.002.031a.04.04 0 0 1-.018.02.128.128 0 0 1-.02.008.073.073 0 0 0-.018.007l-.013.048-.018.006-.003.024c0 .012-.002.018-.005.02-.003.002-.007-.003-.009-.014l-.01-.013-.005.02c.003.017.008.03.008.047l-.001.047c-.003.018-.017.037-.028.053-.02.031-.07.08-.073.113-.003.019.007.034.011.048l.014.027.003.028c-.006.028-.008.032-.01.034-.01.005-.023-.013-.028-.015l-.014-.016-.002-.032-.013-.015a.025.025 0 0 0-.022.003l-.017.011-.026.006-.021.017-.017.01-.025.024-.01.016-.023.012-.018.003-.03.017-.026.013-.012.022-.009.02-.016.022c-.023.028-.013.043-.01.066 0 .017-.008.022-.014.038l-.005.037.005.035.019.012c.018 0 .005.02.008.032.001.01.008.01.015.005l.017.002.013-.009.012-.015.017-.008.014-.014.01-.003.02-.023.002-.017.01-.02v-.02c.001-.013.014-.022.025-.028l.012-.007.025-.013.007.014-.015.028.005.032c-.001.016-.008.01-.016.027l-.006.022c-.01.033-.007.033.012.022l.058-.028.02-.005.012.034v.024c0 .016-.008.035-.006.051l.027.007c.009.005.014.011.026.004l.023-.022.01-.011.016-.005.012.001h.023c0-.01.004-.014.01-.018l.035-.056a.066.066 0 0 1 .027-.031c.011-.007.024-.01.036-.015a.096.096 0 0 0 .028-.024.11.11 0 0 1 .026-.024.05.05 0 0 1 .013-.005h.028l.025-.014c.027-.016.052-.03.077-.034.017-.003.03.004.044.007.014.005.018.018.03.025.013.01.021.001.038-.007.018-.007.033-.005.049-.004.02.002.046-.01.057.01l.003.018.01.006.004.034c-.01.032-.03.044-.028.078.017-.008.022-.022.026-.036.004-.013.009-.027.02-.033a.026.026 0 0 1 .015-.003l-.001.033c.016-.021.02-.035.034-.044a.053.053 0 0 1 .014-.005c.02-.005.028.008.042.014.011.006.02.005.028 0 .014-.008.027-.025.047-.038.022-.013.028-.013.038-.005.017.013.018.01.04.003zm3.822-2.098c.018-.01.032.041.04.054a.44.44 0 0 1 .037.076c.008.024.026.047.046.055.02.007.05 0 .07.01.041.015.042.082.039.143a.27.27 0 0 1-.036.115.265.265 0 0 0-.026.078c-.006.03-.015.065-.039.083a.03.03 0 0 1-.005.004l-.009.004a.029.029 0 0 0-.006.003.054.054 0 0 0-.013.011l-.021.036-.013-.015-.005.037a.058.058 0 0 1-.024.03c-.01.006-.022.007-.032.008-.026.005-.04.006-.051-.015-.011-.019-.003-.057-.03-.056l-.015.004-.007-.034c-.01.015-.019.04-.032.047a.017.017 0 0 1-.012.002c-.02-.005-.014-.033-.042-.028a.036.036 0 0 0-.01.003c-.011.007-.023.02-.035.029a.18.18 0 0 1-.019.012l-.038.02a.236.236 0 0 0-.066.053c-.022.028-.04.057-.066.072a.087.087 0 0 1-.007.004c-.01.005-.021.008-.031.014a.063.063 0 0 0-.015.01l-.031.05a.083.083 0 0 1-.016.012c-.023.013-.036-.001-.035-.027.024-.017.011-.053.011-.07a.107.107 0 0 0-.023-.062c-.016-.021-.021-.035-.02-.071l.007-.062-.025.039.012-.054.051-.03c.046-.028.071-.06.075-.12a.101.101 0 0 1 .01-.006l.02-.01a.151.151 0 0 0 .015-.008c.015-.009.027-.022.029-.052l.005-.05a.082.082 0 0 1 .031-.029.061.061 0 0 1 .025-.009c.01-.002.028-.003.043-.012a.056.056 0 0 0 .026-.036c.009-.029-.003-.051.02-.083l.036-.026a.12.12 0 0 0 .065-.023c.02-.011.034-.015.022.017-.012.032-.015.041.005.052.021.011.043.01.07-.006a.178.178 0 0 0 .015-.01c.06-.044.016-.127.027-.181l.003-.002zm-1.88 1.14a.111.111 0 0 1 .012-.005c.014.038 0 .11-.012.159-.016.06-.036.126-.056.185-.009.027-.012.05-.036.064l-.002.002c-.027.013-.05-.014-.055-.034-.01-.043.043-.137.01-.156.006-.047.052-.064.073-.102.026-.047.024-.088.066-.113z"/><path fill="#474756" d="m53.265 107.73-6.286 3.653-18.313-10.573 6.286-3.653z"/><path fill="#F46CB4" d="m35.02 98.529 4.482-2.605-.058 4.974-4.483 2.605z"/><path fill="#FF9FD1" d="m30.316 95.813 4.482-2.605 4.704 2.716-4.482 2.605z"/><path fill="#FF7BBA" d="m35.02 98.529-.059 4.974-4.704-2.715.059-4.975z"/><path fill="#75D178" d="m41.146 97.117 4.483-2.605-.058 9.894-4.483 2.605z"/><path fill="#94ED96" d="m36.442 94.401 4.483-2.605 4.704 2.716-4.483 2.605z"/><path fill="#7CDF82" d="m41.146 97.117-.058 9.894-4.704-2.716.058-9.894z"/><path fill="#E22951" d="m47.273 95.705 4.483-2.605-.058 14.814-4.483 2.605z"/><path fill="#FD546B" d="m42.569 92.989 4.483-2.605 4.704 2.716-4.483 2.605z"/><path fill="#EA3D5B" d="m47.273 95.705-.058 14.814-4.704-2.716.058-14.814z"/><g fill="#2A2A38"><path d="m47.476 84.908-.015 8.598c0 .038-.025.075-.074.103a.394.394 0 0 1-.357 0c-.05-.029-.075-.067-.074-.104l.015-8.599c0 .038.024.076.074.104.1.058.26.058.357 0 .049-.028.073-.065.074-.102z"/><path d="M47.4 84.803c.1.058.1.15.002.208a.394.394 0 0 1-.357 0c-.099-.058-.1-.15-.001-.207a.394.394 0 0 1 .357 0z"/></g><path fill="#7CDF82" d="M52.015 87.453c-1.516 2.814-3.044-.927-4.56 1.888 0-1.257.013-2.517.013-3.773 1.516-1.558 3.031 3.443 4.547 1.885z"/><path fill="#B4C4CC" d="m105.871 159.199-.005 2.789c-.006.387-.257.775-.77 1.072l-32.999 19.18.006-2.79 33.004-19.18c.508-.296.764-.684.764-1.071z"/><path fill="#C5D4DD" d="m72.106 179.449-.008 2.79-43.943-25.37.008-2.79z"/><path fill="#E7F1F7" d="m105.107 160.27-33.004 19.18-43.942-25.373 28.76-16.71 4.244-2.464c.359-.216.804-.353 1.277-.41.85-.114 1.78.023 2.447.41l40.207 23.212c1.032.599 1.032 1.563.011 2.156z"/><path fill="#CFDEE8" d="M34.524 153.351c.066.038.064.098 0 .135l-1.91 1.11a.254.254 0 0 1-.233 0l-.766-.442c-.064-.037-.064-.097 0-.134l1.91-1.11a.258.258 0 0 1 .233 0l.766.441zm1.55.895c.063.037.063.098 0 .135l-1.911 1.11a.258.258 0 0 1-.233 0l-.766-.442c-.066-.038-.064-.098 0-.135l1.91-1.11a.255.255 0 0 1 .233 0l.766.442z"/><path fill="#616173" d="m47.942 161.78-.965.562-11.689-6.75.965-.562z"/><path fill="#C5D4DD" d="m72 175.669-.966.561-24.057-13.888.965-.562z"/><path fill="#FFB839" d="M48.773 161.134c.709.409.712 1.07.008 1.479-.702.408-1.842.408-2.551-.001-.707-.408-.713-1.07-.01-1.478.703-.41 1.846-.408 2.553 0z"/><path fill="#C5D4DD" d="m105.147 159.147-5.23 3.04-42.996-24.82 4.244-2.464c.359-.216.804-.353 1.277-.41l42.705 24.654z"/><path fill="#E7F1F7" d="m72.106 179.449-43.943-25.37"/><path fill="#5576DB" d="m105.492 156.906-5.232 3.04-43.495-25.112 5.231-3.04z"/><path fill="#255BB8" d="M95.05 152.413c.716.414.72 1.085.008 1.498s-1.87.414-2.586 0c-.717-.414-.721-1.085-.01-1.498.712-.414 1.87-.414 2.588 0zm3.416 1.973c.716.413.72 1.084.008 1.498-.711.413-1.87.413-2.586 0-.717-.414-.72-1.085-.01-1.499s1.87-.413 2.588 0zm3.415 1.971c.717.415.721 1.086.01 1.499-.712.414-1.87.414-2.588 0-.716-.414-.72-1.085-.008-1.499s1.87-.413 2.586 0z"/><path fill="#C2ECFF" d="M95.05 151.5c.716.414.72 1.085.008 1.499s-1.87.413-2.586 0c-.717-.415-.721-1.086-.01-1.499.712-.414 1.87-.414 2.588 0z"/><path fill="#FFE088" d="M98.466 153.473c.716.413.72 1.084.008 1.498-.711.413-1.87.413-2.586 0-.717-.414-.72-1.085-.01-1.499s1.87-.413 2.588 0z"/><path fill="#DCE8F1" d="M72.306 152.94c4.162 2.403 4.184 6.301.049 8.704-4.135 2.403-10.866 2.403-15.027 0-4.17-2.406-4.191-6.305-.056-8.708s10.865-2.403 15.034.004z"/><path fill="#FF6C85" d="M72.306 149.871c4.162 2.403 4.184 6.302.049 8.704-4.135 2.403-10.866 2.403-15.027 0-4.17-2.406-4.191-6.305-.056-8.708 4.135-2.403 10.865-2.403 15.034.004z"/><path fill="#FFF" d="M66.442 150.656a.387.387 0 0 1 .166.17l2.62 5.847c.12.272-.306.52-.778.45l-10.1-1.498a.833.833 0 0 1-.294-.096c-.236-.136-.265-.37-.002-.524l7.483-4.349c.263-.153.668-.137.905 0z"/><path fill="#ACF9AC" d="M101.88 155.445c.718.414.722 1.085.01 1.498-.711.414-1.87.414-2.587 0-.716-.414-.72-1.085-.008-1.498.711-.414 1.87-.414 2.586 0z"/><path fill="#FFF" d="M64.98 134.763c-.565-.327-1.482-.327-2.044 0-.241.14-.38.32-.413.503h-1.496a.216.216 0 1 0 0 .432l1.616-.001c.07.09.17.176.3.25.565.326 1.481.326 2.042-.001.563-.325.56-.857-.005-1.183zm-.305 1.003c-.392.228-1.03.228-1.424.001-.394-.227-.395-.596-.004-.825.391-.226 1.029-.226 1.423.001.393.228.395.597.005.823z"/></svg>