<svg xmlns="http://www.w3.org/2000/svg" viewBox="0 0 200 200"><path fill="#E7F1F7" d="M126.005 103.642c14.441 8.337 14.517 21.852.175 30.186-14.347 8.338-37.678 8.338-52.12 0-14.435-8.334-14.511-21.848-.164-30.186 14.342-8.334 37.673-8.335 52.11 0z"/><path fill="#85CDFD" d="m130.358 106.467-.025 8.798c-.013 4.466-2.947 8.924-8.81 12.331-11.805 6.86-31.003 6.86-42.885 0-5.977-3.45-8.963-7.98-8.95-12.504l.025-8.798c-.013 4.524 2.973 9.053 8.95 12.504 11.882 6.86 31.08 6.86 42.885 0 5.863-3.407 8.797-7.865 8.81-12.33z"/><path fill="#616173" d="M121.404 93.96c11.883 6.86 11.946 17.98.144 24.838-11.805 6.86-31.003 6.86-42.886 0-11.878-6.858-11.94-17.978-.135-24.839 11.801-6.858 30.999-6.858 42.877 0z"/><path fill="#FFF" d="m125.867 97.134-.022 7.495c-.01 3.805-2.51 7.603-7.505 10.505-10.057 5.845-26.413 5.845-36.536 0-5.092-2.94-7.635-6.799-7.624-10.652l.02-7.496c-.01 3.854 2.533 7.713 7.625 10.653 10.123 5.845 26.479 5.845 36.536 0 4.995-2.903 7.495-6.7 7.506-10.505z"/><path fill="#616173" d="M118.239 86.478c10.123 5.844 10.176 15.318.122 21.16-10.057 5.846-26.413 5.846-36.536 0-10.12-5.842-10.173-15.315-.115-21.16 10.054-5.843 26.409-5.843 36.529 0z"/><path fill="#85CDFD" d="m130.358 85.748-.025 8.798c-.013 4.466-2.947 8.924-8.81 12.33-11.805 6.861-31.003 6.862-42.885.001-5.977-3.45-8.963-7.98-8.95-12.504l.025-8.798c-.013 4.523 2.973 9.053 8.95 12.504 11.882 6.86 31.08 6.86 42.885 0 5.863-3.407 8.797-7.865 8.81-12.33z"/><path fill="#616173" d="M121.404 73.24c11.883 6.86 11.946 17.98.144 24.839-11.805 6.86-31.003 6.86-42.886 0-11.878-6.858-11.94-17.978-.135-24.839 11.801-6.858 30.999-6.858 42.877 0z"/><path fill="#FFF" d="m125.867 76.415-.022 7.495c-.01 3.805-2.51 7.603-7.505 10.505-10.057 5.845-26.413 5.845-36.536 0-5.092-2.94-7.635-6.799-7.624-10.652l.02-7.496c-.01 3.854 2.533 7.713 7.625 10.653 10.123 5.844 26.479 5.844 36.536 0 4.995-2.903 7.495-6.701 7.506-10.505z"/><path fill="#616173" d="M118.239 65.759c10.123 5.844 10.176 15.318.122 21.16-10.057 5.845-26.413 5.845-36.536 0-10.12-5.842-10.173-15.316-.115-21.16 10.054-5.843 26.409-5.843 36.529 0z"/><path fill="#85CDFD" d="m130.358 65.029-.025 8.798c-.013 4.466-2.947 8.924-8.81 12.33-11.805 6.861-31.003 6.861-42.885 0-5.977-3.45-8.963-7.98-8.95-12.503l.025-8.798c-.013 4.523 2.973 9.053 8.95 12.504 11.882 6.86 31.08 6.86 42.885 0 5.863-3.407 8.797-7.865 8.81-12.331z"/><path fill="#616173" d="M121.404 52.52c11.883 6.861 11.946 17.982.144 24.84-11.805 6.86-31.003 6.86-42.886 0-11.878-6.858-11.94-17.978-.135-24.839 11.801-6.858 30.999-6.858 42.877 0z"/><path fill="#E7F1F7" d="M130.065 39.935a29.76 29.76 0 0 1-.421 5.002c-.134.766-.297 1.521-.488 2.258a.724.724 0 0 1-.038.153 29.157 29.157 0 0 1-3.004 7.327c-5.098 8.772-14.587 14.674-25.464 14.674a29.261 29.261 0 0 1-19.6-7.48 29.907 29.907 0 0 1-5.882-7.203c0-.01-.01-.01-.01-.02a28.005 28.005 0 0 1-1.54-3.08v-.01l-.01-.009a29.25 29.25 0 0 1-2.075-7.356 29.719 29.719 0 0 1-.306-4.256c0-.144 0-.297.01-.44a29.22 29.22 0 0 1 5.959-17.333c.01-.01.019-.01.019-.01l.01-.01c5.366-7.069 13.86-11.631 23.425-11.631 16.243 0 29.415 13.171 29.415 29.424z"/><path fill="#7CDF82" d="M99.015 23.683c-.36.247-.706.493-1.002.805-.361.361-.64.806-.985 1.167-.082.114-.296.197-.444.18-.115 0-.18-.18-.312-.279-.51.115-.591-.033-.526-.51.066-.377.132-.755.411-1.133.115-.164.05-.41.148-.608.049-.115.263-.213.328-.312.115-.164.181-.36.362-.46.509-.312.542-.328.328-.772.427 0 .657-.132.559-.51l-.64.1c.081-.115.13-.198.196-.264.477-.311.756-1.05.51-1.428-.033-.066-.198-.099-.296-.115-.345 0-.69 0-1.084.016a.322.322 0 0 0 .016-.116c-.657.165-1.43-.295-1.988.116-.312.197-.378.558-.706.772-.23.148-.575.197-.706.427-.05.132 0 .246.082.345.197-.099.394.033.607.18-.082.05-.164.116-.262.165.049.049.098.115.115.164.114.016.213 0 .312.016 0 .066 0 .165.05.23.016.083.163.181.13.23-.065.181-.213.346-.328.493-.066.066-.23.148-.23.23-.016.05.115.1.18.165.066.049.198.115.198.148-.082.361.23.263.591.246-.427.312-.756.559-1.1.838l-.1-.05c.05-.114.083-.213.116-.295-.164-.066-.312-.131-.493-.197-.246.099-.296.295-.18.492.196.362 0 .69-.264 1.035-.164-.082-.328-.13-.574-.23v.51c-.263-.099-.526-.164-.772-.263.23-.772-.608-.328-.953-.476.033-.1.098-.165.164-.23-.066.016-.148.065-.23.098-.131.066-.246.164-.362.246-.148.099-.295.198-.476.28a.128.128 0 0 1-.066.033h-.016c-.28.115-.575.23-.87.312-.066.033-.149.099-.23.148.016-.033 0-.066.016-.099-.083.033-.165.05-.247.066a.642.642 0 0 0 .28-.542c-.033.016-.066.033-.1.065-.508.28-1.067.543-1.51.92-.625.494-1.15 1.085-1.692 1.66-.083.082-.066.23-.066.345.016.164.066.328.115.558.394-.131.575.099.772.395.132.148.493.13.805.196-.115.23-.247.494-.361.74-.066.115-.148.23-.132.312.033.165.164.312.246.46.148-.131.346-.263.444-.411.131-.213.164-.427.197-.657.05-.492.378-.887.887-1.1.542-.247.674-.576.624-.986-.032-.263.05-.444.313-.657.147-.115.213-.312.312-.493.115-.214.23-.46.378-.674.033-.05.18-.098.262-.115a2.71 2.71 0 0 1 .723-.016c.115.016.23.099.296.197.066.099.099.23.246.312-.147.312-.295.591-.443.887.443.247.526.23.854-.263.115-.18.28-.345.526-.59.082.574.18 1.034-.132 1.56-.082.13-.016.394.115.493.198.131.312.23.148.46.395.115.477.377.148.673-.575.51-1.2 1.019-2.02 1.002-.773 0-1.282.443-1.758.986-.165.213-.427.41-.641.608.591-.33 1.15-.657 1.741-.97.017.05.066.1.082.148a8.982 8.982 0 0 0-.46.378c.017.395 0 .838.806.674-.493.558-1.036.805-1.66 1.15.18-.263.296-.427.428-.625-.1-.016-.198-.065-.247-.033-.526.395-1.2.674-1.478 1.331-.066.18-.329.345-.51.526-.263.296-.525.558-.739.87-.164.23-.246.493-.378.772-.164-.016-.296-.032-.443-.049a21.01 21.01 0 0 1-.148 1.183c-.411.443-.92 1.003-1.364 1.594-.164.213-.213.525-.213.755-.017.427.049.855.016 1.298-.016.23-.131.493-.23.838-.345-.394-.591-.706-.526-1.249.033-.263.033-.542-.427-.312-.05.016-.098.016-.148.016-.64-.13-.788-.032-.821.707-.213.016-.41.05-.624.082-.657.083-1.232.493-1.56 1.15-.017.05-.05.082-.034.115.18.707-.46 1.528-.312 2.234.066.329.164.64.329.887.246.379.706.28 1.051-.196.115-.165.246-.345.296-.527.164-.575.575-.87 1.166-1.067-.098.361-.115.722-.263 1.051-.197.394-.279.756-.148 1.1.28-.081.559-.18.838-.23.263-.065.444.017.477.23a.327.327 0 0 1 .016.181c-.016.313-.082.641-.066.937.05.23.165.46.33.591.196.148.426-.082.672-.197.247-.115.543-.066.822-.099.016.033.016.083.05.116.065-.213.18-.41.196-.624.082-.575.427-.986 1.052-1.2-.033.345-.05.674-.066 1.019.033 0 .066-.016.099-.016.082-.362.18-.707.279-1.135.608.33 1.215.149 1.84-.163.098-.033.23.033.345.065.23.132.476.263.673.427.444.312.904.477 1.512.296a.496.496 0 0 1 .394.099c.263.197.476.46.706.69.28.312.23.64-.115 1.05.756-.147 1.495-.54 2.004.182.576-.312 1.167-.395 1.676.016.05.033.115.066.181.082.213.082.51.115.591.28.23.426.312.887.115 1.429-.131.394-.23.789-.295 1.215a1.5 1.5 0 0 0 .082.707c.263.69.147 1.38-.05 2.102-.016.099-.098.165-.164.214-.772.608-.97 1.166-.756 2.103.083.395.083.821.115 1.232 0 .049-.049.115-.082.197l-.18-.23c-.017.05-.05.082-.05.115.033.164.05.329.082.493.165.558.099.69-.394.887-.05.016-.099.05-.23.082.411.18.526.51.542.92 0 .526-.476.51-.739.706.066.148.18.296.164.444.017.115-.131.247-.23.411.05.05.115.148.198.197.23.148.443.657.394.953-.099.542 0 .64.493.608.213.492-.017 1.298.607 1.445 0 .329-.016.591-.016.887-.099-.082-.18-.197-.28-.312-.23.198-.41.132-.59-.131-.23-.28-.543-.477-.822-.706a.898.898 0 0 1-.131-.313l.065-.066c-.197-.049-.394-.115-.673-.18a.553.553 0 0 1 .016-.362.498.498 0 0 0-.099-.509c-.18-.197-.328-.41-.492-.608-.05-.05-.099-.131-.132-.131-.279.082-.328-.165-.443-.33-.165-.196-.312-.36-.477-.573-.033-.033-.098-.066-.115-.116-.18-1.116-.92-1.84-1.265-2.842-.033-.049-.065-.099-.049-.164-.115-1.035-.674-1.79-1.15-2.58-.213-.311-.493-.525-.887-.574-.148 0-.28-.082-.427-.082-.854-.033-1.364-.591-1.758-1.232-.28-.444-.559-.789-1.035-.937-.246-.05-.328-.246-.361-.526-.05-.69-.132-1.363-.148-2.053.016-.41.148-.837.28-1.265.196-.574-.017-1.117-.543-1.265-.213-.033-.329.132-.296.526-.279-.05-.525-.131-.788-.164-.23-.017-.362-.312-.706-.05a3.185 3.185 0 0 0-.198-.427c-.197-.329-.427-.558-.92-.542-.197.016-.394-.049-.558-.115-.132-.05-.28-.115-.394-.164-.214-.082-.411-.082-.641.099-.18.114-.395.18-.559.18-.591-.049-1.183-.049-1.741-.197-.18-.066-.214-.444-.312-.673-.033-.083.066-.247.033-.312-.28-.395-.625-.756-.855-1.2-.295-.493-.788-.838-.739-1.577.016-.23.05-.591-.476-.477.328 1.052.657 2.103 1.002 3.155-.066.049-.115.082-.18.13-.149-.196-.313-.36-.444-.59-.148-.18-.28-.411-.427-.641-.033-.066-.132-.164-.1-.23.214-.41.083-.608-.114-.821-.05-.066-.05-.213-.05-.329 0-.542-.164-.986-.69-1.117-.114-.033-.246-.098-.246-.197-.049-.46-.049-.937-.049-1.396 0-.28-.05-.51.017-.805.098-.56.196-1.117.394-1.709.246-.69.59-1.396.903-2.103.099-.197.23-.394.345-.59h.115c0 .114.016.212 0 .311.033 0 .082 0 .099-.033.493-.542.263-.986.246-1.43.017-.048-.033-.065-.082-.065-.51.033-.296-.328-.214-.64.099-.378.148-.74.214-1.117.115-.641.23-1.298.361-2.005-.197.099-.36.214-.591.329-.033-.23-.082-.444-.131-.707-.165.033-.444.099-.625.05-.18-.05-.295-.23-.443-.362-.296.296-.64.625-1.002.953.065-.18.115-.362.18-.542.099-.082.181-.18.28-.262-.033-.034-.05-.05-.066-.083-.05.033-.082.066-.115.099.673-1.84 1.544-3.582 2.546-5.24.345-.214.674-.428 1.002-.625.41-.23.887-.625 1.282-.28.033.05.246-.049.345-.032.246.066.46.164.657.246.098.033.18.05.263.066.279.082.542.148.837.197.148.017.312.05.477-.016.526-.247 1.035-.493 1.593-.674-.115.082-.23.181-.361.263a.227.227 0 0 1 .033.049c.131-.065.263-.13.378-.197.378-.197.706-.345 1.035-.115.23.164.607.147.92.23.049 0 .065.033.115.033-.066-.213-.263-.395-.51-.477-.065 0-.148-.016-.18-.065-.099-.082.016-.263.13-.395.231-.262.445-.525.724-.739.312-.378.756-.674 1.216-.969.114-.033.197-.082.312-.148.361-.394.657-.822 1.15-1.1.246-.148.525-.23.805-.28.36-.147.706-.263 1.051-.394l.05.098c-.05.05-.1.116-.165.149.28-.033.559-.116.821-.247-.016 0-.016-.017-.032-.033.082-.033.13-.05.196-.065l.017-.017c.099-.082.214-.165.312-.23.18-.082.394-.098.592-.115.575-.099 1.133-.394 1.495-.805.279 0 .542.098.706.263.066.065.131.131.23.131.05 0 .115-.017.164-.049.51-.214.97-.526 1.33-.92.149-.148.33-.362.56-.362.18-.016.312.082.46.116a.593.593 0 0 0 .377-.034c0-.016-.033-.065-.066-.114.214-.033.444-.082.674-.115.608-.23 1.281-.263 1.939-.378.377-.066.755-.131 1.117-.099.345.033.673.214.722.477.066.033.099.033.132.049-.017.05-.033.082-.05.131h-.065a.785.785 0 0 1-.131.296c.164-.065.328-.115.492-.18.23-.099.641-.28.789.115.016.016.312.016.427-.033.345-.149.591-.099.789.164.065-.148.115-.263.18-.395.132 0 .312.017.46.017-.05-.082-.066-.148-.131-.263.854.033 1.659-.46 2.595-.049-.542.032-.936.066-1.38.131 0 .033.017.083.017.116.723 0 1.495-.18 2.135.295-.279 0-.558-.016-.837-.016-.296 0-.575 0-.871.016v.082c.378.082.74.18 1.281.296a34.64 34.64 0 0 1 1.298-.098c.099-.017.197.049.312.065-.049.065-.098.131-.131.197-.329.05-.64.099-.97.164-.131.066-.279.148-.41.214.164.312-.28.378-.427.592-.115.213-.28.443-.41.657-.132.114-.609-.18-.494.312.033.147-.197.345-.328.558h-.214c-.065.164-.098.329-.213.428-.033.065-.312.081-.312.049-.132-.28-.345-.082-.46 0-.329.197-.263.377.164.608-.066.114-.132.229-.263.426-.164-.18-.296-.312-.46-.492-.246.246-.41.41-.624.64.345.017.575.05.805.05-.345.526-1.167.87-1.84.772-.263-.05-.41.016-.592.197-.312.279-.706.526-1.067.74-.148.081-.395 0-.543.081z"/><path fill="#7CDF82" d="M85.413 43.528c-.296.017-.624.05-.936.066.394-.214.493-.411.033-.657.607-.148 1.1-.51 1.544-.115-.214.23-.427.477-.64.706zm-2.842-.985c.69-.1 1.298.049 1.922.394-.279.164-.51.296-.723.427-.377-.575-1.051-.625-1.922-.065.017-.132 0-.28.05-.33.213-.164.46-.394.673-.426zm47.493-2.613c0 1.709-.148 3.385-.427 5.011 0 .066-.033.148-.033.214-.131-.165-.263-.33-.361-.51-.542.493-.395 1.183-.329 1.824.017.098.132.197.214.296.032.049.049.098.082.147-.017.099-.033.198-.05.28-.016.065-.016.115-.049.164-.016.098-.065.213-.098.329-.066-.198-.148-.411-.214-.608-.115-.395-.098-.806-.46-1.15-.033-.034-.016-.148 0-.247.033-.23.066-.51.131-.739.165-.559.033-1.15-.131-1.741-.033 0-.066-.017-.099-.033a5.225 5.225 0 0 1-.46.132c-.032-.1-.065-.215-.098-.33-.016-.065-.033-.147-.05-.213-.016-.23.017-.443-.049-.657-.049-.181-.213-.329-.345-.509-.065-.099-.18-.164-.23-.28-.263-.492-1.002-.657-1.28-.23-.264.427-.642.706-1.052.953a.123.123 0 0 0-.066.033c-.476.263-.706.673-.805 1.199-.082.526-.23 1.068-.936 1.134-.23-1.019-.592-2.037-.773-3.056a7.402 7.402 0 0 1-.147-1.478c-.181.065-.296.131-.411.148-.132.032-.328.066-.361 0-.099-.116-.115-.28-.165-.444 0-.016.017-.05 0-.082-.361-.444-.575-1.019-1.265-1.134-.295-.049-.591-.114-.87-.164-.395-.049-.756-.164-1.035-.493-.082-.098-.28-.164-.444-.213-.608-.148-1.133-.395-1.314-1.068-.033-.098-.18-.164-.28-.23-.065.082-.213.164-.213.28-.016.13.05.278.115.426.132.28.312.56.476.887.033-.016.116-.016.198-.033 0 .149-.017.296-.017.444.362.083.69.247.887-.18.066-.1.23-.148.395-.23.049.443.164.739.591.92.28.13.246.525.082.772-.246.378-.575.69-.903.919-.707.476-1.545.74-2.415.97-.493.147-.723.016-.937-.444-.082-.18-.082-.362-.164-.542a3.757 3.757 0 0 0-.18-.46l-.346-.838c-.115-.295-.197-.591-.312-.887-.016-.049-.033-.099-.065-.164-.313-.575-.658-1.134-1.02-1.725-.032-.017-.196-.033-.393-.066.148.428.312.854.493 1.298.164.476.279 1.002.509 1.478.147.263.246.559.345.839.197.476.443.92.838 1.297a.97.97 0 0 1 .295.608c.017.345.214.378.477.361.526-.016 1.018-.065 1.56-.098-.033.098-.033.213-.065.296-.395.706-.756 1.428-1.167 2.119-.18.262-.46.46-.723.64-1.166.838-1.642 1.923-1.215 3.384.098.33.098.674.098 1.003-.016.46-.18.805-.624.969a.69.69 0 0 0-.296.28c-.164.23-.295.46-.476.755.361.837 0 1.265-.608 1.314-.016.082-.016.131-.033.214-.049 1.248-.673 2.02-1.692 2.447-.345.148-.739.197-1.117.197-.263.016-.41-.23-.394-.492.049-.724-.296-1.282-.591-1.857-.116-.23-.198-.51-.28-.756-.18-.476-.312-1.018-.558-1.462-.378-.673-.378-1.347-.28-2.07 0-.065.05-.18.099-.213.296-.181.263-.41.164-.657-.098-.263-.115-.542-.213-.788-.197-.428-.345-.904-.657-1.25-.395-.476-.345-1.05-.493-1.593-.017-.065.049-.164.082-.246.18-.328.05-.608-.345-.608-.312 0-.542-.065-.723-.279-.296-.313-.674-.148-1.002-.065-.51.147-1.019.312-1.511.492a.579.579 0 0 0-.181.066c-.477.41-.822.147-1.183-.116-.493-.36-.838-.853-1.249-1.28-.607-.642-.607-1.364-.558-2.12.033-.23.033-.476.05-.707-.017-.114.065-.262.016-.328-.28-.312-.066-.59.065-.904.181-.328.296-.706.526-1.035.28-.36.608-.69.97-.985.328-.263.673-.476.59-.936 0-.05.034-.132.066-.198.296-.378.608-.771.92-1.133.033-.05.148-.082.247-.082a7.533 7.533 0 0 0 2.333-.444 4.937 4.937 0 0 1 1.182-.213c.773-.066 1.052.378.69.936.608.378 1.2.739 1.807 1.134.033-.016.066-.016.082-.033.641-.559 1.38-.608 2.153-.198.164.083.345.116.525.198.066.017.148.082.197.065.395-.164.805-.147 1.232-.131.066 0 .165-.148.198-.246.131-.427.262-.855.378-1.248a15.062 15.062 0 0 0-1.512 0c-.329-.017-.772-.428-.805-.773 0-.164.017-.329.017-.493.673-.214 1.363-.443 2.086-.591.131-.033.328.18.493.246.197.082.41.23.575.214.23-.017.443-.164.673-.263-.131-.148-.246-.345-.394-.493-.082-.082-.197-.164-.296-.246-.263-.23-.427-.476-.098-.772-.017-.033-.05-.066-.066-.099-.28 0-.542.016-.805.033 0 .033-.016.082-.016.131.131.082.246.18.377.28-.59.344-.64.312-.87-.28-.033-.098-.197-.197-.312-.263-.05-.016-.197.083-.263.149-.296.377-.608.771-.526 1.314 0 .098-.148.246-.263.312-.312.098-.739-.165-1.002.197-.016.016-.164-.05-.394-.099.148.33.246.559.361.838-.082.066-.246.23-.476.427-.05-.18-.082-.361-.148-.51a.365.365 0 0 0-.131-.212c-.329-.247-.46-.608-.526-.97-.016-.18-.164-.345-.296-.493-.18-.197-.394-.394-.64-.624-.05-.017-.198-.066-.362-.115-.164.246.033.788.362 1.002.279.18.542.411.788.608-.214.23-.41.427-.69.74a.774.774 0 0 0-.066-.56c0 .165-.065.313-.36.412-.034-.247-.067-.46-.05-.69 0-.017.05-.034.115-.05-.115-.099-.23-.18-.345-.263a6.255 6.255 0 0 0-.329-.295c-.443-.46-.427-.395-1.133-.263-.526.115-.822.361-1.183.722-.329.345-.723.625-.936 1.1-.23.527-1.2.773-1.627.51-.131-.098-.361-.066-.575-.082-.082-.394 0-.755.181-1.133.148-.28.197-.591.328-1.002.247-.164.674-.115 1.101-.1.674.034.706.034.854-.54.05-.181-.033-.395-.115-.543-.147-.197-.361-.362-.575-.575.263-.082.444-.148.64-.214.773-.246 1.463-.592 1.94-1.199a.677.677 0 0 1 .377-.214c.444-.098.657-.311.707-.69.033-.295.164-.525.542-.607.082.262.131.51.213.756.148.328.345.41.74.279.361-.149.706-.28 1.15-.23.23.016.575-.115.607-.444.017-.23.083-.361.378-.476.132-.066.23-.263.28-.411.082-.246.23-.328.542-.246.263.05.558.016.87.05-.148-.38-.377-.461-.739-.395-.263.05-.575.18-.821-.115-.263-.312-.214-.592-.017-.871a13.2 13.2 0 0 1 .575-.887c-.197.016-.345.016-.476.065-.444.132-1.134.97-1.1 1.364.032.674-.592 1.66-1.299 2.07-.164-.41-.295-.805-.46-1.249-.23.083-.443.165-.69.23-.213.05-.46.017-.427-.23.033-.361.132-.722.23-1.084a.224.224 0 0 1 .148-.148c1.15-.296 1.627-1.166 2.317-1.856.377-.362.739-.69 1.396-.674.131 0 .263-.065.361-.114.477-.247.953-.247 1.495 0-.016.049-.049.114-.082.23.28.082.559.148.838.246.296.148.591.295.904.477.377.23.279.46 0 .624-.116.049-.313.082-.444.033-.263-.083-.526-.23-.772-.345-.05.033-.082.065-.115.065.246.378.493.74.723 1.101.032-.017.098-.017.131-.033 0-.099 0-.197.017-.279.147.049.312.066.394.082.197-.148.378-.345.558-.345.526-.066.575-.312.51-.657-.017-.05-.017-.115-.017-.23.18.05.312.082.542.164-.427.246-.279.378.099.51.164-.477.69-.723 1.1-.592.444.148.953-.131 1.298.28.51-.378.526-.378 1.66.229-.033-.099-.033-.214-.1-.262-.558-.46-.328-.888-.114-1.298.033-.083.18-.182.28-.165.147.033.377.132.394.23.196.673.344 1.38.509 2.07-.247.033-.411.05-.69.082.295.1.476.164.673.23.164-.262.345-.51.526-.805.18.115.345.214.526.296-.165-.394-.197-.443-.608-.509-.28-.05-.378-.148-.427-.378-.05-.313-.329-.64.049-.92.098.18.18.345.296.526.345-.444.755-.312 1.347.492.098-.492-.477-.788-.756-1.248.362-.017.64-.033.986-.049-.05-.115-.082-.214-.132-.313.099-.213.674-.345 1.232-.312a29.348 29.348 0 0 1 6.588 18.547z"/><path fill="#85CDFD" d="m172.852 161.135-.013 4.664-15.654 9.097.013-4.663z"/><path fill="#93D4FF" d="m157.198 170.233-.013 4.663-15.76-9.098.014-4.664z"/><path fill="#C2ECFF" d="m172.852 161.135-15.654 9.098-15.759-9.099 15.654-9.097z"/><path fill="#CFDEE8" d="m169.995 157.036-.011 3.816-12.808 7.443.011-3.816z"/><path fill="#E7F1F7" d="m157.187 164.479-.011 3.816-12.893-7.444.011-3.816z"/><path fill="#C5D4DD" d="m169.995 157.036-12.808 7.443-12.893-7.444 12.807-7.443z"/><path fill="#85CDFD" d="m172.852 151.686-.013 4.664-15.654 9.097.013-4.663z"/><path fill="#93D4FF" d="m157.198 160.784-.013 4.663-15.76-9.098.014-4.664z"/><path fill="#C2ECFF" d="m172.852 151.686-15.654 9.098-15.759-9.099 15.654-9.097z"/><path fill="#CFDEE8" d="m169.995 147.826-.011 3.816-12.808 7.443.011-3.815z"/><path fill="#E7F1F7" d="m157.187 155.27-.011 3.815-12.893-7.444.011-3.816z"/><path fill="#C5D4DD" d="m169.995 147.826-12.808 7.444-12.893-7.445 12.807-7.443z"/><path fill="#4C4C5E" d="m172.852 142.476-.013 4.664-15.654 9.097.013-4.663z"/><path fill="#616173" d="m157.198 151.574-.013 4.663-15.76-9.098.014-4.664z"/><path fill="#E7F1F7" d="m172.852 142.476-15.654 9.098-15.759-9.099 15.654-9.097z"/><path fill="#CFDEE8" d="m144.427 142.471 12.668-7.362 12.77 7.372-12.67 7.362z"/><path fill="#94ED96" d="m145.045 146.421-.003 1.025-2.205-1.273.003-1.025z"/><path fill="#FFF" d="m156.075 152.789-.003 1.025-10.304-5.949.003-1.025z"/><path fill="#EA3D5B" d="m145.045 155.739-.003 1.025-2.205-1.274.003-1.024z"/><path fill="#FFF" d="m156.075 162.107-.003 1.025-10.304-5.949.003-1.025z"/><path fill="#EA3D5B" d="m145.045 165.057-.003 1.024-2.205-1.273.003-1.024z"/><path fill="#FFF" d="m156.075 171.425-.003 1.025-10.304-5.949.003-1.025z"/><path fill="#94ED96" d="m169.93 146.188.003 1.025 2.205-1.273-.003-1.025z"/><path fill="#FFF" d="m158.9 152.557.003 1.024 10.304-5.949-.003-1.024z"/><path fill="#EA3D5B" d="m169.93 155.506.003 1.025 2.205-1.273-.003-1.025z"/><path fill="#FFF" d="m158.9 161.874.003 1.025 10.304-5.949-.003-1.025z"/><path fill="#EA3D5B" d="m169.93 164.824.003 1.025 2.205-1.273-.003-1.025z"/><path fill="#FFF" d="m158.9 171.192.003 1.025 10.304-5.949-.003-1.025z"/><path fill="#85CDFD" d="m198 175.728-.013 4.664-15.655 9.097.014-4.663z"/><path fill="#93D4FF" d="m182.346 184.826-.014 4.663-15.759-9.098.013-4.664z"/><path fill="#C2ECFF" d="m198 175.728-15.654 9.098-15.76-9.099 15.655-9.097z"/><path fill="#CFDEE8" d="m195.143 171.629-.011 3.816-12.808 7.443.011-3.815z"/><path fill="#E7F1F7" d="m182.335 179.073-.011 3.815-12.893-7.444.01-3.815z"/><path fill="#C5D4DD" d="m195.143 171.629-12.808 7.444-12.894-7.444 12.808-7.444z"/><path fill="#85CDFD" d="m198 166.279-.013 4.664-15.655 9.097.014-4.663z"/><path fill="#93D4FF" d="m182.346 175.377-.014 4.663-15.759-9.098.013-4.664z"/><path fill="#C2ECFF" d="m198 166.279-15.654 9.098-15.76-9.099 15.655-9.097z"/><path fill="#CFDEE8" d="m195.143 162.42-.011 3.815-12.808 7.443.011-3.815z"/><path fill="#E7F1F7" d="m182.335 169.863-.011 3.815-12.893-7.444.01-3.815z"/><path fill="#C5D4DD" d="m195.143 162.42-12.808 7.443-12.894-7.444 12.808-7.443z"/><path fill="#4C4C5E" d="m198 157.07-.013 4.663-15.655 9.098.014-4.664z"/><path fill="#616173" d="m182.346 166.167-.014 4.664-15.759-9.099.013-4.664z"/><path fill="#E7F1F7" d="m198 157.07-15.654 9.097-15.76-9.099 15.655-9.097z"/><path fill="#CFDEE8" d="m169.574 157.064 12.669-7.362 12.769 7.372-12.669 7.362z"/><path fill="#94ED96" d="m170.192 161.014-.003 1.025-2.205-1.273.003-1.025z"/><path fill="#FFF" d="m181.223 167.383-.003 1.024-10.304-5.949.003-1.024z"/><path fill="#EA3D5B" d="m170.192 170.332-.003 1.025-2.205-1.273.003-1.025z"/><path fill="#FFF" d="m181.223 176.7-.003 1.025-10.304-5.949.003-1.025z"/><path fill="#EA3D5B" d="m170.192 179.65-.003 1.025-2.205-1.273.003-1.025z"/><path fill="#FFF" d="m181.223 186.018-.003 1.025-10.304-5.949.003-1.025z"/><path fill="#94ED96" d="m195.078 160.781.003 1.025 2.205-1.273-.003-1.025z"/><path fill="#FFF" d="m184.048 167.15.002 1.025 10.304-5.949-.002-1.025z"/><path fill="#EA3D5B" d="m195.078 170.099.003 1.025 2.205-1.273-.003-1.025z"/><path fill="#FFF" d="m184.048 176.468.002 1.024 10.304-5.949-.002-1.024z"/><path fill="#EA3D5B" d="m195.078 179.417.003 1.025 2.205-1.273-.003-1.025z"/><path fill="#FFF" d="m184.048 185.786.002 1.024 10.304-5.949-.002-1.024z"/><path fill="#85CDFD" d="m27.148 161.135.013 4.664 15.655 9.097-.014-4.663z"/><path fill="#93D4FF" d="m42.802 170.233.014 4.663 15.759-9.098-.013-4.664z"/><path fill="#C2ECFF" d="m27.148 161.135 15.654 9.098 15.76-9.099-15.655-9.097z"/><path fill="#CFDEE8" d="m30.005 157.036.011 3.816 12.808 7.443-.011-3.816z"/><path fill="#E7F1F7" d="m42.813 164.479.011 3.816 12.893-7.444-.01-3.816z"/><path fill="#C5D4DD" d="m30.005 157.036 12.808 7.443 12.894-7.444-12.808-7.443z"/><path fill="#85CDFD" d="m27.148 151.686.013 4.664 15.655 9.097-.014-4.663z"/><path fill="#93D4FF" d="m42.802 160.784.014 4.663 15.759-9.098-.013-4.664z"/><path fill="#C2ECFF" d="m27.148 151.686 15.654 9.098 15.76-9.099-15.655-9.097z"/><path fill="#CFDEE8" d="m30.005 147.826.011 3.816 12.808 7.443-.011-3.815z"/><path fill="#E7F1F7" d="m42.813 155.27.011 3.815 12.893-7.444-.01-3.816z"/><path fill="#C5D4DD" d="m30.005 147.826 12.808 7.444 12.894-7.445-12.808-7.443z"/><path fill="#4C4C5E" d="m27.148 142.476.013 4.664 15.655 9.097-.014-4.663z"/><path fill="#616173" d="m42.802 151.574.014 4.663 15.759-9.098-.013-4.664z"/><path fill="#E7F1F7" d="m27.148 142.476 15.654 9.098 15.76-9.099-15.655-9.097z"/><path fill="#CFDEE8" d="m55.574 142.471-12.669-7.362-12.769 7.372 12.669 7.362z"/><path fill="#94ED96" d="m54.956 146.421.002 1.025 2.205-1.273-.002-1.025z"/><path fill="#FFF" d="m43.925 152.789.003 1.025 10.304-5.949-.003-1.025z"/><path fill="#EA3D5B" d="m54.956 155.739.002 1.025 2.205-1.274-.002-1.024z"/><path fill="#FFF" d="m43.925 162.107.003 1.025 10.304-5.949-.003-1.025z"/><path fill="#EA3D5B" d="m54.956 165.057.002 1.024 2.205-1.273-.002-1.024z"/><path fill="#FFF" d="m43.925 171.425.003 1.025 10.304-5.949-.003-1.025z"/><path fill="#94ED96" d="m30.07 146.188-.003 1.025-2.205-1.273.003-1.025z"/><path fill="#FFF" d="m41.1 152.557-.003 1.024-10.304-5.949.003-1.024z"/><path fill="#EA3D5B" d="m30.07 155.506-.003 1.025-2.205-1.273.003-1.025z"/><path fill="#FFF" d="m41.1 161.874-.003 1.025-10.304-5.949.003-1.025z"/><path fill="#EA3D5B" d="m30.07 164.824-.003 1.025-2.205-1.273.003-1.025z"/><path fill="#FFF" d="m41.1 171.192-.003 1.025-10.304-5.949.003-1.025z"/><path fill="#85CDFD" d="m2 175.728.013 4.664 15.655 9.097-.013-4.663z"/><path fill="#93D4FF" d="m17.655 184.826.013 4.663 15.759-9.098-.013-4.664z"/><path fill="#C2ECFF" d="m2 175.728 15.655 9.098 15.759-9.099-15.655-9.097z"/><path fill="#CFDEE8" d="m4.857 171.629.011 3.816 12.808 7.443-.011-3.815z"/><path fill="#E7F1F7" d="m17.665 179.073.011 3.815 12.894-7.444-.011-3.815z"/><path fill="#C5D4DD" d="m4.857 171.629 12.808 7.444 12.894-7.444-12.808-7.444z"/><path fill="#85CDFD" d="m2 166.279.013 4.664 15.655 9.097-.013-4.663z"/><path fill="#93D4FF" d="m17.655 175.377.013 4.663 15.759-9.098-.013-4.664z"/><path fill="#C2ECFF" d="m2 166.279 15.655 9.098 15.759-9.099-15.655-9.097z"/><path fill="#CFDEE8" d="m4.857 162.42.011 3.815 12.808 7.443-.011-3.815z"/><path fill="#E7F1F7" d="m17.665 169.863.011 3.815 12.894-7.444-.011-3.815z"/><path fill="#C5D4DD" d="m4.857 162.42 12.808 7.443 12.894-7.444-12.808-7.443z"/><path fill="#4C4C5E" d="m2 157.07.013 4.663 15.655 9.098-.013-4.664z"/><path fill="#616173" d="m17.655 166.167.013 4.664 15.759-9.099-.013-4.664z"/><path fill="#E7F1F7" d="m2 157.07 15.655 9.097 15.759-9.099-15.655-9.097z"/><path fill="#CFDEE8" d="m30.426 157.064-12.669-7.362-12.769 7.372 12.669 7.362z"/><path fill="#94ED96" d="m29.808 161.014.003 1.025 2.205-1.273-.003-1.025z"/><path fill="#FFF" d="m18.777 167.383.003 1.024 10.304-5.949-.003-1.024z"/><path fill="#EA3D5B" d="m29.808 170.332.003 1.025 2.205-1.273-.003-1.025z"/><path fill="#FFF" d="m18.777 176.7.003 1.025 10.304-5.949-.003-1.025z"/><path fill="#EA3D5B" d="m29.808 179.65.003 1.025 2.205-1.273-.003-1.025z"/><path fill="#FFF" d="m18.777 186.018.003 1.025 10.304-5.949-.003-1.025z"/><path fill="#94ED96" d="m4.922 160.781-.003 1.025-2.205-1.273.003-1.025z"/><path fill="#FFF" d="m15.953 167.15-.003 1.025-10.304-5.949.003-1.025z"/><path fill="#EA3D5B" d="m4.922 170.099-.003 1.025-2.205-1.273.003-1.025z"/><path fill="#FFF" d="m15.953 176.468-.003 1.024-10.304-5.949.003-1.024z"/><path fill="#EA3D5B" d="m4.922 179.417-.003 1.025-2.205-1.273.003-1.025z"/><path fill="#FFF" d="m15.953 185.786-.003 1.024-10.304-5.949.003-1.024z"/><path fill="#85CDFD" d="m166.573 54.378.013 4.663 15.655 9.098-.013-4.664z"/><path fill="#93D4FF" d="m182.228 63.475.013 4.664L198 59.04l-.013-4.664z"/><path fill="#C2ECFF" d="m166.573 54.378 15.655 9.097 15.759-9.099-15.655-9.097z"/><path fill="#CFDEE8" d="m169.431 50.279.01 3.815 12.808 7.443-.011-3.815z"/><path fill="#E7F1F7" d="m182.238 57.722.011 3.815 12.894-7.444-.011-3.815z"/><path fill="#C5D4DD" d="m169.431 50.279 12.807 7.443 12.894-7.444-12.808-7.443z"/><path fill="#85CDFD" d="m166.573 44.929.013 4.663 15.655 9.098-.013-4.664z"/><path fill="#93D4FF" d="m182.228 54.026.013 4.664L198 49.591l-.013-4.664z"/><path fill="#C2ECFF" d="m166.573 44.929 15.655 9.097 15.759-9.099-15.655-9.097z"/><path fill="#CFDEE8" d="m169.431 41.069.01 3.816 12.808 7.443-.011-3.816z"/><path fill="#E7F1F7" d="m182.238 48.512.011 3.816 12.894-7.444-.011-3.816z"/><path fill="#C5D4DD" d="m169.431 41.069 12.807 7.443 12.894-7.444-12.808-7.443z"/><path fill="#4C4C5E" d="m166.573 35.719.013 4.663 15.655 9.098-.013-4.664z"/><path fill="#616173" d="m182.228 44.816.013 4.664L198 40.381l-.013-4.663z"/><path fill="#E7F1F7" d="m166.573 35.719 15.655 9.097 15.759-9.098-15.655-9.098z"/><path fill="#CFDEE8" d="m194.999 35.713-12.669-7.362-12.769 7.372 12.669 7.362z"/><path fill="#94ED96" d="m194.381 39.663.003 1.025 2.205-1.273-.003-1.025z"/><path fill="#FFF" d="m183.35 46.032.003 1.025 10.304-5.949-.003-1.025z"/><path fill="#EA3D5B" d="m194.381 48.981.003 1.025 2.205-1.273-.003-1.025z"/><path fill="#FFF" d="m183.35 55.35.003 1.025 10.304-5.949-.003-1.025z"/><path fill="#EA3D5B" d="m194.381 58.299.003 1.025 2.205-1.273-.003-1.025z"/><path fill="#FFF" d="m183.35 64.668.003 1.024 10.304-5.949-.003-1.024z"/><path fill="#94ED96" d="m169.495 39.431-.003 1.024-2.205-1.273.003-1.024z"/><path fill="#FFF" d="m180.526 45.799-.003 1.025-10.304-5.949.003-1.025z"/><path fill="#EA3D5B" d="m169.495 48.748-.003 1.025-2.205-1.273.003-1.025z"/><path fill="#FFF" d="m180.526 55.117-.003 1.025-10.304-5.949.003-1.025z"/><path fill="#EA3D5B" d="m169.495 58.066-.003 1.025-2.205-1.273.003-1.025z"/><path fill="#FFF" d="m180.526 64.435-.003 1.025-10.304-5.949.003-1.025z"/><path fill="#85CDFD" d="m141.425 68.971.014 4.664 15.654 9.097-.013-4.664z"/><path fill="#93D4FF" d="m157.08 78.068.013 4.664 15.759-9.099-.013-4.663z"/><path fill="#C2ECFF" d="m141.425 68.971 15.655 9.097 15.759-9.098-15.654-9.098z"/><path fill="#CFDEE8" d="m144.283 64.872.011 3.816 12.807 7.443-.01-3.816z"/><path fill="#E7F1F7" d="m157.091 72.315.01 3.816 12.894-7.444-.011-3.816z"/><path fill="#C5D4DD" d="m144.283 64.872 12.808 7.443 12.893-7.444-12.808-7.443z"/><path fill="#85CDFD" d="m141.425 59.522.014 4.663 15.654 9.098-.013-4.664z"/><path fill="#93D4FF" d="m157.08 68.619.013 4.664 15.759-9.099-.013-4.663z"/><path fill="#C2ECFF" d="m141.425 59.522 15.655 9.097 15.759-9.098-15.654-9.098z"/><path fill="#CFDEE8" d="m144.283 55.662.011 3.816 12.807 7.443-.01-3.816z"/><path fill="#E7F1F7" d="m157.091 63.105.01 3.816 12.894-7.444-.011-3.816z"/><path fill="#C5D4DD" d="m144.283 55.662 12.808 7.443 12.893-7.444-12.808-7.443z"/><path fill="#4C4C5E" d="m141.425 50.312.014 4.664 15.654 9.097-.013-4.664z"/><path fill="#616173" d="m157.08 59.409.013 4.664 15.759-9.099-.013-4.663z"/><path fill="#E7F1F7" d="m141.425 50.312 15.655 9.097 15.759-9.098-15.654-9.098z"/><path fill="#CFDEE8" d="m169.851 50.307-12.669-7.363-12.769 7.373 12.669 7.362z"/><path fill="#94ED96" d="m169.233 54.257.003 1.024 2.205-1.273-.003-1.024z"/><path fill="#FFF" d="m158.202 60.625.003 1.025 10.304-5.949-.002-1.025z"/><path fill="#EA3D5B" d="m169.233 63.575.003 1.024 2.205-1.273-.003-1.025z"/><path fill="#FFF" d="m158.202 69.943.003 1.025 10.304-5.949-.002-1.025z"/><path fill="#EA3D5B" d="m169.233 72.892.003 1.025 2.205-1.273-.003-1.025z"/><path fill="#FFF" d="m158.202 79.261.003 1.025 10.304-5.949-.002-1.025z"/><path fill="#94ED96" d="m144.347 54.024-.003 1.025-2.205-1.273.003-1.025z"/><path fill="#FFF" d="m155.378 60.392-.003 1.025-10.304-5.949.003-1.025z"/><path fill="#EA3D5B" d="m144.347 63.342-.003 1.024-2.205-1.273.003-1.024z"/><path fill="#FFF" d="m155.378 69.71-.003 1.025-10.304-5.949.003-1.025z"/><path fill="#EA3D5B" d="m144.347 72.66-.003 1.024-2.205-1.273.003-1.025z"/><path fill="#FFF" d="m155.378 79.028-.003 1.025-10.304-5.949.003-1.025z"/><path fill="#85CDFD" d="m33.427 54.378-.013 4.663-15.655 9.098.014-4.664z"/><path fill="#93D4FF" d="m17.773 63.475-.014 4.664L2 59.04l.013-4.664z"/><path fill="#C2ECFF" d="m33.427 54.378-15.654 9.097-15.76-9.099 15.655-9.097z"/><path fill="#CFDEE8" d="m30.57 50.279-.011 3.815-12.808 7.443.011-3.815z"/><path fill="#E7F1F7" d="m17.762 57.722-.011 3.815-12.894-7.444.011-3.815z"/><path fill="#C5D4DD" d="m30.57 50.279-12.808 7.443-12.894-7.444 12.808-7.443z"/><path fill="#85CDFD" d="m33.427 44.929-.013 4.663-15.655 9.098.014-4.664z"/><path fill="#93D4FF" d="m17.773 54.026-.014 4.664L2 49.591l.013-4.664z"/><path fill="#C2ECFF" d="m33.427 44.929-15.654 9.097-15.76-9.099 15.655-9.097z"/><path fill="#CFDEE8" d="m30.57 41.069-.011 3.816-12.808 7.443.011-3.816z"/><path fill="#E7F1F7" d="m17.762 48.512-.011 3.816-12.894-7.444.011-3.816z"/><path fill="#C5D4DD" d="m30.57 41.069-12.808 7.443-12.894-7.444 12.808-7.443z"/><path fill="#4C4C5E" d="m33.427 35.719-.013 4.663-15.655 9.098.014-4.664z"/><path fill="#616173" d="m17.773 44.816-.014 4.664L2 40.381l.013-4.663z"/><path fill="#E7F1F7" d="m33.427 35.719-15.654 9.097-15.76-9.098 15.655-9.098z"/><path fill="#CFDEE8" d="m5.001 35.713 12.669-7.362 12.769 7.372-12.669 7.362z"/><path fill="#94ED96" d="m5.619 39.663-.003 1.025-2.205-1.273.003-1.025z"/><path fill="#FFF" d="m16.65 46.032-.003 1.025-10.304-5.949.003-1.025z"/><path fill="#EA3D5B" d="m5.619 48.981-.003 1.025-2.205-1.273.003-1.025z"/><path fill="#FFF" d="m16.65 55.35-.003 1.025-10.304-5.949.003-1.025z"/><path fill="#EA3D5B" d="m5.619 58.299-.003 1.025-2.205-1.273.003-1.025z"/><path fill="#FFF" d="m16.65 64.668-.003 1.024-10.304-5.949.003-1.024z"/><path fill="#94ED96" d="m30.505 39.431.003 1.024 2.205-1.273-.003-1.024z"/><path fill="#FFF" d="m19.475 45.799.002 1.025 10.304-5.949-.002-1.025z"/><path fill="#EA3D5B" d="m30.505 48.748.003 1.025 2.205-1.273-.003-1.025z"/><path fill="#FFF" d="m19.475 55.117.002 1.025 10.304-5.949-.002-1.025z"/><path fill="#EA3D5B" d="m30.505 58.066.003 1.025 2.205-1.273-.003-1.025z"/><path fill="#FFF" d="m19.475 64.435.002 1.025 10.304-5.949-.002-1.025z"/><path fill="#85CDFD" d="m58.575 68.971-.013 4.664-15.655 9.097.013-4.664z"/><path fill="#93D4FF" d="m42.92 78.068-.013 4.664-15.759-9.099.013-4.663z"/><path fill="#C2ECFF" d="M58.575 68.971 42.92 78.068 27.161 68.97l15.655-9.098z"/><path fill="#CFDEE8" d="m55.717 64.872-.01 3.816-12.808 7.443.011-3.816z"/><path fill="#E7F1F7" d="m42.91 72.315-.011 3.816-12.894-7.444.011-3.816z"/><path fill="#C5D4DD" d="M55.717 64.872 42.91 72.315l-12.894-7.444 12.808-7.443z"/><path fill="#85CDFD" d="m58.575 59.522-.013 4.663-15.655 9.098.013-4.664z"/><path fill="#93D4FF" d="m42.92 68.619-.013 4.664-15.759-9.099.013-4.663z"/><path fill="#C2ECFF" d="M58.575 59.522 42.92 68.619l-15.759-9.098 15.655-9.098z"/><path fill="#CFDEE8" d="m55.717 55.662-.01 3.816-12.808 7.443.011-3.816z"/><path fill="#E7F1F7" d="m42.91 63.105-.011 3.816-12.894-7.444.011-3.816z"/><path fill="#C5D4DD" d="M55.717 55.662 42.91 63.105l-12.894-7.444 12.808-7.443z"/><path fill="#85CDFD" d="m58.575 50.312-.013 4.664-15.655 9.097.013-4.664z"/><path fill="#93D4FF" d="m42.92 59.409-.013 4.664-15.759-9.099.013-4.663z"/><path fill="#E7F1F7" d="M58.575 50.312 42.92 59.409l-15.759-9.098 15.655-9.098z"/><path fill="#CFDEE8" d="m30.149 50.307 12.669-7.363 12.769 7.373-12.669 7.362z"/><path fill="#94ED96" d="m30.767 54.257-.003 1.024-2.205-1.273.003-1.024z"/><path fill="#FFF" d="m41.798 60.625-.003 1.025-10.304-5.949.003-1.025z"/><path fill="#EA3D5B" d="m30.767 63.575-.003 1.024-2.205-1.273.003-1.025z"/><path fill="#FFF" d="m41.798 69.943-.003 1.025-10.304-5.949.003-1.025z"/><path fill="#EA3D5B" d="m30.767 72.892-.003 1.025-2.205-1.273.003-1.025z"/><path fill="#FFF" d="m41.798 79.261-.003 1.025-10.304-5.949.003-1.025z"/><path fill="#94ED96" d="m55.653 54.024.003 1.025 2.205-1.273-.003-1.025z"/><path fill="#FFF" d="m44.622 60.392.003 1.025 10.304-5.949-.003-1.025z"/><path fill="#EA3D5B" d="m55.653 63.342.003 1.024 2.205-1.273-.003-1.024z"/><path fill="#FFF" d="m44.622 69.71.003 1.025 10.304-5.949-.003-1.025z"/><path fill="#EA3D5B" d="m55.653 72.66.003 1.024 2.205-1.273-.003-1.025z"/><path fill="#FFF" d="m44.622 79.028.003 1.025 10.304-5.949-.003-1.025z"/><path fill="#FED0B5" d="M58.623 30.85s1.008-.992 1.514-1.204c.5-.214 1.657-.532 2.265-.79.607-.262 1.551-1.816 1.735-2.737.18-.916-.432-2.567-.965-2.348-.33.138-.551.87-.825 1.557-.311.781-1.065 1.317-1.906 1.292a.427.427 0 0 1-.104-.012c-.133-.043.32-1.192.569-1.53.25-.34.29-1.232-.102-1.268-.393-.036-.626.83-1.28 1.553-.256.284-.472.755-.645 1.239-.367 1.03-1.103 1.866-2.035 2.442-.07.041-.138.087-.205.136-.688.5 1.984 1.67 1.984 1.67z"/><path fill="#E22951" d="M34.257 40.312s-5.69 3.657-3.569 6.055 14.5-3.38 14.881-3.732 12.625-8.789 13.418-12.074l-1.907-1.755s-8.87 7.328-11.545 8.606-11.278 2.9-11.278 2.9z"/><path fill="#2A2A38" d="M31.535 110.72s-1.525 1.22-1.438 2.18c.087.958.218 2.048.305 2.353s.022 4.335.218 4.379c.196.044.48 0 .48 0s.174-3.464.435-3.53c.262-.065.72 3.742.959 4.246s4.118 3.467 5.425 2.509-2.702-6.537-3.225-7.452c-.522-.915-2.963-5.033-3.159-4.684z"/><path fill="#F2C0A7" d="M36.964 96c-.283 2.125-1.563 10.007-1.563 13.012 0 3.001.724 8.81 1.465 9.875.265.774-1.947 1.057-2.266.654-.246-.31-.935-1.043-1.448-1.861a4.542 4.542 0 0 1-.494-1.1c-.432-1.427-1.375-3.567-1.298-4.925.08-1.483.359.239.638-2.643.283-2.88-1.518-12.051-1.518-15.171 0-3.125 6.16-6.126 7.002-6.006.84.12.92 2.247.8 2.642 0 0-1.04 3.403-1.318 5.524z"/><path fill="#2A2A38" d="M23.837 112.297s-1.708 1.249-1.873 2.661c-.164 1.413-.23 5.783-.624 6.965-.394 1.183.427 2.432.821 2.891.395.46 2.234 1.972 2.826 1.972.591 0 1.478-.099 1.61-1.282.131-1.182-.165-4.796-.427-8.443-.263-3.647.032-4.632-2.333-4.764z"/><path fill="#FED0B5" d="M26.038 93.866s-1.938 2.168-2.431 6.177c-.493 4.008-.197 10.119-.46 11.433s-.591 2.07-.723 2.595c-.131.526-.436 8.02.024 8.776.422.944 3.487 1.222 3.684.565.197-.657-.357-5.365-.357-7.172 0-1.807.986-7.13 1.873-9.134.887-2.004 3.023-9.232 3.647-10.776.624-1.544.723-2.595.361-3.45-.361-.854-5.454-1.018-5.618.986z"/><path fill="#4C4C5E" d="M22.35 69.664s-.07.1-.17.302c-.34.679-1.013 2.5-.453 5.462.727 3.843 3.48 13.918 3.376 17.19-.104 3.272 6.388 2.39 8.465 1.558 2.078-.83 4.57-1.454 5.142-4.31.571-2.857.311-20.566-.416-22.228-.727-1.662-16.014 2.126-16.014 2.126"/><path fill="#EA3D5B" d="M38.877 70.264c.012.39-.171.76-.49.988a96.677 96.677 0 0 1-4.216 2.826c-.22.14-.439.27-.646.398-7.68 4.675-8.556 2.682-10.66 1.722-2.52-1.148-1.467-3.782-1.316-5.906.124-1.718 5.093-6.345 3.778-10.557a5.069 5.069 0 0 0-.713-1.423c-1.379-1.937-2.375-4.204-3.053-6.309-.904-2.821-1.231-5.348-1.104-6.384.088-.713.98-1.526 2.029-2.24a14.6 14.6 0 0 1 .785-.506 24.462 24.462 0 0 1 1.574-.88c.088-.048.171-.088.251-.128.175-.092.335-.171.47-.235.044-.02.084-.036.12-.056.02-.012.04-.02.06-.028.064-.032.115-.06.16-.08.382-.187 2.028-.96 3.81-1.653.43-.168.868-.331 1.298-.479 1.905-.661 4.192 1.498 5.167 3.569.058.172.129.34.21.502 3.413 6.761.851 7.42.414 7.893a.356.356 0 0 0-.048.068c-.06.131-.08.869-.076 1.869.01 1.98.107 4.999.158 6.441.018.508.146 1 .36 1.462 1.326 2.87 1.615 7.462 1.678 9.126z"/><path fill="#E22951" d="M36.757 51.366c-.06.131-.08.869-.076 1.869-1.685.482-3.75 1.128-5.216 1.79-2.12.944-4.524 2.833-6.138 4.71a5.069 5.069 0 0 0-.713-1.423c-1.379-1.937-2.375-4.204-3.053-6.309.94 1.4 3.388 3.667 4.914 3.105 3.296-1.212 8.413-3.679 10.33-3.81a.356.356 0 0 0-.048.068z"/><path fill="#E7F1F7" d="m34.537 73.711-.366.367-.658.653.012-.255c.08-1.897.518-13.9-1.032-17.567-.327-.769-.55-1.415-.753-2.004-.2-.59-.375-1.124-.606-1.686-.737-1.793-2.02-3.814-6.353-8.465-.063-.068-.988-.757-1.51-1.88a28.37 28.37 0 0 1 2.415-1.3l.22-.108c.382-.187 2.028-.96 3.81-1.653.278.37.557.792.836 1.267 3.065 5.26 2.264 8.608 2.674 10.955.016.088.032.196.048.32.064.433.135 1.08.22 1.88.505 5.01 1.294 16.085 1.043 19.476z"/><path fill="#DCE8F1" d="M33.493 54.235c-.622.215-1.223.438-1.753.67-.2-.59-.375-1.124-.606-1.686.733-.303 1.454-.602 2.14-.865.064.434.135 1.08.22 1.881z"/><path fill="#FD546B" d="M24.925 48.472s.335-1.35.335-1.367c-.024.064-1.347.208-1.347.208s-.993-.144-1.363-3.12a8.959 8.959 0 0 1-.064-.814 14.6 14.6 0 0 1 .785-.506c.522 1.124 1.447 1.813 1.51 1.881 3.846 4.129 5.289 6.181 6.082 7.847l-5.938-4.129zm8.548 3.755a.807.807 0 0 1-.183.243c-.004-.04-.012-.08-.016-.116a6.462 6.462 0 0 0-.048-.319c-.41-2.347.39-5.695-2.674-10.955a13.437 13.437 0 0 0-.837-1.267c.43-.168.869-.331 1.3-.479.637.482 1.302 1.132 1.98 2.005l-.925.813 1.208.673s1.375 7.126.195 9.402z"/><path fill="#F2C0A7" d="M31.459 40.012c-.287 1.347-.57 2.694-.857 4.045-.06.287-.128.59-.323.813-.207.243-2.682.37-3.682-.14-1.607-.817-2.491-2.311-1.97-3.331.033-.06.192-2.368.375-3.452.04-.223.08-.45.188-.653.103-.203.279-.379.498-.435.259-.06.526.052.765.16 1.51.681 3.017 1.363 4.523 2.044.184.084.383.18.475.363.087.18.047.39.008.586z"/><path fill="#FED0B5" d="M24.396 28.87a15.545 15.545 0 0 0-1.11 5.08c-.089 1.904.194 3.872 1.143 5.526.948 1.655 2.635 2.95 4.535 3.114.832.072 1.708-.084 2.387-.57.992-.711 1.401-1.977 1.649-3.173a22.03 22.03 0 0 0 .446-3.77c.032-1.025-.013-2.08-.43-3.016-.68-1.53-2.269-2.502-3.903-2.866-1.635-.365-3.335-.215-5.002-.062"/><path fill="#7F5341" d="M27.006 44.588s-5.266-1.032-5.672-8.14c-.405-7.108 4.162-10.534 8.103-9.318s4.53 3.351 4.899 5.082c.368 1.731.295 4.788 0 5.157-.295.368-3.315 6.777-4.64 6.408 0 0-.038-1.988.441-2.836 0 0 1.694.663 2.136-.331.442-.995 1.148-3.652 1.037-4.388-.11-.737.068-.879.068-1.247 0-.369.098-.922-.123-1.4-.22-.48-4.886-1.768-4.886-2.615s-4.125 8.619-1.363 13.628z"/><path fill="#FED0B5" d="M27.946 68.91s1.129.853 1.411 1.322c.285.464.769 1.562 1.112 2.126.348.562 2.023 1.27 2.96 1.318.933.046 2.477-.8 2.183-1.297-.185-.305-.942-.418-1.66-.588-.819-.195-1.458-.863-1.556-1.698a.428.428 0 0 1-.004-.105c.023-.138 1.226.142 1.597.34.372.197 1.26.109 1.24-.285-.022-.394-.913-.5-1.723-1.04-.319-.213-.816-.357-1.32-.458-1.072-.213-2.007-.82-2.712-1.658a2.559 2.559 0 0 0-.165-.183c-.595-.608-1.363 2.205-1.363 2.205z"/><path fill="#FD546B" d="M21.029 44.588s-2.248 1.264-2.566 4.371c-.317 3.107-.735 12.555-.1 13.896.636 1.342 10.91 7.803 10.91 7.803s.918-3.107 1.765-3.072l-8.544-6.496s3.143-15.372-1.465-16.502z"/><path fill="#4C4C5E" d="M32.884 38.118a2.559 2.559 0 0 0-.685.584c-.25.304-.42.632-.51.974-.273 1.045-.176 3.295-.098 3.588.072.284.424.835 2.098-.132.102-.059.21-.124.324-.198.024-.013.125-.067.267-.148.562-.325.805-.521.86-.588.06-.07.096-.121.14-.187.096-.143.219-.326.485-.48.049-.028.107-.059.174-.087l.044-.017c.02-.015.1-.06.148-.091l.144-.08.046-.03c.088-.064.146-.1.197-.13.266-.153.387-.11.486-.08a.37.37 0 0 0 .137.027c.056.003.3-.082.862-.407.144-.083.245-.147.248-.148.134-.07.24-.129.345-.189 1.672-.965 2.017-1.918 2.09-2.286.075-.371.157-2.745-.117-3.464a.555.555 0 0 0-.513-.383c-.195-.01-.431.06-.686.207l-6.486 3.745z"/><path fill="#E7F1F7" d="M25.46 40.068a.678.678 0 0 0 .309.424l5.879 3.417a.678.678 0 0 1-.309-.425c-.08-.308-.188-2.633.106-3.768.13-.5.384-.906.627-1.2.247-.297.53-.53.812-.693 2.174-.777 4.335-2.057 6.485-3.746.283-.163.562-.254.812-.24a.746.746 0 0 1 .323.091l-5.879-3.416a.698.698 0 0 0-.323-.09c-.25-.015-.53.075-.812.239-1.802 1.567-3.996 2.787-6.484 3.746a3.04 3.04 0 0 0-.813.693c-.243.293-.497.7-.627 1.2-.294 1.135-.185 3.46-.105 3.768z"/><path fill="#4C4C5E" d="M27.34 41.15a.678.678 0 0 0 .308.425l1.803 1.062a.678.678 0 0 1-.308-.424c-.08-.309-.189-2.633.105-3.768.13-.5.385-.907.628-1.2.246-.298.53-.53.812-.693 2.172-.777 4.334-2.057 6.484-3.747.283-.163.563-.254.813-.24a.75.75 0 0 1 .323.091l-1.803-1.062a.702.702 0 0 0-.323-.09c-.25-.015-.53.076-.812.239-1.803 1.567-3.997 2.785-6.485 3.746a3.042 3.042 0 0 0-.812.693c-.243.294-.497.7-.628 1.2-.293 1.136-.185 3.46-.105 3.768z"/><path fill="#616173" d="M32.073 38.516c.245-.298.528-.53.81-.694 2.125-.84 4.29-2.117 6.486-3.744.283-.163.563-.256.811-.242.241.015.497.126.632.474.3.79.204 3.233.122 3.635-.074.378-.413 1.538-2.334 2.646a9.175 9.175 0 0 1-.34.187c-.005.003-.11.068-.266.159-.309.178-.795.441-.972.439-.227-.005-.234-.14-.505.017-.042.024-.09.055-.147.095-.007.006-.015.016-.094.062a5.413 5.413 0 0 1-.098.055l-.037.021-.13.08c-.081.046-.09.043-.1.047-.056.026-.105.05-.147.075-.271.157-.274.296-.504.565-.174.205-.66.503-.967.68-.157.09-.262.147-.267.15a9.879 9.879 0 0 1-.34.206c-1.922 1.11-2.268.345-2.345.054-.08-.308-.19-2.632.105-3.765a3.16 3.16 0 0 1 .627-1.202zm-.482 4.748c.072.284.424.835 2.098-.132.102-.059.21-.124.324-.198.024-.013.125-.067.267-.148.562-.325.805-.521.86-.588.06-.07.096-.121.14-.187.096-.143.219-.326.485-.48.049-.028.107-.059.195-.099l.039-.017c.005-.003.083-.048.132-.079l.144-.08.046-.03c.088-.064.146-.1.197-.13.266-.153.387-.11.486-.08a.37.37 0 0 0 .137.027c.056.003.3-.082.862-.407.144-.083.245-.147.248-.148.134-.07.24-.129.345-.189 1.672-.965 2.017-1.918 2.09-2.286.075-.371.157-2.745-.117-3.464a.555.555 0 0 0-.513-.383c-.195-.01-.431.06-.686.207-2.149 1.72-4.31 2.973-6.486 3.745a2.56 2.56 0 0 0-.685.584c-.25.304-.42.632-.51.974-.273 1.045-.176 3.295-.098 3.588"/><path fill="#363A44" d="M36.95 36.625a.319.319 0 0 0-.055.042c-.225.207-.458.38-.69.515-.234.134-.466.23-.692.283a.215.215 0 0 0-.055.023.398.398 0 0 0-.171.226c-.035.121.023.208.13.183.257-.06.523-.17.789-.323.265-.154.53-.35.787-.587.108-.1.165-.252.13-.333-.028-.064-.098-.071-.172-.029z"/><path fill="#4C4C5E" d="m27.153 38.81.005 1.774.194-.113-.005-1.774zM23.409 38.388c-1.22-.709-1.928-1.603-2.09-2.532-.024-.534 0-1.045.046-1.522.267.848.929 1.638 2.032 2.288l.012 1.766z"/><path fill="#4C4C5E" d="m23.403 36.616.005 1.774 3.75 2.194-.005-1.774z"/><path fill="#616173" d="m21.417 33.86-.052.468c.25.838.926 1.642 2.038 2.289l3.75 2.193.194-.113-3.75-2.193c-1.058-.615-1.726-1.273-2.18-2.644z"/><path fill="#B4C4CC" d="m27.441 41.276.241-.146.007-2.628-.241.147z"/><path fill="#FFF" d="m27.448 38.649.241-.147-.619-.357-.241.146z"/><path fill="#CFDEE8" d="m26.829 38.291-.008 2.628.62.357.007-2.627z"/></svg>