<svg xmlns="http://www.w3.org/2000/svg" viewBox="0 0 200 200"><path fill="#FED0B5" d="M73.109 72.136c-.584.186-1.233.064-1.662-.384a.344.344 0 0 1-.054-.067c-.052-.1.861-.505 1.197-.559.163-.026.37-.155.519-.308v-.552c-.283-.053-.823.202-1.477.24-.31.018-.701.167-1.076.348-.796.385-1.696.45-2.56.252a2.13 2.13 0 0 0-.196-.038c-.681-.102.195 2.09.195 2.09s1.145 0 1.557.166c.41.16 1.258.634 1.755.83.347.135 1.138 0 1.802-.236v-1.782z"/><path fill="#DCE8F1" d="m165.014 146.796-63.599-36.96c7.428-4.288 13.448-14.716 13.424-23.25l63.6 36.959c.023 8.535-5.997 18.963-13.425 23.251z"/><path fill="#DCE8F1" d="m178.438 123.545-63.599-36.96-.104-36.674 63.599 36.959z"/><path fill="#E7F1F7" d="m178.334 86.87-63.599-36.96c-.013-4.47 3.143-9.928 7.027-12.17l63.6 36.959c-3.885 2.243-7.04 7.7-7.028 12.171zM77.695 197.21l-63.599-36.96 87.319-50.413 63.599 36.959z"/><path fill="#C5D4DD" d="m77.698 198-63.599-36.96-.003-.79 63.599 36.96z"/><path fill="#C5D4DD" d="m185.361 74.699.002.79c-3.506 2.025-6.353 6.948-6.341 10.984l.104 36.675c.025 8.97-6.304 19.932-14.11 24.439L77.698 198l-.003-.79 87.32-50.414c7.427-4.288 13.447-14.716 13.423-23.251l-.104-36.675c-.013-4.47 3.143-9.928 7.027-12.171z"/><path fill="#E22951" d="M46.196 63.522s-.783-7.163 2.537-4.588c3.32 2.574 8.805 10.408 8.805 10.408l10.52 1.231.224 2.948s-10.19.65-11.976-.56c-2.246-1.524-10.51-9.357-10.11-9.439z"/><path fill="#2A2A38" d="M45.855 120.028s-1.336 1.068-1.26 1.908c.077.84.191 1.793.268 2.06.076.267.019 3.797.19 3.835.172.038.42 0 .42 0s.153-3.034.382-3.09.63 3.276.84 3.717c.21.441 3.605 3.036 4.75 2.196 1.144-.84-2.366-5.723-2.824-6.524-.458-.802-2.594-4.407-2.766-4.102z"/><path fill="#F2C0A7" d="M50.608 107.139c-.248 1.86-1.368 8.762-1.368 11.393 0 2.628.634 7.714 1.282 8.647.233.677-1.704.925-1.983.572-.216-.272-.82-.913-1.268-1.63-.188-.3-.33-.624-.433-.963-.378-1.25-1.204-3.123-1.136-4.312.07-1.299.314.209.558-2.314.248-2.523-1.33-10.552-1.33-13.285 0-2.735 5.395-5.363 6.132-5.258.736.104.806 1.968.701 2.313 0 0-.91 2.98-1.155 4.837z"/><path fill="#2A2A38" d="M39.114 121.408s-1.496 1.093-1.64 2.33c-.143 1.237-.2 5.063-.546 6.099-.345 1.036.374 2.129.72 2.532s1.955 1.726 2.473 1.726 1.295-.087 1.41-1.122c.115-1.036-.144-4.2-.374-7.394-.23-3.193.028-4.056-2.043-4.17z"/><path fill="#FED0B5" d="M41.042 105.27s-1.698 1.898-2.13 5.408c-.43 3.51-.172 8.86-.402 10.011s-.518 1.812-.633 2.273c-.115.46-.382 7.022.02 7.684.371.826 3.054 1.07 3.227.495s-.312-4.699-.312-6.28c0-1.583.863-6.243 1.64-7.998.776-1.755 2.646-8.084 3.192-9.436s.633-2.272.317-3.02c-.317-.748-4.776-.892-4.92.863z"/><path fill="#4C4C5E" d="M37.813 84.078s-.062.088-.15.265c-.297.594-.887 2.188-.396 4.782.637 3.366 3.047 12.187 2.956 15.052-.091 2.865 5.593 2.092 7.412 1.364 1.819-.727 4.002-1.273 4.502-3.774.5-2.5.273-18.007-.364-19.463-.636-1.455-14.022 1.862-14.022 1.862"/><path fill="#EA3D5B" d="M52.284 84.603c.01.342-.15.667-.43.866a84.651 84.651 0 0 1-3.692 2.474c-.191.122-.383.237-.565.349-6.724 4.093-7.492 2.348-9.334 1.507-2.206-1.005-1.284-3.311-1.152-5.171.108-1.504 4.46-5.555 3.308-9.244a4.438 4.438 0 0 0-.624-1.246c-1.208-1.696-2.08-3.681-2.673-5.524-.792-2.47-1.079-4.682-.967-5.59.077-.624.858-1.336 1.776-1.96.224-.154.454-.304.688-.444.485-.297.97-.562 1.378-.771.077-.042.15-.077.22-.112.153-.08.293-.15.412-.206.038-.017.073-.031.104-.049.018-.01.035-.017.053-.024.055-.028.1-.052.14-.07a50.369 50.369 0 0 1 3.335-1.448c.377-.147.76-.29 1.138-.419 1.668-.579 3.67 1.312 4.524 3.125.05.151.113.298.184.44 2.988 5.92.745 6.497.362 6.91a.311.311 0 0 0-.042.06c-.052.115-.07.76-.066 1.637.008 1.734.093 4.377.138 5.64.015.445.128.875.314 1.28 1.162 2.512 1.416 6.534 1.47 7.99z"/><path fill="#E22951" d="M50.427 68.056c-.052.115-.07.76-.066 1.637-1.476.422-3.284.987-4.568 1.567-1.856.826-3.96 2.48-5.374 4.124a4.438 4.438 0 0 0-.624-1.246c-1.208-1.696-2.08-3.681-2.673-5.524.823 1.225 2.966 3.21 4.302 2.719 2.886-1.061 7.367-3.221 9.045-3.336a.311.311 0 0 0-.042.06z"/><path fill="#E7F1F7" d="m48.483 87.622-.32.32-.576.573.01-.223c.07-1.661.454-12.172-.904-15.382a25.363 25.363 0 0 1-.66-1.755c-.174-.517-.327-.984-.53-1.476-.645-1.57-1.769-3.34-5.562-7.412-.056-.06-.865-.663-1.322-1.647a24.84 24.84 0 0 1 2.114-1.138l.192-.094a50.369 50.369 0 0 1 3.336-1.448c.244.325.489.694.733 1.11 2.683 4.606 1.982 7.537 2.341 9.592.014.077.028.171.042.28.056.38.119.945.192 1.647.443 4.386 1.134 14.083.914 17.053z"/><path fill="#DCE8F1" d="M47.57 70.569c-.545.188-1.072.383-1.536.586-.175-.517-.328-.984-.53-1.476.642-.265 1.273-.527 1.873-.757.056.38.119.945.192 1.647z"/><path fill="#FD546B" d="M40.067 65.523s.293-1.183.293-1.197c-.021.056-1.18.181-1.18.181s-.868-.125-1.193-2.732a7.843 7.843 0 0 1-.056-.712c.224-.153.454-.303.688-.443.457.984 1.266 1.588 1.322 1.647 3.368 3.615 4.63 5.412 5.325 6.87l-5.2-3.614zm7.485 3.287a.707.707 0 0 1-.16.213c-.004-.035-.011-.07-.015-.101a5.649 5.649 0 0 0-.042-.28c-.359-2.055.342-4.986-2.341-9.592a11.766 11.766 0 0 0-.733-1.11c.377-.147.76-.29 1.138-.419.558.422 1.14.991 1.734 1.755l-.81.712 1.058.59s1.204 6.24.17 8.232z"/><path fill="#F2C0A7" d="M45.788 58.115c-.251 1.179-.5 2.358-.75 3.541-.053.252-.112.517-.283.712-.182.213-2.349.325-3.224-.122-1.407-.715-2.181-2.024-1.724-2.917.028-.053.167-2.073.328-3.022.035-.195.07-.394.164-.572.09-.178.244-.332.436-.38.227-.053.46.045.67.139 1.323.597 2.642 1.193 3.96 1.79.161.073.336.157.416.318.077.157.042.342.007.513z"/><path fill="#FED0B5" d="M39.604 48.359c-.57 1.413-.9 2.924-.972 4.447-.078 1.668.17 3.391 1 4.84.83 1.448 2.308 2.583 3.971 2.726.73.063 1.496-.073 2.09-.5.87-.622 1.228-1.73 1.444-2.777a19.29 19.29 0 0 0 .391-3.302c.028-.896-.012-1.821-.376-2.64-.596-1.34-1.987-2.19-3.418-2.51-1.431-.32-2.92-.188-4.38-.054"/><path fill="#7F5341" d="M41.89 62.121s-4.612-.903-4.967-7.127c-.355-6.224 3.644-9.223 7.095-8.16 3.45 1.065 3.967 2.936 4.29 4.451.322 1.516.257 4.193 0 4.515s-2.903 5.934-4.064 5.612c0 0-.032-1.742.387-2.483 0 0 1.483.58 1.87-.29s1.005-3.198.908-3.843c-.097-.645.06-.77.06-1.092 0-.322.085-.807-.108-1.226s-4.278-1.547-4.278-2.29-3.612 7.547-1.193 11.933z"/><path fill="#FED0B5" d="M42.712 83.418s.988.747 1.236 1.158c.249.406.673 1.368.974 1.861.304.493 1.77 1.113 2.591 1.154.817.04 2.17-.701 1.911-1.135-.161-.268-.824-.366-1.453-.516-.717-.17-1.277-.755-1.362-1.486a.374.374 0 0 1-.004-.092c.02-.12 1.074.125 1.399.298.325.173 1.103.095 1.085-.25-.019-.345-.8-.437-1.508-.91-.28-.187-.715-.314-1.156-.402-.939-.186-1.757-.717-2.375-1.451a2.239 2.239 0 0 0-.144-.16c-.521-.533-1.194 1.93-1.194 1.93z"/><path fill="#FD546B" d="M36.655 62.121s-1.968 1.108-2.246 3.828c-.278 2.72-.644 10.993-.088 12.168.557 1.174 9.553 6.832 9.553 6.832s.804-2.72 1.546-2.69l-7.482-5.688s2.753-13.46-1.283-14.45z"/><path fill="#474756" d="M67.673 85.414a5.679 5.679 0 0 1-5.672-5.672v-4.366h2.144v4.366a3.532 3.532 0 0 0 3.528 3.528 3.532 3.532 0 0 0 3.528-3.528V29.164h2.144v50.578a5.679 5.679 0 0 1-5.672 5.672z"/><path fill="#FFC950" d="M109.93 32.961a.91.91 0 0 0 .059.204c-.233.058-.466.087-.67.174-9.886 2.268-19.016 10.178-20.993 11.95a5.609 5.609 0 0 1-.407.38c-18.988-2.356-30.648-.088-31.113 0h-.03C43.286 34.181 34.882 33.251 34.882 33.251c.03-.145.087-.291.117-.437 2.326-8.257-.117-17.417-.117-17.417 3.606-.436 21.721-12.765 21.721-12.765 6.63-1.425 31.23 0 31.23 0l.029.03c.145.174.349.348.523.523 2.937 2.704 10.148 6.571 15.44 9.217a213.688 213.688 0 0 0 6.106 2.966c.03.029.059.029.059.029-2.53 5.467-.466 15.673-.059 17.476v.087z"/><path fill="#EA3D5B" d="m109.989 32.932-.059.029-.61.378c-9.887 2.268-19.017 10.178-20.994 11.95-1.105-3.372-10.512-28.916-15.63-34.936 0 0 19.032 5.045 37.234 22.52l.059.059zM72.697 10.353c-5.118 6.02-14.467 31.011-15.891 35.315h-.03C43.286 34.182 34.882 33.252 34.882 33.252c.03-.145.087-.291.117-.437C53.49 15.224 72.697 10.353 72.697 10.353zm31.127 2.05a213.688 213.688 0 0 0 6.106 2.966c-1.744-.378-23.436-4.798-37.248-5.03 0 0 11.486-7.153 15.179-7.677.145.175.349.349.523.524 2.937 2.704 10.148 6.571 15.44 9.217z"/><path fill="#EA3D5B" d="M41.59 12.05c-3.228 1.629-5.764 3.145-6.142 3.319 1.745-.378 23.437-4.798 37.249-5.03 0 0-12.402-7.183-16.095-7.706-.145.175-.349.349-.523.523-4.587 2.532-9.198 6.248-14.49 8.895z"/><path fill="#616173" d="M63.824 74.934c.426.246.428.637.017.875-.422.246-1.096.246-1.522 0-.413-.238-.415-.629.007-.875.41-.238 1.085-.238 1.498 0z"/><path fill="#C5D4DD" d="M102.684 87.146a25.585 25.585 0 0 1-2.065 9.028 25.34 25.34 0 0 1-1.537 3c-1.744 2.91-5.972 2.91-7.717 0a25.518 25.518 0 0 1-3.602-12.028h14.921z"/><path fill="#E7F1F7" d="M100.482 83.822c2.923 1.687 2.938 4.423.034 6.11-2.903 1.688-7.628 1.688-10.55 0-2.924-1.687-2.938-4.423-.035-6.11 2.904-1.688 7.627-1.688 10.55 0z"/><path fill="#CFDEE8" d="M100.186 83.993c-2.759-1.593-7.217-1.592-9.957 0-1.739 1.011-2.37 2.42-1.892 3.721.271-.74.902-1.445 1.892-2.02 2.74-1.592 7.198-1.593 9.957 0 1.009.582 1.65 1.297 1.925 2.047.48-1.31-.163-2.73-1.925-3.748z"/><path fill="#AA6B5F" d="M100.186 85.694c-2.759-1.593-7.217-1.592-9.957 0-.99.575-1.62 1.28-1.892 2.02.274.75.916 1.465 1.924 2.047 2.759 1.593 7.217 1.593 9.958 0 .99-.575 1.62-1.28 1.892-2.02-.275-.75-.916-1.465-1.925-2.047z"/><path fill="#94ED96" d="M81.722 67.242c-.246-.423-.705-1.33-.582-1.347.122-.016 2.58 1.126 2.873.885.292-.24 1.007-.44.581-.917-.426-.478-1.075-.384-1.49-.23s-1.124.4-2.045-.33c0 0 .193-1.308.312-1.389 0 0 1.572 1.666 2.288.893.716-.774-1.179-.942-1.354-.95-.176-.008-.782-.253-.803-.422-.02-.169.307-1.148.09-1.29 0 0 .615.153 1.21-.233.594-.388 1.15-.556 1.632.196.483.753.07 1.548.576 1.792.505.244.875-.415.715-.858-.161-.442-.673-1.56-1.357-1.96 0 0 1.158-.997 2.081.024.924 1.022-.157 1.927-.058 2.234.1.306.32 1.089.869.79.549-.298.834-1.597.737-1.653-.096-.056-1.638-.885-1.597-3.2 0 0 .942 1.187 1.393 1.306.453.119.855.093 1.132.76.278.668.06 2.79-.66 3.415 0 0 .27.945.875.633.606-.312 1.065-1.804.152-4.298 0 0 1.324.23 2.169 2.206.737 1.724-.751 3.308-2.031 3.504a1.557 1.557 0 0 1-.54-.008s-.272.039-.37.288c0 0 0 .005.003.014.023.104.132.793-.693 1.718-.884.993-2.5.814-2.546.808.033-.013 1.34-.496 1.624-.963.288-.473.49-1.112-.208-.809-.698.303-1.474 1.312-1.765 1.348-.291.037-1.123.382-2.517-1.11 0 0 2.28.02 2.672.003.39-.017 1.112-.559 1.008-.912-.105-.354-.47-.695-1.126-.444-.655.25-1.042.973-1.66.94-.618-.032-1.344-.011-1.59-.434z"/><path fill="#94ED96" d="M85.556 64.24c1.536 2.199 3.781 2.509 3.781 2.509l.093.054a1.557 1.557 0 0 1-.54-.008s-.272.039-.37.288c0 0 0 .005.003.014-2.453-1.04-2.967-2.858-2.967-2.858z"/><path fill="#7CDF82" d="M95.116 88.718a78.304 78.304 0 0 0-.525-13.724c-.285-2.276-.71-4.544-.965-6.84-.127-1.147-.21-2.3-.209-3.455.002-1.153.09-2.308.304-3.44a18.672 18.672 0 0 0-.185 3.439c.037 1.147.16 2.29.326 3.426.33 2.273.833 4.52 1.199 6.802a79.128 79.128 0 0 1 1.004 13.823c-.304.302-.622.242-.95-.031z"/><path fill="#75D178" d="m96.138 88.164-.715-13.425c-.117-2.235-.255-4.482-.176-6.73.04-1.124.134-2.247.315-3.356.18-1.108.45-2.203.83-3.257a18.134 18.134 0 0 0-.713 3.275 26.433 26.433 0 0 0-.195 3.341c.001 2.235.216 4.462.413 6.694l1.189 13.391c-.056.341-.854.28-.948.067zm-4.22-.665c.378-1.59.496-3.25.354-4.892a15.699 15.699 0 0 0-.405-2.441l-.076-.301c-.025-.1-.057-.199-.086-.298l-.088-.298c-.03-.1-.065-.197-.098-.295l-.099-.295-.11-.29-.112-.29-.12-.288c-.654-1.531-1.534-2.986-2.192-4.553-.327-.783-.594-1.595-.745-2.431-.15-.834-.178-1.696-.018-2.525-.12.836-.052 1.686.135 2.501.187.817.487 1.603.845 2.358.72 1.514 1.662 2.915 2.408 4.453l.137.29.129.294.128.294.117.3c.038.1.079.2.115.3l.106.304c.034.102.072.202.103.305l.094.308c.246.823.427 1.666.54 2.52a16.304 16.304 0 0 1-.132 5.168c-.387.119-.688.031-.93-.198zm2.435.5c.063-.564.094-1.133.097-1.705a19.712 19.712 0 0 0-.09-1.718 25.733 25.733 0 0 0-.237-1.716c-.101-.571-.22-1.14-.349-1.708-.522-2.272-1.251-4.514-1.789-6.817a37.261 37.261 0 0 1-.361-1.738 26.443 26.443 0 0 1-.25-1.76 20.085 20.085 0 0 1-.098-1.775 16.53 16.53 0 0 1 .101-1.775c.075-.589.178-1.173.323-1.747.152-.572.338-1.135.57-1.679.238-.54.516-1.063.84-1.556a9.487 9.487 0 0 1 1.124-1.359c-.401.43-.76.897-1.074 1.391-.305.5-.563 1.027-.78 1.57a12.234 12.234 0 0 0-.506 1.675c-.124.57-.207 1.148-.26 1.728a16.266 16.266 0 0 0-.04 1.746c.024.581.078 1.162.154 1.74.081.577.184 1.15.304 1.721.123.57.263 1.137.414 1.702.607 2.258 1.41 4.468 2.02 6.76.15.574.29 1.152.415 1.735.12.583.224 1.172.306 1.766.076.595.13 1.195.153 1.798.018.604.005 1.21-.042 1.816-.35.114-.674.12-.945-.095z"/><path fill="#75D178" d="M96.672 87.917c.18-2.262.379-4.52.588-6.778.21-2.257.434-4.513.68-6.768.246-2.253.51-4.506.827-6.752.158-1.122.33-2.243.535-3.36.104-.557.216-1.113.349-1.664.068-.276.138-.55.225-.821.02-.068.044-.135.068-.202l.035-.1.04-.099c.013-.033.025-.066.04-.099l.045-.096c.028-.065.068-.124.102-.186-.032.063-.07.123-.095.19l-.042.097-.037.1-.036.099-.031.101c-.021.068-.043.135-.06.203-.077.272-.138.549-.196.826a31.736 31.736 0 0 0-.29 1.671 82.218 82.218 0 0 0-.417 3.37 219.383 219.383 0 0 0-.59 6.766c-.166 2.258-.31 4.518-.441 6.778-.13 2.26-.25 4.523-.35 6.782-.358.252-.66.143-.949-.058z"/><path fill="#ACF9AC" d="M82.245 71.81c-.184.555-.383 1.682-.277 1.601.048-.037.494-.768 1.046-1.432.539-.672 1.182-1.278 1.317-1.254.276.037.923-.171.54.472-.368.64-.91.942-1.275 1.076-.35.128-1.023.39-1.567 1.7-.007.006.449.94.558.915-.07 0 .819-2.496 1.555-2.252.64.216-.784 1.497-.883 1.65-.13.121-.494.742-.456.894.03.152.523.692.436.947-.004 0 .339-.544.832-.61.494-.072.866-.247 1.058-1.104.213-.858-.183-1.3.195-1.77.396-.465.732-.082.639.355-.104.446-.329 1.588-.667 2.258.022-.008.931.166 1.412-1.022.554-1.202-.278-1.493-.233-1.786.06-.295.257-1.053.73-1.019.461.042.65 1.017.58 1.092-.082.048-1.333 1.388-.8 3.151-.024.002.39-1.3.73-1.556.313-.258.59-.365.794-.984.176-.609.211-2.287-.356-2.586-.011.002.384-.883.92-.784.583.105.476 1.219-.288 3.462.035-.005.884-.562 2.006-2.249 1.073-1.446.239-2.566-1.097-2.45a2.08 2.08 0 0 0-.56.135s-.27.041-.314-.14l.007-.012c.04-.092.353-.704-.293-1.253-.714-.62-2.617.218-2.651.272.037-.02 1.392-.15 1.589.169.203.308.28.775-.391.78-.671.012-1.34-.514-1.653-.4-.262.12-1.28.2-2.613 2.49-.026-.05 2.206-1.46 2.632-1.582.403-.185 1.068-.027.916.327-.15.354-.525.808-1.133.927-.61.126-.969-.294-1.561.115-.587.41-1.256.902-1.424 1.457z"/><path fill="#94ED96" d="M85.751 72.085c1.234-2.678 3.886-3.533 3.832-3.495l.11-.066a2.08 2.08 0 0 0-.559.136s-.27.041-.314-.14l.007-.012c-2.82 1.642-3.059 3.635-3.076 3.577z"/><path fill="#ACF9AC" d="M106.883 62.669c.39.434 1.023 1.388.893 1.356-.059-.015-.76-.506-1.531-.895-.763-.4-1.594-.699-1.708-.622-.239.144-.915.211-.308.648.595.44 1.212.5 1.6.477.371-.023 1.093-.052 2.116.932.008.002-.036 1.042-.146 1.062.064-.029-1.748-1.962-2.326-1.444-.5.454 1.317 1.06 1.47 1.16.166.06.748.484.774.637.033.152-.203.844-.02 1.043.003-.002-.529-.363-1.008-.228-.481.133-.892.121-1.41-.588-.538-.701-.351-1.265-.886-1.544-.55-.269-.704.216-.444.58.273.367.935 1.324 1.514 1.804-.024 0-.788.523-1.704-.373-.987-.88-.342-1.48-.5-1.73-.173-.247-.656-.863-1.076-.642-.406.222-.189 1.19-.096 1.232.095.011 1.777.74 1.994 2.569.022-.008-.877-1.036-1.291-1.135-.391-.112-.688-.099-1.121-.585-.405-.487-1.108-2.012-.708-2.513.011-.003-.704-.655-1.157-.35-.491.328.052 1.307 1.648 3.058-.034.01-1.035-.162-2.738-1.26-1.56-.897-1.244-2.257.027-2.685a2.08 2.08 0 0 1 .567-.1s.265-.07.232-.253l-.01-.01c-.075-.067-.606-.503-.233-1.264.407-.853 2.486-.846 2.54-.81-.043-.004-1.337.42-1.39.79-.063.363.053.822.67.559.62-.258 1.023-1.008 1.355-1.028.288.005 1.254-.327 3.39 1.238.004-.055-2.605-.457-3.044-.398-.444-.008-.99.402-.71.666.28.265.805.53 1.41.397.609-.128.77-.656 1.477-.518.702.14 1.511.324 1.888.767z"/><path fill="#94ED96" d="M103.778 64.321c-2.201-1.962-4.974-1.685-4.909-1.672l-.128-.016a2.08 2.08 0 0 1 .567-.1s.265-.07.232-.253l-.01-.01c3.241.38 4.255 2.112 4.248 2.051z"/><path fill="#ACF9AC" d="M96.16 70.397c-.447.2-1.398.558-1.4.435-.004-.123 1.394-2.445 1.186-2.762-.207-.316-.329-1.049-.849-.676-.52.372-.497 1.028-.388 1.456.11.429.277 1.162-.548 1.999 0 0-1.28-.332-1.347-.46 0 0 1.825-1.383 1.132-2.178-.693-.795-1.062 1.07-1.089 1.244-.027.174-.335.75-.505.753-.17.003-1.109-.428-1.273-.226 0 0 .218-.597-.103-1.23-.321-.632-.429-1.202.37-1.6.8-.4 1.547.094 1.844-.381.297-.476-.32-.916-.777-.803-.457.112-1.622.502-2.094 1.139 0 0-.868-1.258.247-2.067 1.115-.809 1.899.363 2.215.297.315-.067 1.116-.201.878-.78-.238-.577-1.498-1-1.564-.91-.066.09-1.055 1.535-3.353 1.246 0 0 1.281-.809 1.448-1.245.166-.438.183-.84.877-1.044.693-.205 2.78.239 3.324 1.022 0 0 .968-.167.723-.802-.245-.636-1.68-1.253-4.257-.612 0 0 .371-1.291 2.426-1.92 1.793-.548 3.208 1.101 3.266 2.394.008.189-.013.37-.065.536 0 0 .009.275.246.4l.014-.002c.106-.012.803-.047 1.635.873.892.985.54 2.572.53 2.618-.009-.035-.35-1.386-.784-1.718-.439-.337-1.052-.606-.826.12.226.727 1.147 1.606 1.151 1.9.005.293.26 1.157-1.372 2.383 0 0 .263-2.265.288-2.657.025-.39-.437-1.165-.8-1.1-.362.067-.74.393-.561 1.072.179.68.856 1.14.757 1.752-.098.611-.155 1.335-.602 1.534z"/><path fill="#94ED96" d="M93.585 66.264c2.352-1.292 2.9-3.491 2.9-3.491l.064-.087c.008.189-.013.37-.065.536 0 0 .009.275.246.4l.014-.002c-1.296 2.327-3.159 2.644-3.159 2.644z"/><path fill="#ACF9AC" d="M105.08 56.012c-.28.441-.72 1.534-2.167 1.477 0 0-.797.3-.547.6s1.523.28 2.26-.631c0 0-.172 1.131-.368 1.42-.195.29-.906.926-2.129.2-1.223-.728-.993.787-.785.902.207.114 1.543.505 2.478-.08 0 0-.416 1.377-1.048 1.282-.633-.096-1.248.269-2.174-.999 0 0-.59-.468-.822.413-.233.882 2.446 1.257 2.446 1.257s-.737 1.11-1.898.434c-1.161-.675-1.438-1.35-1.85-1.127-.412.224.216 1.18 1.856 1.805 0 0-2.264 1-3.102-.525 0 0-.183-.63.022-1.003v-.001a.53.53 0 0 1 .093-.123l-.005-.002a3.352 3.352 0 0 1-.602-.367c-.569-.433-1.227-1.235-.48-2.34 1.163-1.721 2.149-2.496 2.149-2.496s-.732 2.411.133 2.184c.864-.228.378-2.48.646-2.675.266-.195 1.941-.879 2.233-.754 0 0-.994 1.184-1.412 1.387-.418.202-.691.828-.29 1.049.402.22.878-.022 1.139-.528.26-.506.633-1.707 1.613-1.98.979-.272.906.319.906.319s-1.1.657-1.468.995c-.367.34-.523.722-.295.865s.895.241 1.098-.062c.203-.303.605-1.525 1.47-1.752 0 0 1.178.414.9.856z"/><path fill="#94ED96" d="M101.46 58.348a8.038 8.038 0 0 0-4.12 2.963 3.352 3.352 0 0 1-.602-.367c2.25-2.668 4.722-2.596 4.722-2.596z"/><path fill="#ACF9AC" d="M104.363 75.868c-.078.483-.3 1.475-.404 1.41-.105-.065-1.28-2.507-1.659-2.507-.378 0-1.058-.3-1.031.34.026.64.587.979 1.005 1.123s1.123.404 1.371 1.553c0 0-.98.888-1.123.875 0 0-.157-2.285-1.201-2.141-1.045.144.313 1.475.444 1.593.13.118.444.692.352.836-.091.143-.966.692-.887.94 0 0-.38-.51-1.084-.588-.705-.078-1.241-.3-1.137-1.188.105-.888.928-1.24.693-1.75-.236-.509-.94-.235-1.097.209-.157.444-.47 1.632-.196 2.377 0 0-1.528.035-1.593-1.34-.065-1.376 1.345-1.39 1.463-1.69.117-.3.443-1.044-.17-1.162-.614-.118-1.659.705-1.62.81.04.104.706 1.723-.796 3.486 0 0 .026-1.515-.248-1.893-.274-.38-.601-.614-.392-1.306.209-.692 1.724-2.194 2.677-2.22 0 0 .392-.9-.274-1.044-.666-.144-1.969.718-2.845 3.225 0 0-.877-1.019-.276-3.082.586-2.012 3.209-2.124 4.137-1.147.024.025.047.05.068.076 0 0 .235.144.47.013 0 0 .024-.057.092-.144.166-.214.591-.608 1.54-.756 1.313-.206 2.447.957 2.48.991-.034-.011-1.35-.467-1.866-.286-.523.182-1.084.548-.353.757.731.209 1.972-.079 2.22.078.248.157 1.11.418 1.24 2.455 0 0-1.75-1.462-2.063-1.698-.313-.234-1.214-.273-1.358.066-.144.34-.078.836.588 1.057.666.223 1.423-.09 1.88.327.457.418 1.031.862.953 1.345z"/><path fill="#94ED96" d="M99.884 76.15c.208-2.676-1.33-4.34-1.33-4.34s-.034-.09-.082-.223c.024.025.047.05.068.076 0 0 .235.144.47.013 0 0 .024-.057.092-.144 1.653 2.624.782 4.618.782 4.618zM92.274 82.515c-.474.122-1.472.317-1.454.195.018-.122 1.783-2.178 1.631-2.525-.152-.347-.15-1.09-.725-.809-.576.28-.661.931-.625 1.372.036.44.08 1.19-.873 1.879 0 0-1.207-.541-1.252-.678 0 0 2.03-1.06 1.48-1.96-.552-.899-1.226.88-1.282 1.047-.055.167-.455.684-.624.658-.168-.026-1.021-.608-1.217-.436 0 0 .314-.552.103-1.229-.21-.677-.223-1.257.633-1.517.855-.26 1.508.351 1.88-.068.372-.42-.162-.956-.631-.921-.47.034-1.684.224-2.256.774 0 0-.645-1.386.59-1.997 1.233-.612 1.81.675 2.133.662.322-.013 1.135-.012.996-.622-.138-.61-1.31-1.236-1.39-1.158-.08.077-1.297 1.337-3.514.67 0 0 1.398-.585 1.635-.988.237-.403.321-.797 1.039-.883.718-.086 2.7.7 3.107 1.562 0 0 .983-.003.847-.67-.136-.668-1.448-1.515-4.096-1.313 0 0 .582-1.211 2.713-1.488 2.077-.27 3.233 2.087 2.71 3.329a1.15 1.15 0 0 1-.043.093s-.037.272.177.435c0 0 .062 0 .169.027.262.066.794.298 1.31 1.107.716 1.12.105 2.626.087 2.67-.003-.036-.114-1.425-.486-1.825-.377-.405-.937-.773-.835-.02.102.755.863 1.775.819 2.065-.044.29.062 1.185-1.751 2.122 0 0 .637-2.19.727-2.57.09-.382-.236-1.224-.605-1.219-.368.005-.797.264-.733.963.064.7.655 1.267.455 1.853-.199.587-.375 1.29-.849 1.413z"/><path fill="#7CDF82" d="M90.219 78.525c2.534-.883 3.441-2.96 3.441-2.96s.068-.067.172-.164a1.15 1.15 0 0 1-.043.093s-.037.272.177.435c0 0 .062 0 .169.027-1.74 2.567-3.916 2.569-3.916 2.569z"/><path fill="#94ED96" d="m39.045 140.025 42.058 24.282-21.007 12.207-42.057-24.282 21.006-12.207zm23.544 32.799 12.157-7.065c-1.388-.802-1.396-2.103-.017-2.904l-33.15-19.14c-1.38.802-3.632.798-5.02-.003l-12.157 7.065c1.388.8 1.401 2.106.016 2.91l33.151 19.14c1.385-.805 3.632-.805 5.02-.003"/><path fill="#7CDF82" d="m54.979 169.214-.879.511-3.852-2.224.879-.511zM59.87 170.067l-.879.511-7.042-4.066.879-.51zM39.034 148.27c1.764 1.018 1.78 2.668.027 3.686-1.752 1.019-4.608 1.019-6.371 0-1.764-1.018-1.767-2.668-.015-3.686 1.752-1.019 4.596-1.019 6.36 0zM36.218 156.412l-.879.51-7.048-4.069.879-.511zM57.765 153.508c4.552 2.628 4.576 6.892.053 9.52-4.528 2.632-11.89 2.632-16.442.004-4.552-2.629-4.576-6.893-.047-9.524 4.523-2.629 11.884-2.629 16.436 0zm-9.242 8.704c1.092.037 2.043-.177 2.852-.647.81-.47 1.175-.978 1.096-1.514-.073-.54-.527-1.192-1.343-1.956l-.039-.022 2.613-1.518c.605.474 1.008 1.014 1.183 1.62l2.188-.216c-.29-.886-.917-1.65-1.86-2.283l.709-.411-.898-.519-.696.405a6.865 6.865 0 0 0-3.037-.787c-1.067-.03-2.011.187-2.808.65-.803.467-1.162.964-1.077 1.482.08.515.527 1.154 1.324 1.908l-2.694 1.566c-.695-.555-1.105-1.254-1.211-2.1l-2.227.115c.133 1.095.773 2.05 1.926 2.863l-1.012.588.898.519 1-.581a7.153 7.153 0 0 0 3.113.838"/><path fill="#7CDF82" d="M50.354 155.904c.31-.18.69-.26 1.134-.246.45.018.896.136 1.354.356l-2.404 1.397c-.35-.4-.537-.706-.538-.919-.007-.21.144-.408.454-.588zM34.516 157.4l-.879.511-3.858-2.227.879-.511zM50.003 160.032c.014.228-.138.434-.467.625-.322.187-.721.265-1.198.239a3.84 3.84 0 0 1-1.442-.386l2.498-1.452c.383.419.588.743.609.974z"/><path fill="#94ED96" d="M52.471 160.05c.08.537-.286 1.044-1.096 1.515-.81.47-1.76.684-2.852.647a7.153 7.153 0 0 1-3.114-.838l-1 .58-.897-.518 1.012-.588c-1.153-.812-1.793-1.768-1.926-2.863l2.227-.114c.106.845.516 1.544 1.211 2.099l2.694-1.566c-.797-.754-1.245-1.393-1.324-1.908-.085-.518.274-1.015 1.077-1.481.797-.464 1.741-.68 2.808-.651 1.078.03 2.089.29 3.037.787l.696-.405.898.519-.709.411c.943.633 1.57 1.397 1.86 2.283l-2.188.217c-.175-.607-.578-1.147-1.183-1.621l-2.613 1.518.039.022c.816.764 1.27 1.415 1.343 1.956zm-4.133.846c.477.026.876-.052 1.198-.239.33-.191.48-.397.467-.625-.02-.231-.226-.555-.609-.974l-2.498 1.452c.49.231.966.36 1.442.386m2.1-3.485 2.404-1.397a3.409 3.409 0 0 0-1.354-.356c-.444-.015-.824.066-1.134.246-.31.18-.461.379-.454.588.001.213.187.519.538.92"/><path fill="#7CDF82" d="M66.869 164.34c1.763 1.018 1.773 2.665.02 3.683-1.751 1.018-4.6 1.022-6.364.004-1.764-1.018-1.773-2.672-.021-3.69 1.752-1.019 4.601-1.015 6.365.003z"/><path fill="#75D178" d="M74.73 162.855c-1.38.801-1.372 2.102.016 2.904l-12.157 7.065c-1.388-.802-3.635-.802-5.02.003l-33.15-19.14c1.384-.804 1.37-2.11-.017-2.91l12.157-7.065c1.388.8 3.64.805 5.02.003l33.15 19.14zm-33.354.177c4.552 2.628 11.914 2.628 16.442-.004 4.523-2.628 4.499-6.892-.053-9.52-4.552-2.629-11.913-2.629-16.436 0-4.529 2.631-4.505 6.895.047 9.524m-8.7-14.762c-1.753 1.018-1.75 2.668.014 3.686 1.763 1.019 4.62 1.019 6.371 0 1.752-1.018 1.737-2.668-.027-3.686-1.763-1.019-4.607-1.019-6.359 0m27.85 19.757c1.763 1.018 4.612 1.014 6.365-.004 1.752-1.018 1.742-2.665-.021-3.683-1.764-1.018-4.613-1.022-6.365-.004-1.752 1.019-1.743 2.673.02 3.69M35.34 156.923l.879-.51-7.048-4.07-.88.511 7.049 4.07m23.652 13.655.879-.511-7.042-4.065-.879.51 7.042 4.066M33.637 157.91l.88-.51-3.859-2.228-.879.51 3.858 2.228M54.1 169.725l.879-.51-3.852-2.225-.88.511 3.853 2.224"/><path fill="#ACF9AC" d="m39.045 136.581 42.058 24.282-21.007 12.208-42.057-24.282 21.006-12.208zm23.544 32.8 12.157-7.066c-1.388-.801-1.396-2.102-.017-2.904l-33.15-19.14c-1.38.802-3.632.798-5.02-.003l-12.157 7.065c1.388.801 1.401 2.106.016 2.911l33.151 19.14c1.385-.805 3.632-.805 5.02-.004"/><path fill="#75D178" d="m54.979 165.771-.879.51-3.852-2.223.879-.511zM59.87 166.623l-.879.511-7.042-4.065.879-.511zM39.034 144.826c1.764 1.018 1.78 2.669.027 3.687-1.752 1.018-4.608 1.018-6.371 0-1.764-1.018-1.767-2.669-.015-3.687 1.752-1.018 4.596-1.018 6.36 0zM36.218 152.968l-.879.511-7.048-4.069.879-.511zM57.765 150.064c4.552 2.628 4.576 6.892.053 9.52-4.528 2.632-11.89 2.632-16.442.004s-4.576-6.892-.047-9.524c4.523-2.628 11.884-2.628 16.436 0zm-9.242 8.704c1.092.037 2.043-.176 2.852-.647.81-.47 1.175-.978 1.096-1.514-.073-.54-.527-1.191-1.343-1.956l-.039-.022 2.613-1.518c.605.474 1.008 1.015 1.183 1.621l2.188-.217c-.29-.886-.917-1.65-1.86-2.282l.709-.412-.898-.518-.696.404a6.865 6.865 0 0 0-3.037-.787c-1.067-.029-2.011.188-2.808.65-.803.468-1.162.964-1.077 1.482.08.515.527 1.155 1.324 1.908l-2.694 1.566c-.695-.555-1.105-1.253-1.211-2.099l-2.227.114c.133 1.095.773 2.051 1.926 2.864l-1.012.588.898.518 1-.58a7.153 7.153 0 0 0 3.113.837"/><path fill="#75D178" d="M50.354 152.46c.31-.18.69-.26 1.134-.246.45.019.896.136 1.354.357l-2.404 1.397c-.35-.401-.537-.706-.538-.92-.007-.209.144-.407.454-.587zM34.516 153.957l-.879.511-3.858-2.228.879-.511zM50.003 156.588c.014.228-.138.434-.467.625-.322.188-.721.265-1.198.24a3.84 3.84 0 0 1-1.442-.387l2.498-1.452c.383.42.588.743.609.974z"/><path fill="#ACF9AC" d="M52.471 156.607c.08.536-.286 1.044-1.096 1.514s-1.76.684-2.852.647a7.153 7.153 0 0 1-3.114-.838l-1 .58-.897-.517 1.012-.588c-1.153-.813-1.793-1.769-1.926-2.864l2.227-.114c.106.846.516 1.544 1.211 2.099l2.694-1.566c-.797-.753-1.245-1.393-1.324-1.908-.085-.518.274-1.014 1.077-1.481.797-.463 1.741-.68 2.808-.65 1.078.029 2.089.29 3.037.786l.696-.404.898.518-.709.412c.943.632 1.57 1.396 1.86 2.282l-2.188.217c-.175-.606-.578-1.147-1.183-1.62l-2.613 1.517.039.022c.816.765 1.27 1.415 1.343 1.956zm-4.133.845c.477.026.876-.051 1.198-.239.33-.19.48-.397.467-.625-.02-.231-.226-.555-.609-.974l-2.498 1.452c.49.232.966.36 1.442.386m2.1-3.484 2.404-1.397a3.409 3.409 0 0 0-1.354-.357c-.444-.014-.824.066-1.134.247-.31.18-.461.378-.454.588.001.213.187.518.538.919"/><path fill="#75D178" d="M66.869 160.896c1.763 1.019 1.773 2.665.02 3.684-1.751 1.018-4.6 1.021-6.364.003-1.764-1.018-1.773-2.672-.021-3.69 1.752-1.018 4.601-1.015 6.365.003z"/><path fill="#94ED96" d="M74.73 159.411c-1.38.802-1.372 2.103.016 2.904l-12.157 7.065c-1.388-.801-3.635-.801-5.02.004l-33.15-19.14c1.384-.805 1.37-2.11-.017-2.911l12.157-7.065c1.388.801 3.64.805 5.02.004l33.15 19.14zm-33.354.177c4.552 2.628 11.914 2.628 16.442-.004 4.523-2.628 4.499-6.892-.053-9.52-4.552-2.628-11.913-2.628-16.436 0-4.529 2.632-4.505 6.896.047 9.524m-8.7-14.762c-1.753 1.018-1.75 2.669.014 3.687 1.763 1.018 4.62 1.018 6.371 0 1.752-1.018 1.737-2.669-.027-3.687-1.763-1.018-4.607-1.018-6.359 0m27.85 19.757c1.763 1.018 4.612 1.015 6.365-.004 1.752-1.018 1.742-2.664-.021-3.683-1.764-1.018-4.613-1.021-6.365-.003-1.752 1.018-1.743 2.672.02 3.69M35.34 153.48l.879-.511-7.048-4.07-.88.512 7.049 4.069m23.652 13.655.879-.51-7.042-4.066-.879.51 7.042 4.066m-25.354-12.666.88-.511-3.859-2.228-.879.511 3.858 2.228M54.1 166.28l.879-.51-3.852-2.224-.88.51 3.853 2.224"/><path fill="#7CDF82" d="m66.392 139.252.012 3.939 16.684 9.696-.011-3.94z"/><path fill="#75D178" d="m83.077 148.947.011 3.94 33.404-19.279-.011-3.939z"/><path fill="#E1E4EA" d="m96.461 141.218.011 3.94 7.498-4.321-.012-3.94z"/><path fill="#94ED96" d="m66.394 139.254 16.681 9.694 33.408-19.284-16.687-9.7z"/><path fill="#ACF9AC" d="m115.337 129.662-15.542-9.034-32.255 18.628 15.536 9.028z"/><path fill="#75D178" d="m87.141 143.149.698.406 3.06-1.766-.699-.406zM83.256 143.827l.699.406 5.592-3.229-.698-.406zM99.805 126.514c-1.4.809-1.413 2.12-.021 2.929 1.391.808 3.66.808 5.06 0 1.4-.809 1.403-2.12.011-2.929-1.391-.808-3.65-.808-5.05 0zM102.042 132.981l.698.406 5.598-3.232-.698-.406zM97.982 130.675c3.597 2.09 3.578 5.477-.037 7.564-3.616 2.087-9.462 2.087-13.06-.003-3.591-2.088-3.572-5.474.043-7.561 3.616-2.088 9.462-2.088 13.054 0zm-5.714 6.913a5.681 5.681 0 0 0 2.474-.666l.793.462.713-.412-.803-.467c.915-.646 1.424-1.404 1.53-2.274l-1.77-.091c-.084.671-.41 1.226-.961 1.667l-2.14-1.244c.633-.598.989-1.106 1.052-1.515.067-.412-.218-.806-.856-1.176-.633-.368-1.383-.54-2.23-.517-.856.023-1.66.23-2.412.625l-.553-.322-.713.412.563.327c-.749.502-1.246 1.11-1.477 1.813l1.738.172c.139-.481.458-.91.94-1.287l2.074 1.206-.03.017c-.649.607-1.01 1.124-1.067 1.553-.063.426.227.83.87 1.203.643.374 1.398.543 2.265.514"/><path fill="#75D178" d="M90.815 132.578c-.247-.143-.549-.207-.901-.196a2.708 2.708 0 0 0-1.076.284l1.91 1.11c.278-.32.426-.561.427-.73.006-.167-.114-.325-.36-.468zM103.393 133.766l.698.406 3.065-1.769-.698-.406zM91.093 135.857c-.01.18.11.344.37.496.257.149.574.21.952.19a3.05 3.05 0 0 0 1.146-.307l-1.984-1.153c-.305.333-.467.59-.484.774z"/><path fill="#ACF9AC" d="m90.2 134.318.03-.017-2.075-1.206c-.48.376-.8.806-.94 1.287l-1.737-.172c.23-.704.728-1.31 1.477-1.813l-.563-.327.713-.412.553.322a5.452 5.452 0 0 1 2.412-.625c.847-.024 1.597.149 2.23.517.638.37.923.764.856 1.176-.063.409-.419.917-1.052 1.515l2.14 1.244c.552-.44.877-.996.962-1.667l1.768.09c-.105.87-.614 1.63-1.53 2.275l.804.467-.713.412-.793-.462a5.681 5.681 0 0 1-2.474.666c-.867.03-1.622-.14-2.265-.514s-.933-.777-.87-1.203c.058-.429.418-.946 1.067-1.553zm2.215 2.225a3.05 3.05 0 0 0 1.146-.307l-1.984-1.153c-.305.333-.467.59-.484.774-.01.18.11.344.37.496.257.149.574.21.952.19m-1.668-2.768c.28-.318.427-.56.428-.73.006-.166-.114-.324-.36-.467-.247-.143-.549-.207-.901-.196a2.708 2.708 0 0 0-1.076.284l1.91 1.11"/><path fill="#75D178" d="M77.698 139.278c-1.401.809-1.409 2.117-.017 2.925 1.392.81 3.655.812 5.055.003 1.401-.808 1.408-2.122.017-2.93-1.392-.81-3.655-.807-5.055.002z"/><path fill="#94ED96" d="M97.784 122.897c1.095.637 2.885.634 3.987-.003l9.656 5.611c-1.103.637-1.114 1.673-.013 2.313l-26.33 15.201c-1.1-.64-2.885-.64-3.987-.003l-9.656-5.61c1.103-.637 1.108-1.67.013-2.307l26.33-15.202zm.16 15.342c3.616-2.087 3.635-5.474.038-7.564-3.592-2.088-9.438-2.088-13.054 0-3.615 2.087-3.634 5.473-.042 7.561 3.597 2.09 9.443 2.09 13.059.003m6.91-11.725c-1.391-.808-3.65-.808-5.05 0-1.4.809-1.413 2.12-.021 2.929 1.391.808 3.66.808 5.06 0 1.4-.809 1.403-2.12.011-2.929m-22.119 15.692c1.401-.808 1.408-2.122.017-2.93-1.392-.81-3.655-.807-5.055.002-1.401.809-1.408 2.117-.017 2.925 1.392.81 3.655.812 5.055.003m20.004-8.82 5.598-3.231-.698-.406-5.598 3.232.698.406m-18.785 10.846 5.592-3.23-.698-.405-5.593 3.229.699.406m20.136-10.06 3.065-1.77-.698-.406-3.065 1.77.698.405m-16.252 9.383 3.06-1.766-.699-.406-3.059 1.766.698.406"/><path fill="#E7F1F7" d="m79.78 131.524 16.681 9.694 7.497-4.321-16.687-9.699z"/><path fill="#7CDF82" d="m66.043 129.74.011 3.94 16.684 9.696-.011-3.94z"/><path fill="#75D178" d="m82.727 139.436.011 3.94 33.404-19.279-.011-3.94z"/><path fill="#E1E4EA" d="m96.111 131.706.012 3.94 7.497-4.321-.011-3.939z"/><path fill="#94ED96" d="m66.044 129.743 16.682 9.693 33.408-19.284-16.687-9.699z"/><path fill="#ACF9AC" d="m114.988 120.151-15.542-9.034-32.255 18.628 15.536 9.028z"/><path fill="#75D178" d="m86.792 133.638.698.406 3.059-1.767-.698-.405zM82.907 134.315l.698.406 5.593-3.229-.698-.406zM99.456 117.003c-1.401.808-1.413 2.12-.022 2.928 1.392.809 3.66.809 5.06 0s1.404-2.12.012-2.928c-1.392-.809-3.65-.809-5.05 0zM101.692 123.469l.699.406 5.598-3.232-.699-.405zM97.633 121.163c3.597 2.09 3.578 5.477-.038 7.564-3.615 2.088-9.462 2.088-13.059-.003-3.592-2.087-3.573-5.474.043-7.561 3.615-2.087 9.462-2.087 13.054 0zm-5.714 6.913a5.681 5.681 0 0 0 2.473-.665l.794.461.713-.412-.804-.467c.916-.645 1.424-1.404 1.53-2.274l-1.769-.09c-.084.67-.41 1.226-.962 1.666l-2.14-1.243c.634-.599.99-1.107 1.052-1.516.068-.411-.217-.805-.855-1.176-.633-.368-1.383-.54-2.23-.517-.857.024-1.66.23-2.413.625l-.552-.321-.713.411.562.327c-.748.503-1.246 1.11-1.476 1.813l1.737.173c.14-.482.459-.911.94-1.288l2.075 1.206-.03.017c-.649.608-1.01 1.124-1.068 1.554-.063.426.228.829.87 1.202.644.374 1.399.544 2.266.514"/><path fill="#75D178" d="M90.465 123.067c-.246-.144-.548-.208-.9-.196a2.707 2.707 0 0 0-1.076.283l1.909 1.11c.279-.319.426-.561.427-.73.006-.167-.114-.324-.36-.467zM103.044 124.255l.698.406 3.064-1.77-.698-.405zM90.744 126.345c-.011.181.109.345.37.496.256.15.574.21.952.19a3.05 3.05 0 0 0 1.146-.306l-1.985-1.154c-.304.333-.467.59-.483.774z"/><path fill="#ACF9AC" d="m89.85 124.806.03-.017-2.074-1.206c-.481.377-.8.806-.94 1.288l-1.737-.173c.23-.703.728-1.31 1.476-1.813l-.562-.327.713-.411.552.32a5.452 5.452 0 0 1 2.413-.624c.847-.023 1.597.15 2.23.517.638.37.923.765.855 1.176-.062.41-.418.917-1.052 1.516l2.14 1.243c.552-.44.878-.995.962-1.667l1.769.091c-.106.87-.614 1.629-1.53 2.274l.804.467-.713.412-.794-.461a5.682 5.682 0 0 1-2.473.665c-.867.03-1.622-.14-2.265-.514-.643-.373-.934-.776-.87-1.202.057-.43.418-.946 1.066-1.554zm2.216 2.225a3.05 3.05 0 0 0 1.146-.306l-1.985-1.154c-.304.333-.467.59-.483.774-.011.181.109.345.37.496.256.15.574.21.952.19m-1.668-2.768c.279-.318.426-.56.427-.73.006-.166-.114-.323-.36-.466-.246-.144-.548-.208-.9-.196a2.707 2.707 0 0 0-1.076.283l1.909 1.11"/><path fill="#75D178" d="M77.348 129.767c-1.4.808-1.408 2.116-.016 2.925 1.391.809 3.654.812 5.055.003 1.4-.809 1.408-2.123.016-2.931-1.391-.809-3.654-.806-5.055.003z"/><path fill="#94ED96" d="M97.435 113.386c1.095.636 2.884.633 3.987-.003l9.655 5.61c-1.102.637-1.113 1.674-.013 2.313l-26.33 15.202c-1.1-.64-2.884-.64-3.986-.003l-9.656-5.612c1.102-.636 1.108-1.67.013-2.306l26.33-15.201zm.16 15.341c3.616-2.087 3.635-5.474.038-7.564-3.592-2.087-9.439-2.087-13.054 0-3.616 2.087-3.635 5.474-.043 7.561 3.597 2.09 9.444 2.09 13.06.003m6.91-11.724c-1.392-.809-3.65-.809-5.05 0-1.401.808-1.413 2.12-.022 2.928 1.392.809 3.66.809 5.06 0 1.401-.809 1.404-2.12.012-2.928m-22.119 15.692c1.4-.809 1.408-2.123.016-2.931-1.391-.809-3.654-.806-5.055.003-1.4.808-1.408 2.116-.016 2.925 1.391.809 3.654.812 5.055.003m20.004-8.82 5.598-3.232-.699-.405-5.598 3.231.699.406m-18.786 10.846 5.593-3.229-.698-.406-5.593 3.23.698.405m20.137-10.06 3.064-1.77-.698-.405-3.064 1.769.698.406m-16.252 9.383 3.06-1.767-.699-.405-3.06 1.766.699.406"/><path fill="#E7F1F7" d="m79.43 122.013 16.681 9.693 7.498-4.32-16.687-9.7z"/><path fill="#7CDF82" d="m71.875 119.685.011 3.94 16.684 9.695-.011-3.939z"/><path fill="#75D178" d="m88.559 129.381.011 3.939 33.404-19.279-.011-3.939z"/><path fill="#E1E4EA" d="m101.943 121.651.011 3.94 7.498-4.321-.011-3.94z"/><path fill="#94ED96" d="m71.876 119.687 16.681 9.694 33.409-19.284-16.687-9.7z"/><path fill="#ACF9AC" d="m120.819 110.095-15.541-9.034-32.255 18.628 15.536 9.029z"/><path fill="#75D178" d="m92.623 123.583.699.405 3.059-1.766-.698-.406zM88.739 124.26l.698.406 5.593-3.229-.699-.406zM105.287 106.947c-1.4.81-1.413 2.12-.021 2.929 1.391.808 3.66.808 5.06 0s1.403-2.12.012-2.929c-1.392-.808-3.65-.808-5.05 0zM107.524 113.414l.698.406 5.598-3.232-.698-.406zM103.465 111.108c3.597 2.09 3.578 5.477-.038 7.564-3.615 2.087-9.462 2.087-13.059-.003-3.592-2.087-3.573-5.474.043-7.561 3.615-2.088 9.462-2.088 13.054 0zm-5.715 6.913a5.681 5.681 0 0 0 2.474-.666l.794.462.713-.412-.804-.467c.916-.645 1.424-1.404 1.53-2.274l-1.769-.09c-.084.67-.41 1.225-.962 1.666l-2.14-1.244c.633-.598.99-1.106 1.052-1.515.068-.411-.217-.806-.855-1.176-.633-.368-1.383-.54-2.23-.517-.857.023-1.66.23-2.413.625l-.553-.322-.713.412.563.327c-.749.502-1.246 1.11-1.477 1.813l1.738.172c.139-.481.459-.91.94-1.287l2.075 1.206-.03.017c-.65.607-1.01 1.124-1.068 1.553-.063.427.227.83.87 1.203.643.374 1.398.543 2.265.514"/><path fill="#75D178" d="M96.297 113.011c-.246-.143-.548-.207-.901-.195a2.708 2.708 0 0 0-1.075.283l1.909 1.11c.279-.32.426-.561.427-.73.006-.167-.114-.325-.36-.468zM108.875 114.199l.699.406 3.064-1.769-.698-.406zM96.576 116.29c-.011.18.109.344.37.496.256.149.573.21.952.19a3.05 3.05 0 0 0 1.145-.307l-1.984-1.153c-.304.333-.467.59-.483.774z"/><path fill="#ACF9AC" d="m95.682 114.751.03-.017-2.074-1.206c-.481.377-.801.806-.94 1.287l-1.738-.172c.231-.704.728-1.31 1.477-1.813l-.563-.327.713-.412.553.322a5.452 5.452 0 0 1 2.413-.625c.847-.023 1.597.149 2.23.517.638.37.923.765.855 1.176-.063.409-.419.917-1.052 1.515l2.14 1.244c.552-.44.878-.995.962-1.667l1.769.09c-.106.87-.614 1.63-1.53 2.275l.804.467-.713.412-.794-.462a5.681 5.681 0 0 1-2.474.666c-.867.03-1.622-.14-2.265-.514s-.933-.776-.87-1.203c.058-.429.419-.946 1.067-1.553zm2.216 2.225a3.05 3.05 0 0 0 1.145-.307l-1.984-1.153c-.304.333-.467.59-.483.774-.011.18.109.344.37.496.256.149.573.21.952.19m-1.668-2.768c.279-.318.426-.56.427-.73.006-.166-.114-.324-.36-.467-.246-.143-.548-.207-.901-.195a2.708 2.708 0 0 0-1.075.283l1.909 1.11"/><path fill="#75D178" d="M83.18 119.711c-1.4.809-1.408 2.117-.017 2.926 1.392.808 3.655.811 5.056.003 1.4-.81 1.408-2.123.016-2.932-1.391-.808-3.655-.805-5.055.003z"/><path fill="#94ED96" d="M103.266 103.33c1.096.637 2.885.634 3.987-.003l9.656 5.612c-1.102.636-1.113 1.672-.013 2.312l-26.33 15.201c-1.1-.639-2.884-.639-3.987-.003l-9.655-5.61c1.102-.637 1.108-1.67.013-2.307l26.33-15.202zm.161 15.342c3.616-2.087 3.635-5.474.038-7.564-3.592-2.088-9.439-2.088-13.054 0-3.616 2.087-3.635 5.474-.043 7.561 3.597 2.09 9.444 2.09 13.059.003m6.91-11.725c-1.39-.808-3.649-.808-5.05 0-1.4.81-1.413 2.12-.021 2.929 1.391.808 3.66.808 5.06 0 1.4-.809 1.403-2.12.012-2.929m-22.12 15.693c1.401-.81 1.409-2.123.017-2.932-1.391-.808-3.655-.805-5.055.003-1.4.809-1.408 2.117-.017 2.926 1.392.808 3.655.811 5.056.003m20.003-8.82 5.598-3.232-.698-.406-5.598 3.232.698.406m-18.785 10.846 5.593-3.23-.699-.405-5.592 3.229.698.406m20.137-10.06 3.064-1.77-.698-.406-3.065 1.77.699.405m-16.252 9.383 3.06-1.766-.7-.406-3.059 1.767.699.405"/><path fill="#E7F1F7" d="m85.262 111.957 16.681 9.694 7.498-4.321-16.687-9.699z"/><path fill="#B27F5E" d="M183.222 156.59c-4.51 4.415-6.862 3.936-11.416 4.607-3.56.524-12.42-.65-14.889-7.821-.693-2.007-.885-4.485-.318-7.53 2.591-13.906 11.08-17.313 11.08-17.313s.005 0 .018-.009c.292-.105 4.785-1.662 7.66.009 2.97 1.727 5.897 5.13 8.105 9.448 2.207 4.319 4.266 14.2-.24 18.61z"/><path fill="#FFF" d="M173.915 152.75c-.656.594-1.615.924-2.88.99v1.915h-.833v-1.898a7.56 7.56 0 0 1-2.287-.474c-.717-.271-1.279-.618-1.69-1.04l.483-.949c.389.378.895.694 1.522.949a6.252 6.252 0 0 0 1.972.45v-4.378c-.765-.188-1.403-.39-1.913-.607a3.245 3.245 0 0 1-1.273-.949c-.34-.416-.508-.968-.508-1.656 0-.854.311-1.573.933-2.155.62-.583 1.541-.924 2.761-1.024v-1.914h.833v1.898a7.062 7.062 0 0 1 1.84.308 5.562 5.562 0 0 1 1.538.724l-.416.982a6.386 6.386 0 0 0-1.447-.683 5.692 5.692 0 0 0-1.515-.283v4.41c.821.2 1.492.403 2.014.608.522.205.96.519 1.314.94s.534.977.534 1.665c0 .854-.328 1.578-.982 2.171zm-5.55-6.365c.426.3 1.04.554 1.837.765v-4.16c-.82.066-1.44.29-1.855.673a1.84 1.84 0 0 0-.624 1.407c0 .577.214 1.015.642 1.315zm4.65 5.658c.445-.366.667-.832.667-1.398 0-.599-.228-1.048-.683-1.348-.455-.3-1.11-.555-1.964-.765v4.16c.877-.066 1.536-.282 1.98-.649z"/><path fill="#A06E52" d="M169.053 129.505c-2.482 2.295-3.991 4.707-5.522 7.15.475-1.54.96-3.093 1.731-4.51.773-1.422 1.859-2.71 3.29-3.46l.501.82z"/><path fill="#A06E52" d="M183.222 156.59c-4.51 4.415-6.862 3.936-11.416 4.607-3.56.524-12.42-.65-14.889-7.821 4.55 4.057 11.268 5.636 17.118 3.847 1.51-.462 2.997-1.156 4.074-2.312 1.235-1.326 1.82-3.162 1.885-4.973.065-1.806-.35-3.603-.908-5.326-2.045-6.351-6.094-12.031-11.39-16.088.293-.105 4.786-1.662 7.66.009 2.971 1.727 5.898 5.13 8.106 9.448 2.207 4.319 4.266 14.2-.24 18.61z"/><path fill="#B7805A" d="M179.37 135.56c-1.793-2.255-3.564-4.488-6.29-6.49l.41-.869c1.505.585 2.73 1.745 3.655 3.067.925 1.326 1.575 2.814 2.225 4.292zm-3.914-1.366c-1.793-2.255-3.564-4.489-6.29-6.491l.41-.868c1.505.584 2.73 1.745 3.655 3.066.925 1.326 1.575 2.814 2.225 4.293z"/><path fill="#A06E52" d="M165.711 124.097a9.2 9.2 0 0 1 1.772 4.623l7.808-.072c-.157-1.022.242-2.044.705-2.968.463-.925 1.005-1.838 1.165-2.86l-5.537-.016-5.517-.018c-.222 0-1.025-.127-1.095.208-.034.166.184.407.272.533.136.195.285.38.427.57z"/><path fill="#B27F5E" d="M172.481 125.49c-.425 0-.806-.126-1.1-.366a2.842 2.842 0 0 1-.375-.389c-.136-.162-.265-.314-.38-.333h-.005c-.136 0-.295.084-.448.164-.234.124-.5.263-.817.263-.084 0-.168-.01-.25-.03-.399-.1-.622-.405-.801-.65-.06-.083-.12-.167-.19-.238-.17-.175-.454-.276-.777-.276-.053 0-.106.003-.16.008a2.724 2.724 0 0 0-.617.147c-.052.018-.108.045-.165.071-.17.08-.382.178-.61.18-.598 0-1.088-.532-1.203-1.024a1.358 1.358 0 0 1 .62-1.447c.325-.19.673-.216.97-.216.079 0 .381.008.453.008.25 0 .4-.025.517-.088.08-.042.165-.114.255-.192.171-.145.364-.31.638-.388.103-.03.212-.045.323-.045.289 0 .55.1.782.186.084.032.167.064.251.09a1.522 1.522 0 0 0 1.277-.2c.082-.057.16-.121.24-.185.259-.211.553-.45.964-.498.047-.005.093-.008.139-.008.487 0 .941.276 1.39.844l.078.1c.23.294.447.572.71.642a.59.59 0 0 0 .152.019c.213 0 .46-.1.723-.204.313-.125.668-.267 1.056-.273.598 0 1.121.305 1.363.779.284.557.107 1.275-.395 1.6-.292.19-.607.216-.884.238-.084.006-.168.013-.25.025-.425.066-.83.336-1.205.618l-.17.129c-.383.292-.78.595-1.264.781-.27.104-.558.158-.835.158z"/><path fill="#96654D" d="M165.008 122.918a.917.917 0 0 1 .417-.972c.566-.332 1.343.022 1.923-.286.29-.154.493-.457.808-.547.37-.105.742.118 1.11.229a1.96 1.96 0 0 0 1.65-.258c.328-.225.612-.563 1.007-.608.458-.053.85.311 1.136.672s.575.776 1.02.893c.686.181 1.341-.43 2.05-.443.39-.007.79.194.966.541.177.347.082.825-.244 1.037-.277.18-.636.147-.963.197-.521.08-.979.383-1.4.7-.422.318-.836.663-1.328.852-.493.189-1.095.193-1.505-.14-.332-.27-.538-.747-.961-.813-.517-.082-.974.531-1.481.404-.362-.091-.525-.502-.786-.77-.325-.333-.828-.443-1.292-.397a3.189 3.189 0 0 0-.716.168c-.193.067-.436.225-.636.227-.36.002-.7-.36-.775-.686z"/><path fill="#7F5341" d="M171.616 130.216c-1.29 0-2.577-.132-3.847-.395-.601-.125-1.217-.31-1.65-.815a1.627 1.627 0 0 1-.348-1.352c.081-.404.327-.735.673-.908a.654.654 0 0 1 .612 1.157.32.32 0 0 0 .057.252c.177.206.548.306.922.384a17.61 17.61 0 0 0 5.608.252c.607-.07 1.086-.168 1.453-.415.325-.218.518-.59.448-.863a.654.654 0 1 1 1.268-.324c.207.81-.199 1.744-.985 2.273-.621.418-1.345.549-2.034.628-.725.084-1.452.126-2.177.126z"/><path fill="#7F5341" d="M175.525 141.064a.655.655 0 0 1-.65-.584c-.11-1.001-1.25-1.678-1.92-1.993-.24-.111-.484-.216-.729-.32-.901-.385-1.833-.783-2.555-1.55-.864-.918-1.298-2.258-1.22-3.775.065-1.276.458-2.467.84-3.618a.654.654 0 1 1 1.241.41c-.353 1.07-.718 2.175-.775 3.275-.058 1.14.258 2.165.867 2.811.534.568 1.302.896 2.116 1.243.259.11.518.221.77.34 1.586.744 2.533 1.822 2.666 3.035a.655.655 0 0 1-.651.726z"/><path fill="#7F5341" d="M162.768 144.23a.654.654 0 0 1-.642-.788c.463-2.21 1.644-4.22 2.686-5.993l4.53-7.704a.655.655 0 0 1 1.129.663l-4.53 7.704c-1.04 1.769-2.116 3.597-2.533 5.597a.655.655 0 0 1-.64.52z"/><path fill="#93624A" d="M172.844 129.013c-.226 0-.447-.006-.66-.011l-2.778-.067c-.533-.013-1.136-.027-1.724-.2-.682-.202-1.181-.98-1.62-1.79a.654.654 0 1 1 1.151-.622c.516.954.76 1.127.841 1.157.42.124.91.135 1.383.147l2.778.067c.702.017 1.428.034 2.074-.142.387-.106.615-.547.918-1.207l.028-.06a.654.654 0 1 1 1.189.546l-.028.06c-.337.735-.757 1.648-1.762 1.923-.597.163-1.21.199-1.79.199z"/><path fill="#C5D4DD" d="m149.508 81.143-.003 1.044-17.208-9.935.003-1.044zM127.686 84.059l-.003 1.044-7.266-4.195.003-1.044zM140.78 81.316l-.003 1.037-20.33-11.738.003-1.036zM130.122 69.95l-.003 1.044-9.658-5.576.003-1.044zM140.721 102.004l-.003 1.036-20.33-11.737.003-1.037zM128.995 100.439l-.003 1.044-8.619-4.976.003-1.044zM156.591 116.372l-.003 1.043-25.726-14.852.003-1.044zM155.697 110.65l-.003 1.037-13.433-7.756.003-1.036zM163.797 110.113l-.003 1.044-12.893-7.443.003-1.044zM149.45 101.83l-.003 1.044-29.044-16.769.003-1.043zM161.722 103.71l-.003 1.043-32.374-18.691.003-1.043zM156.649 95.685l-.003 1.036-36.214-20.908.003-1.037zM163.855 89.426l-.003 1.044-12.892-7.444.003-1.043zM155.756 89.963 155.753 91l-13.433-7.756.003-1.037zM161.781 83.023l-.003 1.036-41.302-23.845.003-1.037zM171.07 98.805l-.003 1.036-13.225-7.635.003-1.037zM171.085 93.6l-.003 1.044-5.413-3.125.003-1.044zM171.026 114.288l-.003 1.043-5.413-3.125.003-1.044zM171.012 119.492l-.003 1.037-13.225-7.636.003-1.037z"/><path fill="#FED0B5" d="M73.346 69.454c-.364-.211-1.261.76-1.408 1.469-.153.744.063 2.2.433 2.587.243.25.64.585.975.878.602 0 .602-4.934 0-4.934z"/><path fill="#FFD469" d="m151.224 137.27-.008 2.697-.078.556.008-2.697zM132.521 138.33l-.008 2.697-.173-.549.007-2.696zM151.645 138.304l-.008 2.696-.252.538.008-2.697z"/><path fill="#FFD469" d="m132.445 139.354-.008 2.696-.342-.521.008-2.697zM151.736 139.364l-.008 2.696-.417.5.007-2.696z"/><path fill="#FFD469" d="m132.692 140.369-.008 2.696-.499-.478.007-2.696zM151.49 140.413l-.008 2.697-.565.448.007-2.697z"/><path fill="#FFC950" d="m133.254 141.339-.007 2.696-.641-.414.007-2.697zM150.924 140.861l-.007 2.697-.006.558.008-2.697z"/><path fill="#FFD469" d="m150.919 141.419-.008 2.697-.697.379.007-2.697zM133.35 141.895l-.008 2.696-.095-.556.007-2.696z"/><path fill="#FFC950" d="m134.112 142.234-.007 2.697-.763-.34.008-2.696zM150.221 141.798l-.007 2.697-.18.547.008-2.696z"/><path fill="#FFD469" d="m150.042 142.346-.008 2.696-.806.298.008-2.696zM134.381 142.77l-.008 2.696-.268-.535.007-2.697z"/><path fill="#FFC950" d="m135.233 143.022-.007 2.696-.853-.252.008-2.696zM149.236 142.644l-.008 2.696-.346.519.008-2.696z"/><path fill="#FFD469" d="m148.89 143.163-.008 2.696-.886.204.007-2.696zM135.667 143.52l-.008 2.696-.433-.498.007-2.696z"/><path fill="#FFC950" d="m136.585 143.676-.008 2.696-.918-.156.008-2.696zM148.003 143.367l-.007 2.696-.506.473.007-2.696z"/><path fill="#FFD469" d="m147.497 143.84-.007 2.696-.936.107.008-2.697zM137.165 144.12l-.007 2.696-.581-.444.008-2.696z"/><path fill="#FFC950" d="m138.116 144.174-.008 2.696-.95-.054.007-2.696zM146.562 143.946l-.008 2.697-.645.409.007-2.696z"/><path fill="#FFD469" d="m145.916 144.356-.007 2.696-.952.004.008-2.696zM138.826 144.548l-.007 2.696-.711-.374.008-2.696z"/><path fill="#FFC950" d="m139.776 144.5-.008 2.696-.949.048.007-2.696z"/><path fill="#FFD469" d="m144.199 144.693-.008 2.696-.938-.099.007-2.697z"/><path fill="#FFC950" d="m144.965 144.36-.008 2.696-.766.333.008-2.696zM141.512 144.641l-.008 2.697-.918.149.008-2.696z"/><path fill="#FFD469" d="m140.594 144.791-.008 2.696-.818-.291.008-2.696z"/><path fill="#FFC950" d="m143.26 144.593-.007 2.697-.855.247.008-2.697z"/><path fill="#FFD469" d="m142.406 144.84-.008 2.697-.894-.199.008-2.697z"/><path fill="#FFE088" d="m149.456 135.425.271.537.76.338.097.555.64.415-.078.556.499.478-.252.537.343.523-.418.5.172.549-.566.448-.005.558-.698.379-.179.548-.806.298-.346.519-.887.204-.506.473-.935.106-.646.41-.951.004-.766.333-.939-.1-.854.247-.894-.199-.918.15-.818-.291-.95.048-.71-.374-.951-.054-.58-.444-.918-.156-.434-.498-.852-.252-.269-.536-.762-.339-.096-.556-.641-.415.079-.555-.5-.478.253-.537-.342-.522.418-.502-.174-.548.569-.448.002-.558.698-.379.179-.548.806-.298.348-.518.885-.205.506-.473.935-.106.646-.41.955-.004.762-.333.94.098.855-.245.892.199.918-.15.818.291.95-.048.712.373.949.055.582.445.916.155.434.498z"/><path fill="#FFD469" d="M147.56 135.787c-3.137-1.83-8.208-1.834-11.324-.003-1.802 1.058-2.557 2.494-2.265 3.873.207-.998.96-1.96 2.265-2.727 3.116-1.827 8.187-1.827 11.325.003 1.323.772 2.093 1.748 2.3 2.754.292-1.387-.474-2.837-2.3-3.9z"/><path fill="#FFC950" d="M147.56 136.933c-3.137-1.83-8.208-1.83-11.324-.003-1.305.767-2.058 1.729-2.265 2.727.207 1.006.977 1.982 2.3 2.753 3.138 1.83 8.209 1.83 11.325 0 1.305-.766 2.058-1.728 2.265-2.723-.207-1.006-.977-1.982-2.3-2.754z"/><path fill="#FFB839" d="m145.937 137.361-.002.674-.872.512.001-.674zM141.81 138.958l.001-.674c0-.094.062-.177.18-.246.139-.082.307-.125.508-.13.2-.005.428.04.68.13l-.002.674a1.904 1.904 0 0 0-.68-.13c-.2.005-.369.048-.508.13-.118.07-.18.152-.18.246zM144.008 138.493l-.001.674-1.361.798.002-.674z"/><path fill="#FFB839" d="m140.021 138.794.002-.675c0 .182.06.36.18.534.152.219.372.467.664.742l-.002.674a4.975 4.975 0 0 1-.664-.742.931.931 0 0 1-.18-.533zm4.804.663-.002.674a2.519 2.519 0 0 0-.816-.964l.001-.674c.372.273.645.594.817.964z"/><path fill="#FFB839" d="m146.212 139.114-.002.674-1.387.343.002-.674zM141.68 140.398l-.002.674c0-.01 0-.02-.002-.032-.015-.11-.083-.236-.207-.384l.002-.674c.124.148.192.275.207.384l.002.032z"/><path fill="#FFB839" d="m141.471 139.982-.002.674-1.105.649.002-.674z"/><path fill="#FFB839" d="m143.49 140.55-.001.675a.852.852 0 0 1-.012.139l.002-.675a.851.851 0 0 0 .012-.138zm-5.01.246-.002.674a4.404 4.404 0 0 1-.927-.785c-.245-.279-.388-.533-.44-.761l.002-.674c.051.228.195.482.44.76.241.28.552.541.926.786zm4.999-.107-.002.675c-.039.23-.234.449-.587.656-.438.257-.974.382-1.608.377-.635-.004-1.293-.16-1.975-.471l.002-.675c.682.311 1.34.468 1.975.472.634.005 1.17-.12 1.608-.377.353-.207.548-.426.587-.657zM139.309 141.251l-.002.675-.897.526.002-.674z"/><path fill="#FFE088" d="M143.479 140.69c-.039.23-.234.449-.587.656-.438.257-.974.382-1.608.377-.635-.004-1.293-.16-1.975-.472l-.897.527-.805-.47.872-.512a4.404 4.404 0 0 1-.926-.785c-.245-.279-.389-.533-.44-.761l1.422-.315c.053.207.167.42.339.639.173.218.391.42.655.606l1.338-.785a4.974 4.974 0 0 1-.664-.742c-.151-.22-.208-.445-.167-.674.036-.23.235-.45.593-.66.443-.261.985-.39 1.629-.386.64.003 1.303.163 1.986.48l.888-.522.805.47-.873.512c.607.416.99.83 1.148 1.24l-1.387.344a2.519 2.519 0 0 0-.817-.964l-1.36.798c.29.27.512.513.662.729a.877.877 0 0 1 .169.67zm-1.437-1.985 1.137-.667a1.903 1.903 0 0 0-.68-.13c-.201.005-.37.048-.508.13-.133.078-.193.172-.177.281.018.11.093.239.228.386m-1.032 2.058c.19 0 .356-.04.489-.118.133-.078.193-.17.179-.279-.015-.11-.083-.236-.207-.384l-1.105.649c.235.088.45.132.644.132"/><path fill="#FFB839" d="m138.412 141.778-.002.674-.805-.47.002-.674z"/><path fill="#FFF" d="m143.286 144.885-.447.639.637-.45.267 1.54.268-1.54.633.45-.446-.643 1.525-.27-1.525-.27.446-.639-.633.447-.268-1.537-.271 1.54-.633-.45.443.639-1.521.27z"/><path fill="#FFD469" d="m148.463 133.271-.008 2.696-.078.556.007-2.696zM129.759 134.331l-.007 2.696-.174-.549.008-2.696zM148.884 134.304l-.008 2.697-.252.537.007-2.696z"/><path fill="#FFD469" d="m129.683 135.354-.007 2.696-.342-.521.008-2.696zM148.975 135.364l-.008 2.696-.417.5.007-2.696z"/><path fill="#FFD469" d="m129.93 136.369-.007 2.696-.5-.477.008-2.696zM148.729 136.414l-.008 2.696-.565.448.007-2.696z"/><path fill="#FFC950" d="m130.493 137.339-.007 2.697-.642-.415.008-2.696zM148.163 136.862l-.007 2.696-.006.558.008-2.696z"/><path fill="#FFD469" d="m148.158 137.42-.008 2.696-.698.379.008-2.696zM130.588 137.895l-.007 2.697-.095-.556.007-2.697z"/><path fill="#FFC950" d="m131.351 138.235-.008 2.696-.762-.339.007-2.697zM147.46 137.799l-.008 2.696-.179.548.008-2.697z"/><path fill="#FFD469" d="m147.281 138.346-.008 2.697-.806.297.008-2.696zM131.62 138.77l-.008 2.697-.269-.536.008-2.696z"/><path fill="#FFC950" d="m132.472 139.022-.008 2.696-.852-.251.008-2.697zM146.475 138.644l-.008 2.696-.346.52.007-2.697z"/><path fill="#FFD469" d="m146.128 139.163-.007 2.697-.886.204.007-2.696zM132.905 139.52l-.007 2.696-.434-.498.008-2.696z"/><path fill="#FFC950" d="m133.823 139.676-.007 2.697-.918-.157.007-2.696zM145.242 139.368l-.007 2.696-.507.472.008-2.696z"/><path fill="#FFD469" d="m144.736 139.84-.008 2.696-.935.107.007-2.696zM134.404 140.12l-.007 2.697-.581-.444.007-2.697z"/><path fill="#FFC950" d="m135.354 140.174-.007 2.697-.95-.054.007-2.697zM143.8 139.947l-.007 2.696-.646.41.008-2.697z"/><path fill="#FFD469" d="m143.155 140.356-.008 2.697-.951.004.007-2.697zM136.065 140.548l-.008 2.697-.71-.374.007-2.697z"/><path fill="#FFC950" d="m137.015 140.501-.008 2.696-.95.048.008-2.697z"/><path fill="#FFD469" d="m141.437 140.694-.007 2.696-.938-.1.007-2.696z"/><path fill="#FFC950" d="m142.203 140.36-.007 2.697-.766.333.007-2.696zM138.751 140.642l-.008 2.696-.918.149.008-2.696z"/><path fill="#FFD469" d="m137.833 140.791-.008 2.696-.818-.29.008-2.696z"/><path fill="#FFC950" d="m140.499 140.594-.007 2.696-.855.247.007-2.696z"/><path fill="#FFD469" d="m139.644 140.841-.007 2.696-.894-.199.008-2.696z"/><path fill="#FFE088" d="m146.695 131.426.27.536.761.339.097.554.64.416-.079.556.5.477-.253.538.344.522-.418.5.172.55-.566.448-.005.558-.698.379-.179.547-.806.298-.347.519-.886.205-.506.472-.936.107-.645.409-.952.004-.766.334-.938-.1-.855.247-.893-.199-.918.149-.818-.29-.95.047-.711-.374-.95-.054-.581-.444-.918-.156-.433-.498-.852-.252-.269-.535-.763-.34-.095-.556-.641-.414.078-.556-.499-.477.252-.538-.341-.521.417-.502-.173-.549.569-.448.002-.558.698-.379.179-.548.806-.297.348-.518.884-.206.507-.472.935-.107.646-.409.955-.004.762-.334.94.099.855-.245.892.198.918-.149.818.29.949-.047.713.372.948.055.583.445.916.156.433.498z"/><path fill="#FFD469" d="M144.8 131.787c-3.139-1.83-8.21-1.833-11.326-.003-1.8 1.059-2.557 2.495-2.265 3.873.208-.998.96-1.96 2.265-2.726 3.117-1.828 8.187-1.828 11.326.003 1.323.771 2.093 1.747 2.3 2.753.292-1.386-.475-2.836-2.3-3.9z"/><path fill="#FFC950" d="M144.8 132.934c-3.139-1.83-8.21-1.83-11.326-.003-1.304.766-2.057 1.728-2.265 2.726.208 1.006.977 1.982 2.3 2.754 3.14 1.83 8.21 1.83 11.326 0 1.304-.766 2.058-1.728 2.265-2.724-.207-1.006-.977-1.982-2.3-2.753z"/><path fill="#FFB839" d="m143.175 133.361-.001.674-.873.512.002-.674zM139.048 134.959l.002-.674c0-.095.061-.177.18-.247.139-.081.307-.125.508-.13.2-.004.428.04.68.13l-.002.674a1.903 1.903 0 0 0-.68-.129c-.201.004-.37.048-.508.13-.119.069-.18.152-.18.246zM141.247 134.493l-.002.674-1.36.799.002-.674z"/><path fill="#FFB839" d="m137.26 134.794.002-.674c0 .181.06.36.18.534.152.218.372.466.663.741l-.002.675a4.974 4.974 0 0 1-.664-.742.931.931 0 0 1-.18-.534zm4.804.663-.002.675a2.519 2.519 0 0 0-.817-.965l.002-.674c.372.273.644.595.817.964z"/><path fill="#FFB839" d="m143.451 135.114-.002.674-1.387.344.002-.675zM138.919 136.398l-.002.674c0-.01 0-.02-.002-.031-.015-.11-.083-.237-.207-.384l.001-.674c.125.147.193.274.208.384l.002.031z"/><path fill="#FFB839" d="m138.709 135.983-.001.674-1.105.648.002-.674zM140.73 136.551l-.002.674a.855.855 0 0 1-.012.139l.002-.674a.855.855 0 0 0 .012-.139zm-5.012.246-.002.674a4.404 4.404 0 0 1-.926-.786c-.245-.278-.389-.532-.44-.76l.001-.675c.052.229.196.483.44.761.242.279.552.54.927.786z"/><path fill="#FFB839" d="m140.718 136.69-.002.674c-.039.23-.234.45-.587.656-.438.258-.974.383-1.608.377-.636-.004-1.293-.16-1.976-.471l.002-.674c.683.31 1.34.467 1.976.471.634.005 1.17-.12 1.608-.377.353-.207.548-.425.587-.656z"/><path fill="#FFB839" d="m136.547 137.252-.002.674-.896.526.002-.674z"/><path fill="#FFE088" d="M140.718 136.69c-.04.23-.234.45-.587.656-.438.257-.974.382-1.608.377-.636-.004-1.293-.16-1.976-.471l-.896.526-.805-.47.872-.511a4.403 4.403 0 0 1-.926-.786c-.245-.278-.389-.532-.44-.76l1.422-.316c.053.207.167.42.339.64.173.218.391.42.654.606l1.338-.786a4.974 4.974 0 0 1-.664-.741c-.15-.22-.207-.445-.167-.675.037-.23.236-.45.594-.66.443-.26.984-.389 1.629-.386.64.004 1.303.163 1.986.48l.888-.521.804.47-.872.511c.607.417.99.83 1.148 1.241l-1.387.343a2.519 2.519 0 0 0-.817-.964l-1.36.799c.29.27.511.513.662.728a.877.877 0 0 1 .169.67zm-1.437-1.984 1.137-.668a1.904 1.904 0 0 0-.68-.13c-.201.005-.37.049-.508.13-.133.078-.194.173-.177.281.018.11.093.24.228.387m-1.033 2.057c.191 0 .356-.04.49-.118.133-.078.193-.17.179-.278-.015-.11-.083-.237-.208-.384l-1.104.648c.235.088.449.132.643.132"/><path fill="#FFB839" d="m135.651 137.778-.002.674-.805-.469.002-.674z"/><path fill="#FFF" d="m138.993 140.886-.447.639.637-.451.268 1.541.267-1.541.633.451-.446-.643 1.525-.271-1.525-.27.446-.639-.633.447-.267-1.536-.272 1.54-.633-.451.443.639-1.521.27z"/><path fill="#FFD469" d="m153.507 128.154-.007 2.696-.079.556.008-2.696zM134.804 129.214l-.008 2.696-.173-.548.007-2.697zM153.928 129.187l-.008 2.697-.252.537.008-2.696z"/><path fill="#FFD469" d="m134.728 130.237-.008 2.697-.341-.522.007-2.696zM154.019 130.247l-.008 2.697-.417.499.007-2.696z"/><path fill="#FFD469" d="m134.975 131.252-.008 2.697-.499-.478.007-2.696zM153.773 131.297l-.008 2.696-.565.448.008-2.696z"/><path fill="#FFC950" d="m135.538 132.223-.008 2.696-.641-.415.007-2.696zM153.208 131.745l-.008 2.696-.006.558.008-2.696z"/><path fill="#FFD469" d="m153.202 132.303-.008 2.696-.697.379.007-2.696zM135.633 132.778l-.008 2.697-.095-.556.008-2.696z"/><path fill="#FFC950" d="m136.395 133.118-.007 2.696-.763-.339.008-2.697zM152.504 132.682l-.007 2.696-.18.548.008-2.697z"/><path fill="#FFD469" d="m152.325 133.229-.008 2.697-.806.298.008-2.697zM136.664 133.653l-.008 2.697-.268-.536.007-2.696z"/><path fill="#FFC950" d="m137.516 133.905-.007 2.697-.853-.252.008-2.697zM151.519 133.527l-.008 2.697-.346.519.008-2.697z"/><path fill="#FFD469" d="m151.173 134.046-.008 2.697-.886.204.007-2.696zM137.95 134.403l-.008 2.696-.433-.497.007-2.697z"/><path fill="#FFC950" d="m138.868 134.56-.008 2.696-.918-.157.008-2.696zM150.286 134.251l-.007 2.696-.506.472.007-2.696z"/><path fill="#FFD469" d="m149.78 134.723-.007 2.696-.936.107.008-2.696zM139.449 135.004l-.008 2.696-.581-.444.008-2.696z"/><path fill="#FFC950" d="m140.399 135.057-.008 2.697-.95-.054.008-2.696zM148.845 134.83l-.008 2.696-.645.41.007-2.697z"/><path fill="#FFD469" d="m148.199 135.239-.007 2.697-.952.004.008-2.697zM141.109 135.431l-.007 2.697-.711-.374.008-2.697z"/><path fill="#FFC950" d="m142.059 135.384-.007 2.696-.95.048.007-2.697z"/><path fill="#FFD469" d="m146.482 135.577-.008 2.696-.938-.1.008-2.696z"/><path fill="#FFC950" d="m147.248 135.243-.008 2.697-.766.333.008-2.696zM143.795 135.525l-.008 2.696-.918.15.008-2.697z"/><path fill="#FFD469" d="m142.877 135.674-.008 2.697-.817-.291.007-2.696z"/><path fill="#FFC950" d="m145.544 135.477-.008 2.696-.855.247.008-2.696z"/><path fill="#FFD469" d="m144.689 135.724-.008 2.696-.894-.199.008-2.696z"/><path fill="#FFE088" d="m151.739 126.309.271.536.761.339.096.554.64.416-.078.556.499.477-.252.538.343.522-.418.5.172.55-.565.448-.006.558-.698.379-.179.547-.806.298-.346.519-.887.205-.506.472-.935.107-.646.409-.951.004-.766.334-.938-.1-.855.247-.894-.199-.918.149-.818-.29-.95.047-.71-.374-.95-.053-.581-.444-.918-.157-.434-.498-.852-.252-.269-.535-.762-.34-.095-.555-.642-.415.079-.556-.5-.477.253-.538-.342-.521.418-.502-.174-.549.569-.448.002-.558.698-.379.179-.547.806-.298.348-.518.885-.206.506-.472.936-.107.645-.409.955-.004.762-.334.941.099.854-.245.892.198.918-.149.818.29.95-.047.712.373.949.054.582.445.916.156.434.498z"/><path fill="#FFD469" d="M149.844 126.67c-3.138-1.83-8.209-1.833-11.325-.003-1.801 1.059-2.557 2.495-2.265 3.873.207-.998.96-1.96 2.265-2.726 3.116-1.827 8.187-1.827 11.325.003 1.323.772 2.093 1.747 2.3 2.753.292-1.386-.474-2.836-2.3-3.9z"/><path fill="#FFC950" d="M149.844 127.817c-3.138-1.83-8.209-1.83-11.325-.003-1.305.766-2.058 1.728-2.265 2.726.207 1.006.977 1.982 2.3 2.754 3.138 1.83 8.209 1.83 11.325 0 1.305-.766 2.058-1.728 2.265-2.724-.207-1.006-.977-1.981-2.3-2.753z"/><path fill="#FFB839" d="m148.22 128.244-.002.674-.872.513.002-.675zM144.093 129.842l.002-.674c0-.094.06-.177.18-.247.138-.081.306-.125.508-.129.2-.005.427.039.68.13l-.003.673a1.904 1.904 0 0 0-.68-.129c-.2.004-.369.048-.507.13-.12.069-.18.152-.18.246zM146.292 129.376l-.002.674-1.361.799.002-.674z"/><path fill="#FFB839" d="m142.304 129.677.002-.674c0 .181.06.36.18.534.152.218.372.466.664.742l-.002.674a4.973 4.973 0 0 1-.664-.742.931.931 0 0 1-.18-.534zm4.804.664-.002.674a2.519 2.519 0 0 0-.816-.965l.002-.674c.371.274.644.595.816.965zM148.495 129.997l-.001.674-1.388.344.002-.674zM143.963 131.281l-.002.675c0-.01 0-.021-.002-.032-.014-.11-.083-.237-.207-.384l.002-.674c.124.147.192.274.207.384l.002.031z"/><path fill="#FFB839" d="m143.754 130.866-.002.674-1.104.648.001-.674z"/><path fill="#FFB839" d="m145.774 131.434-.002.674a.851.851 0 0 1-.012.14l.002-.675a.852.852 0 0 0 .012-.139zm-5.011.246-.002.674a4.404 4.404 0 0 1-.927-.786c-.245-.278-.388-.532-.44-.76l.002-.675c.052.229.195.483.44.761.241.279.552.54.927.786zm4.999-.107-.002.674c-.039.23-.234.45-.587.657-.438.257-.974.382-1.608.377-.635-.004-1.293-.161-1.975-.472l.002-.674c.682.31 1.34.467 1.975.471.634.006 1.17-.12 1.608-.377.353-.207.548-.425.587-.656zM141.592 132.135l-.002.674-.897.526.002-.674z"/><path fill="#FFE088" d="M145.762 131.573c-.039.23-.234.45-.587.656-.438.258-.974.383-1.608.377-.635-.004-1.293-.16-1.975-.471l-.897.526-.805-.47.873-.511a4.403 4.403 0 0 1-.927-.786c-.245-.278-.388-.532-.44-.76l1.422-.316c.054.208.168.42.339.64.173.218.391.42.655.606l1.338-.785a4.974 4.974 0 0 1-.664-.742c-.15-.22-.208-.445-.167-.675.037-.23.235-.45.593-.66.443-.26.985-.388 1.629-.385.64.003 1.303.162 1.986.48l.888-.522.805.47-.872.511c.606.417.989.83 1.147 1.241l-1.387.344a2.52 2.52 0 0 0-.816-.965l-1.361.799c.29.27.512.513.662.728a.877.877 0 0 1 .169.67zm-1.437-1.984 1.137-.668a1.904 1.904 0 0 0-.68-.129c-.2.004-.37.048-.508.13-.133.077-.193.172-.177.28.018.11.094.24.228.387m-1.032 2.057c.19 0 .356-.04.489-.118.133-.078.193-.17.179-.278-.015-.11-.083-.237-.207-.384l-1.105.648c.235.089.45.132.644.132"/><path fill="#FFB839" d="m140.695 132.661-.002.674-.805-.469.002-.674z"/><path fill="#FFF" d="m150.27 134.178-.446.638.636-.45.268 1.54.268-1.54.632.45-.446-.642 1.525-.271-1.525-.27.446-.639-.632.447-.268-1.537-.272 1.541-.632-.451.442.639-1.521.27z"/><path fill="#FFD469" d="m151.224 123.725-.008 2.696-.078.556.008-2.696zM132.521 124.785l-.008 2.696-.173-.548.007-2.697zM151.645 124.758l-.008 2.697-.252.537.008-2.696z"/><path fill="#FFD469" d="m132.445 125.808-.008 2.696-.342-.521.008-2.696zM151.736 125.818l-.008 2.697-.417.499.007-2.696z"/><path fill="#FFD469" d="m132.692 126.823-.008 2.697-.499-.478.007-2.696zM151.49 126.868l-.008 2.696-.565.448.007-2.696z"/><path fill="#FFC950" d="m133.254 127.794-.007 2.696-.641-.415.007-2.696zM150.924 127.316l-.007 2.696-.006.558.008-2.696z"/><path fill="#FFD469" d="m150.919 127.874-.008 2.696-.697.379.007-2.696zM133.35 128.349l-.008 2.697-.095-.556.007-2.696z"/><path fill="#FFC950" d="m134.112 128.689-.007 2.696-.763-.339.008-2.697zM150.221 128.253l-.007 2.696-.18.548.008-2.697z"/><path fill="#FFD469" d="m150.042 128.8-.008 2.697-.806.297.008-2.696zM134.381 129.224l-.008 2.697-.268-.536.007-2.696z"/><path fill="#FFC950" d="m135.233 129.476-.007 2.697-.853-.252.008-2.697zM149.236 129.098l-.008 2.696-.346.52.008-2.697z"/><path fill="#FFD469" d="m148.89 129.617-.008 2.697-.886.204.007-2.696zM135.667 129.974l-.008 2.696-.433-.497.007-2.697z"/><path fill="#FFC950" d="m136.585 130.131-.008 2.696-.918-.157.008-2.696zM148.003 129.822l-.007 2.696-.506.472.007-2.696z"/><path fill="#FFD469" d="m147.497 130.294-.007 2.696-.936.107.008-2.696zM137.165 130.575l-.007 2.696-.581-.444.008-2.696z"/><path fill="#FFC950" d="m138.116 130.628-.008 2.697-.95-.054.007-2.696zM146.562 130.401l-.008 2.696-.645.41.007-2.697z"/><path fill="#FFD469" d="m145.916 130.81-.007 2.697-.952.004.008-2.697zM138.826 131.002l-.007 2.697-.711-.374.008-2.697z"/><path fill="#FFC950" d="m139.776 130.955-.008 2.696-.949.048.007-2.697z"/><path fill="#FFD469" d="m144.199 131.148-.008 2.696-.938-.1.007-2.696z"/><path fill="#FFC950" d="m144.965 130.814-.008 2.697-.766.333.008-2.696zM141.512 131.096l-.008 2.696-.918.15.008-2.697z"/><path fill="#FFD469" d="m140.594 131.245-.008 2.697-.818-.291.008-2.696z"/><path fill="#FFC950" d="m143.26 131.048-.007 2.696-.855.247.008-2.696z"/><path fill="#FFD469" d="m142.406 131.295-.008 2.696-.894-.199.008-2.696z"/><path fill="#FFE088" d="m149.456 121.88.271.536.76.339.097.554.64.416-.078.556.499.477-.252.538.343.522-.418.5.172.55-.566.448-.005.558-.698.379-.179.547-.806.298-.346.519-.887.205-.506.472-.935.107-.646.409-.951.004-.766.334-.939-.1-.854.247-.894-.199-.918.149-.818-.29-.95.047-.71-.374-.951-.053-.58-.444-.918-.157-.434-.498-.852-.252-.269-.535-.762-.34-.096-.555-.641-.415.079-.556-.5-.477.253-.538-.342-.521.418-.502-.174-.549.569-.448.002-.558.698-.379.179-.547.806-.298.348-.518.885-.206.506-.472.935-.107.646-.409.955-.004.762-.334.94.099.855-.245.892.198.918-.149.818.29.95-.047.712.373.949.054.582.445.916.156.434.498z"/><path fill="#FFD469" d="M147.56 122.241c-3.137-1.83-8.208-1.833-11.324-.003-1.802 1.059-2.557 2.495-2.265 3.873.207-.998.96-1.96 2.265-2.726 3.116-1.828 8.187-1.828 11.325.003 1.323.772 2.093 1.747 2.3 2.753.292-1.386-.474-2.836-2.3-3.9z"/><path fill="#FFC950" d="M147.56 123.388c-3.137-1.83-8.208-1.83-11.324-.003-1.305.766-2.058 1.728-2.265 2.726.207 1.006.977 1.982 2.3 2.754 3.138 1.83 8.209 1.83 11.325 0 1.305-.766 2.058-1.728 2.265-2.724-.207-1.006-.977-1.981-2.3-2.753z"/><path fill="#FFB839" d="m145.937 123.815-.002.674-.872.512.001-.674zM141.81 125.413l.001-.674c0-.094.062-.177.18-.247.139-.081.307-.125.508-.129.2-.005.428.039.68.129l-.002.674a1.904 1.904 0 0 0-.68-.129c-.2.004-.369.048-.508.13-.118.069-.18.152-.18.246zM144.008 124.947l-.001.674-1.361.799.002-.674z"/><path fill="#FFB839" d="m140.021 125.248.002-.674c0 .181.06.36.18.534.152.218.372.466.664.742l-.002.674a4.974 4.974 0 0 1-.664-.742.931.931 0 0 1-.18-.534zm4.804.664-.002.674a2.519 2.519 0 0 0-.816-.965l.001-.674c.372.274.645.595.817.965z"/><path fill="#FFB839" d="m146.212 125.568-.002.674-1.387.344.002-.674zM141.68 126.852l-.002.675c0-.01 0-.021-.002-.032-.015-.11-.083-.237-.207-.384l.002-.674c.124.147.192.274.207.384l.002.031z"/><path fill="#FFB839" d="m141.471 126.437-.002.674-1.105.648.002-.674z"/><path fill="#FFB839" d="m143.49 127.005-.001.674a.852.852 0 0 1-.012.14l.002-.675a.851.851 0 0 0 .012-.139zm-5.01.246-.002.674a4.403 4.403 0 0 1-.927-.786c-.245-.278-.388-.532-.44-.76l.002-.675c.051.229.195.483.44.761.241.279.552.54.926.786zm4.999-.107-.002.674c-.039.23-.234.45-.587.657-.438.257-.974.382-1.608.377-.635-.005-1.293-.161-1.975-.472l.002-.674c.682.31 1.34.467 1.975.471.634.006 1.17-.12 1.608-.377.353-.207.548-.425.587-.656zM139.309 127.706l-.002.674-.897.526.002-.674z"/><path fill="#FFE088" d="M143.479 127.144c-.039.23-.234.45-.587.656-.438.257-.974.383-1.608.377-.635-.004-1.293-.16-1.975-.471l-.897.526-.805-.47.872-.511a4.403 4.403 0 0 1-.926-.786c-.245-.278-.389-.532-.44-.76l1.422-.316c.053.208.167.42.339.64.173.218.391.42.655.606l1.338-.785a4.974 4.974 0 0 1-.664-.742c-.151-.22-.208-.445-.167-.675.036-.23.235-.45.593-.66.443-.26.985-.389 1.629-.385.64.003 1.303.162 1.986.48l.888-.522.805.47-.873.511c.607.417.99.83 1.148 1.241l-1.387.344a2.519 2.519 0 0 0-.817-.965l-1.36.799c.29.27.512.513.662.728a.877.877 0 0 1 .169.67zm-1.437-1.984 1.137-.668a1.904 1.904 0 0 0-.68-.129c-.201.004-.37.048-.508.13-.133.077-.193.172-.177.28.018.11.093.24.228.387m-1.032 2.057c.19 0 .356-.04.489-.118.133-.078.193-.17.179-.278-.015-.11-.083-.237-.207-.384l-1.105.648c.235.089.45.132.644.132"/><path fill="#FFB839" d="m138.412 128.232-.002.674-.805-.469.002-.674z"/><path fill="#FFF" d="m135.737 130.147-.447.639.637-.451.268 1.541.267-1.541.633.451-.446-.643 1.525-.27-1.525-.271.446-.639-.633.447-.267-1.536-.272 1.54-.633-.451.443.639-1.521.271z"/><path fill="#FFD469" d="m129.022 149.969-.007 2.697-.079.556.008-2.697zM110.319 151.029l-.008 2.697-.173-.549.008-2.696zM129.443 151.003l-.007 2.696-.253.538.008-2.697z"/><path fill="#FFD469" d="m110.243 152.053-.008 2.696-.341-.521.007-2.697zM129.534 152.063l-.007 2.696-.418.5.008-2.697z"/><path fill="#FFD469" d="m110.49 153.068-.008 2.696-.499-.478.008-2.696zM129.288 153.112l-.007 2.697-.566.448.008-2.697z"/><path fill="#FFC950" d="m111.053 154.038-.008 2.696-.641-.414.008-2.697zM128.723 153.56l-.008 2.697-.005.558.007-2.697z"/><path fill="#FFD469" d="m128.717 154.118-.007 2.697-.698.379.008-2.697zM111.148 154.594l-.007 2.696-.096-.556.008-2.696z"/><path fill="#FFC950" d="m111.911 154.933-.008 2.697-.762-.34.007-2.696zM128.02 154.497l-.008 2.697-.179.547.007-2.696z"/><path fill="#FFD469" d="m127.84 155.045-.007 2.696-.806.298.007-2.696zM112.179 155.469l-.007 2.696-.269-.535.008-2.697z"/><path fill="#FFC950" d="m113.032 155.721-.008 2.696-.852-.252.007-2.696zM127.034 155.343l-.007 2.696-.346.519.007-2.696z"/><path fill="#FFD469" d="m126.688 155.862-.007 2.696-.887.204.008-2.696zM113.465 156.219l-.007 2.696-.434-.498.008-2.696z"/><path fill="#FFC950" d="m114.383 156.375-.008 2.696-.917-.156.007-2.696zM125.802 156.066l-.008 2.696-.506.473.008-2.697z"/><path fill="#FFD469" d="m125.296 156.538-.008 2.697-.935.107.007-2.697zM114.964 156.819l-.008 2.696-.581-.444.008-2.696z"/><path fill="#FFC950" d="m115.914 156.873-.008 2.696-.95-.054.008-2.696zM124.36 156.645l-.007 2.697-.646.409.008-2.696z"/><path fill="#FFD469" d="m123.715 157.055-.008 2.696-.952.004.008-2.696zM116.625 157.247l-.008 2.696-.711-.374.008-2.696z"/><path fill="#FFC950" d="m117.574 157.199-.007 2.696-.95.048.008-2.696z"/><path fill="#FFD469" d="m121.997 157.392-.007 2.696-.939-.099.008-2.697z"/><path fill="#FFC950" d="m122.763 157.059-.008 2.696-.765.333.007-2.696zM119.31 157.34l-.007 2.697-.918.149.007-2.696z"/><path fill="#FFD469" d="m118.392 157.49-.007 2.696-.818-.291.007-2.696z"/><path fill="#FFC950" d="m121.059 157.292-.008 2.697-.855.247.008-2.697z"/><path fill="#FFD469" d="m120.204 157.539-.008 2.697-.893-.199.007-2.697z"/><path fill="#FFE088" d="m127.255 148.124.27.537.761.338.097.555.639.415-.078.556.499.478-.252.537.343.523-.417.499.171.55-.565.448-.006.558-.697.379-.18.548-.806.298-.346.519-.886.204-.506.472-.936.107-.645.41-.952.004-.766.333-.938-.1-.855.247-.894-.199-.918.15-.818-.291-.949.048-.711-.374-.95-.054-.581-.444-.918-.156-.433-.498-.853-.252-.268-.536-.763-.339-.095-.556-.641-.415.078-.555-.499-.478.252-.537-.342-.522.418-.502-.173-.548.569-.449.002-.557.697-.379.18-.548.806-.298.348-.518.884-.205.506-.473.936-.106.645-.41.955-.004.763-.333.94.098.855-.245.892.199.918-.15.817.291.95-.048.713.373.948.055.583.445.916.155.433.498z"/><path fill="#FFD469" d="M125.36 148.485c-3.14-1.83-8.21-1.833-11.326-.002-1.801 1.058-2.557 2.494-2.265 3.873.207-.998.96-1.96 2.265-2.727 3.116-1.827 8.187-1.827 11.325.003 1.324.772 2.093 1.748 2.3 2.754.293-1.387-.474-2.837-2.3-3.9z"/><path fill="#FFC950" d="M125.36 149.632c-3.14-1.83-8.21-1.83-11.326-.003-1.304.767-2.058 1.729-2.265 2.727.207 1.006.977 1.981 2.3 2.753 3.139 1.83 8.21 1.83 11.326 0 1.304-.766 2.057-1.728 2.265-2.723-.208-1.006-.977-1.982-2.3-2.754z"/><path fill="#FFB839" d="m123.735 150.06-.002.674-.872.512.002-.674zM119.608 151.657l.002-.674c0-.094.06-.177.18-.247.138-.08.306-.125.508-.129.2-.005.427.039.68.13l-.002.674a1.904 1.904 0 0 0-.68-.13c-.201.005-.37.048-.508.13-.119.07-.18.152-.18.246zM121.807 151.192l-.002.674-1.361.798.002-.674z"/><path fill="#FFB839" d="m117.82 151.492.001-.674c0 .181.06.36.18.534.152.219.372.467.664.742l-.002.674a4.975 4.975 0 0 1-.664-.742.931.931 0 0 1-.18-.534zm4.803.664-.002.674a2.519 2.519 0 0 0-.816-.964l.002-.674c.371.273.644.594.816.964zM124.011 151.812l-.002.675-1.388.343.002-.674zM119.478 153.097l-.002.674c0-.01 0-.02-.002-.032-.014-.11-.083-.236-.207-.384l.002-.674c.124.148.193.275.207.384.002.011.002.022.002.032z"/><path fill="#FFB839" d="m119.269 152.681-.002.674-1.104.649.002-.674z"/><path fill="#FFB839" d="m121.29 153.25-.003.674a.852.852 0 0 1-.012.139l.002-.675a.852.852 0 0 0 .012-.138zm-5.012.245-.002.674a4.403 4.403 0 0 1-.926-.785c-.245-.279-.389-.533-.44-.761l.001-.674c.052.228.196.482.44.76.242.28.552.541.927.786zm5-.107-.003.675c-.038.23-.233.449-.586.656-.438.257-.974.382-1.608.377-.636-.004-1.293-.16-1.976-.472l.002-.674c.683.311 1.34.468 1.976.472.634.005 1.17-.12 1.607-.377.354-.207.549-.426.587-.657zM117.107 153.95l-.002.674-.896.527.001-.674z"/><path fill="#FFE088" d="M121.277 153.388c-.038.231-.233.45-.587.657-.437.257-.973.382-1.607.377-.636-.004-1.293-.16-1.976-.472l-.897.527-.804-.47.872-.512a4.403 4.403 0 0 1-.927-.785c-.244-.279-.388-.533-.44-.761l1.423-.315c.053.207.167.42.338.639.173.218.392.42.655.606l1.338-.785a4.975 4.975 0 0 1-.664-.742c-.15-.22-.207-.445-.167-.674.037-.23.235-.45.594-.66.443-.261.984-.39 1.628-.386.641.003 1.304.163 1.986.48l.888-.522.805.47-.872.512c.606.416.99.83 1.148 1.24l-1.388.344a2.519 2.519 0 0 0-.816-.964l-1.36.798c.29.27.511.513.662.729a.877.877 0 0 1 .168.67zm-1.437-1.984 1.138-.668a1.904 1.904 0 0 0-.68-.129c-.202.004-.37.048-.508.13-.134.078-.194.172-.178.28.018.11.094.24.228.387m-1.032 2.058c.191 0 .356-.04.49-.118.132-.078.193-.171.178-.279-.014-.11-.083-.236-.207-.384l-1.104.649c.235.088.449.132.643.132"/><path fill="#FFB839" d="m116.21 154.477-.001.674-.805-.47.002-.674z"/><path fill="#FFF" d="m121.084 157.584-.446.639.636-.45.268 1.54.268-1.54.632.45-.446-.643 1.525-.27-1.525-.27.446-.639-.632.447-.268-1.537-.272 1.54-.632-.45.442.639-1.521.27z"/><path fill="#FFD469" d="m128.544 145.965-.007 2.696-.079.556.008-2.696zM109.841 147.025l-.008 2.696-.173-.549.007-2.696zM128.965 146.998l-.007 2.697-.253.537.008-2.696z"/><path fill="#FFD469" d="m109.765 148.048-.008 2.696-.341-.521.007-2.696zM129.056 148.058l-.008 2.696-.417.5.008-2.696z"/><path fill="#FFD469" d="m110.012 149.063-.008 2.696-.499-.477.007-2.697zM128.81 149.108l-.007 2.696-.566.448.008-2.696z"/><path fill="#FFC950" d="m110.575 150.033-.008 2.697-.641-.415.007-2.696zM128.245 149.556l-.008 2.696-.005.558.007-2.696z"/><path fill="#FFD469" d="m128.239 150.114-.007 2.696-.698.379.007-2.696zM110.67 150.589l-.008 2.697-.095-.556.008-2.697z"/><path fill="#FFC950" d="m111.432 150.929-.007 2.696-.763-.339.008-2.697zM127.541 150.493l-.007 2.696-.179.548.007-2.697z"/><path fill="#FFD469" d="m127.362 151.04-.007 2.697-.806.297.007-2.696zM111.701 151.464l-.007 2.696-.269-.535.007-2.696z"/><path fill="#FFC950" d="m112.554 151.716-.008 2.696-.852-.252.007-2.696zM126.556 151.338l-.007 2.696-.347.52.008-2.697z"/><path fill="#FFD469" d="m126.21 151.857-.008 2.697-.886.204.008-2.697zM112.987 152.214l-.008 2.696-.433-.498.008-2.696z"/><path fill="#FFC950" d="m113.905 152.37-.008 2.697-.918-.157.008-2.696zM125.324 152.061l-.008 2.697-.506.472.007-2.696z"/><path fill="#FFD469" d="m124.817 152.534-.007 2.696-.936.107.008-2.696zM114.486 152.814l-.008 2.697-.581-.444.008-2.697z"/><path fill="#FFC950" d="m115.436 152.868-.008 2.697-.95-.054.008-2.697zM123.882 152.641l-.008 2.696-.645.409.007-2.696z"/><path fill="#FFD469" d="m123.236 153.05-.007 2.696-.952.005.008-2.697zM116.147 153.242l-.008 2.697-.711-.374.008-2.697z"/><path fill="#FFC950" d="m117.096 153.194-.007 2.697-.95.048.008-2.697z"/><path fill="#FFD469" d="m121.519 153.387-.008 2.697-.938-.1.008-2.696z"/><path fill="#FFC950" d="m122.285 153.054-.008 2.697-.766.333.008-2.697zM118.832 153.336l-.008 2.696-.917.149.007-2.696z"/><path fill="#FFD469" d="m117.914 153.485-.007 2.696-.818-.29.007-2.697z"/><path fill="#FFC950" d="m120.581 153.288-.008 2.696-.855.247.008-2.696z"/><path fill="#FFD469" d="m119.726 153.535-.008 2.696-.894-.199.008-2.696z"/><path fill="#FFE088" d="m126.776 144.12.271.536.761.339.097.554.639.416-.078.556.499.477-.252.538.343.522-.417.5.171.55-.565.448-.006.558-.698.379-.179.547-.806.298-.346.519-.886.204-.507.473-.935.107-.646.409-.951.004-.766.333-.938-.099-.855.247-.894-.199-.918.149-.818-.291-.949.048-.711-.374-.95-.054-.581-.444-.918-.156-.433-.498-.853-.252-.269-.535-.762-.34-.095-.556-.642-.414.079-.556-.5-.478.253-.537-.342-.521.418-.502-.174-.549.569-.448.002-.558.698-.379.18-.548.805-.297.348-.519.885-.205.506-.472.936-.107.645-.409.955-.005.763-.333.94.099.854-.245.893.198.917-.149.818.29.95-.048.712.373.949.055.582.445.917.156.433.498z"/><path fill="#FFD469" d="M124.881 144.48c-3.138-1.83-8.209-1.832-11.325-.002-1.801 1.059-2.557 2.495-2.265 3.873.207-.998.96-1.96 2.265-2.726 3.116-1.828 8.187-1.828 11.325.003 1.324.771 2.093 1.747 2.3 2.753.293-1.386-.474-2.836-2.3-3.9z"/><path fill="#FFC950" d="M124.881 145.628c-3.138-1.83-8.209-1.83-11.325-.003-1.305.766-2.058 1.728-2.265 2.726.207 1.006.977 1.982 2.3 2.754 3.139 1.83 8.209 1.83 11.326 0 1.304-.767 2.057-1.729 2.265-2.724-.208-1.006-.977-1.982-2.3-2.753z"/><path fill="#FFB839" d="m123.257 146.055-.002.674-.872.512.002-.674zM119.13 147.653l.002-.674c0-.095.06-.177.18-.247.138-.081.306-.125.508-.13.2-.004.427.04.68.13l-.002.674a1.904 1.904 0 0 0-.68-.129c-.202.004-.37.048-.508.129-.12.07-.18.152-.18.247zM121.329 147.187l-.002.674-1.361.799.002-.674z"/><path fill="#FFB839" d="m117.341 147.488.002-.674c0 .18.06.36.18.534.152.218.372.466.664.741l-.002.675a4.974 4.974 0 0 1-.664-.742.931.931 0 0 1-.18-.534zm4.804.663-.002.674a2.52 2.52 0 0 0-.816-.964l.002-.674c.371.273.644.594.816.964z"/><path fill="#FFB839" d="m123.533 147.808-.002.674-1.388.343.002-.674zM119 149.092l-.002.674c0-.01 0-.02-.002-.031-.014-.11-.083-.237-.207-.384l.002-.674c.124.147.193.274.207.384a.23.23 0 0 1 .002.031zM118.791 148.677l-.002.674-1.104.648.002-.674z"/><path fill="#FFB839" d="m120.811 149.245-.002.674a.852.852 0 0 1-.012.139l.002-.674a.852.852 0 0 0 .012-.139zm-5.011.246-.002.674a4.403 4.403 0 0 1-.927-.786c-.244-.278-.388-.532-.44-.76l.002-.675c.052.229.195.483.44.761.241.279.552.54.927.786zm5-.107-.003.674c-.038.23-.234.45-.587.656-.438.257-.974.382-1.607.377-.636-.004-1.293-.16-1.976-.471l.002-.674c.682.31 1.34.467 1.975.471.634.005 1.17-.12 1.608-.377.353-.207.548-.425.587-.656zM116.629 149.946l-.002.674-.897.526.002-.674z"/><path fill="#FFE088" d="M120.8 149.384c-.04.23-.235.449-.588.656-.438.257-.974.382-1.608.377-.635-.004-1.293-.16-1.975-.471l-.897.526-.805-.47.873-.511a4.403 4.403 0 0 1-.927-.786c-.245-.278-.388-.532-.44-.76l1.422-.316c.054.207.168.42.34.64.172.218.39.42.654.606l1.338-.786a4.974 4.974 0 0 1-.664-.741c-.15-.22-.208-.445-.167-.675.037-.23.235-.45.593-.66.444-.26.985-.389 1.63-.386.64.003 1.303.163 1.985.48l.888-.521.805.47-.872.511c.606.417.989.83 1.148 1.24l-1.388.344a2.52 2.52 0 0 0-.816-.964l-1.36.799c.289.27.51.513.661.728a.877.877 0 0 1 .17.67zm-1.438-1.985 1.137-.667a1.904 1.904 0 0 0-.68-.13c-.2.005-.369.049-.507.13-.134.078-.194.173-.178.281.018.11.094.24.228.386m-1.032 2.058c.191 0 .356-.04.489-.118.133-.078.194-.17.18-.278-.015-.11-.084-.237-.208-.384l-1.104.648c.235.088.448.132.643.132"/><path fill="#FFB839" d="m115.732 150.472-.002.674-.805-.469.002-.674z"/><path fill="#FFF" d="m119.074 153.58-.446.639.636-.451.268 1.541.268-1.541.632.451-.446-.643 1.525-.271-1.525-.27.446-.639-.632.447-.268-1.536-.272 1.54-.632-.451.442.639-1.521.27z"/><path fill="#FFD469" d="m129.834 140.998-.008 2.697-.078.555.007-2.696zM111.13 142.058l-.007 2.696-.174-.548.008-2.697zM130.255 142.032l-.008 2.696-.252.537.007-2.696z"/><path fill="#FFD469" d="m111.054 143.081-.007 2.697-.342-.522.008-2.696zM130.346 143.091l-.008 2.697-.417.5.007-2.697z"/><path fill="#FFD469" d="m111.301 144.096-.007 2.697-.5-.478.008-2.696zM130.1 144.141l-.008 2.696-.565.448.007-2.696z"/><path fill="#FFC950" d="m111.864 145.067-.007 2.696-.642-.414.008-2.697zM129.534 144.589l-.007 2.696-.006.558.008-2.696z"/><path fill="#FFD469" d="m129.529 145.147-.008 2.696-.698.379.008-2.696zM111.959 145.623l-.007 2.696-.095-.556.007-2.696z"/><path fill="#FFC950" d="m112.722 145.962-.008 2.696-.762-.339.007-2.696zM128.831 145.526l-.008 2.696-.179.548.008-2.696z"/><path fill="#FFD469" d="m128.652 146.074-.008 2.696-.806.298.008-2.697zM112.991 146.497l-.008 2.697-.269-.536.008-2.696z"/><path fill="#FFC950" d="m113.843 146.749-.008 2.697-.852-.252.008-2.697zM127.846 146.371l-.008 2.697-.346.519.007-2.696z"/><path fill="#FFD469" d="m127.499 146.891-.007 2.696-.886.204.007-2.696zM114.276 147.247l-.007 2.697-.434-.498.008-2.697z"/><path fill="#FFC950" d="m115.194 147.404-.007 2.696-.918-.156.007-2.697zM126.613 147.095l-.007 2.696-.507.473.008-2.697z"/><path fill="#FFD469" d="m126.107 147.567-.008 2.697-.935.106.007-2.696zM115.775 147.848l-.007 2.696-.581-.444.007-2.696z"/><path fill="#FFC950" d="m116.725 147.902-.007 2.696-.95-.054.007-2.696zM125.171 147.674l-.007 2.696-.646.41.008-2.697z"/><path fill="#FFD469" d="m124.526 148.083-.008 2.697-.951.004.007-2.696zM117.436 148.276l-.008 2.696-.71-.374.007-2.696z"/><path fill="#FFC950" d="m118.386 148.228-.008 2.696-.95.048.008-2.696z"/><path fill="#FFD469" d="m122.808 148.421-.007 2.696-.938-.099.007-2.697z"/><path fill="#FFC950" d="m123.574 148.088-.007 2.696-.766.333.007-2.696zM120.121 148.369l-.007 2.696-.918.15.008-2.697z"/><path fill="#FFD469" d="m119.204 148.518-.008 2.697-.818-.291.008-2.696z"/><path fill="#FFC950" d="m121.87 148.321-.007 2.697-.855.247.007-2.697z"/><path fill="#FFD469" d="m121.015 148.568-.007 2.697-.894-.2.007-2.696z"/><path fill="#FFE088" d="m128.066 139.153.27.536.761.339.097.555.64.415-.079.556.5.478-.253.537.344.522-.418.5.172.55-.566.448-.005.558-.698.379-.179.548-.806.297-.347.52-.886.204-.506.472-.936.107-.645.409-.952.005-.766.333-.938-.1-.855.247-.894-.199-.917.149-.818-.29-.95.048-.711-.374-.95-.054-.581-.444-.918-.157-.433-.498-.852-.252-.269-.535-.763-.339-.095-.556-.641-.415.078-.556-.499-.477.252-.538-.341-.521.417-.502-.173-.549.569-.448.002-.558.698-.379.179-.547.806-.298.348-.518.884-.205.507-.473.935-.107.646-.409.955-.004.762-.333.94.098.855-.245.892.198.918-.149.818.291.949-.048.713.373.948.055.583.445.916.155.433.498z"/><path fill="#FFD469" d="M126.17 139.514c-3.138-1.83-8.208-1.833-11.325-.002-1.8 1.058-2.557 2.494-2.265 3.872.208-.997.96-1.96 2.265-2.726 3.117-1.827 8.187-1.827 11.326.003 1.323.772 2.093 1.748 2.3 2.754.292-1.387-.475-2.837-2.3-3.9z"/><path fill="#FFC950" d="M126.17 140.661c-3.138-1.83-8.208-1.83-11.325-.003-1.304.767-2.057 1.729-2.265 2.726.208 1.006.977 1.982 2.3 2.754 3.14 1.83 8.21 1.83 11.326 0 1.304-.766 2.058-1.728 2.265-2.723-.207-1.006-.977-1.982-2.3-2.754z"/><path fill="#FFB839" d="m124.546 141.089-.001.674-.873.512.002-.674zM120.42 142.686l.001-.674c0-.094.061-.177.18-.247.139-.081.307-.125.508-.129.2-.005.428.039.68.13l-.002.673a1.903 1.903 0 0 0-.68-.129c-.201.004-.37.048-.508.13-.119.07-.18.152-.18.246zM122.618 142.22l-.002.675-1.36.798.002-.674zM118.63 142.521l.003-.674c0 .181.06.36.18.534.152.218.372.466.663.742l-.002.674a4.974 4.974 0 0 1-.664-.742.931.931 0 0 1-.18-.534zm4.805.664-.002.674a2.519 2.519 0 0 0-.817-.964l.002-.675c.372.274.644.595.817.965zM124.822 142.841l-.002.674-1.387.344.002-.674zM120.29 144.126l-.002.674c0-.01 0-.021-.002-.032-.015-.11-.083-.237-.207-.384l.001-.674c.125.147.193.274.208.384a.23.23 0 0 1 .002.032zM120.08 143.71l-.001.674-1.105.648.002-.674zM122.1 144.278l-.001.675a.853.853 0 0 1-.012.138l.002-.674a.853.853 0 0 0 .011-.139zm-5.01.246-.003.674a4.404 4.404 0 0 1-.926-.785c-.245-.279-.389-.533-.44-.761l.001-.675c.052.23.196.483.44.762.242.278.552.54.927.785z"/><path fill="#FFB839" d="m122.089 144.417-.002.674c-.039.231-.234.45-.587.657-.438.257-.974.382-1.608.377-.636-.004-1.293-.16-1.976-.472l.002-.674c.683.311 1.34.468 1.976.472.634.005 1.17-.12 1.608-.377.353-.208.548-.426.587-.657z"/><path fill="#FFB839" d="m117.918 144.979-.002.674-.896.527.002-.675z"/><path fill="#FFE088" d="M122.089 144.417c-.04.23-.234.45-.587.657-.438.257-.974.382-1.608.377-.636-.004-1.293-.16-1.976-.472l-.896.526-.805-.469.872-.512a4.403 4.403 0 0 1-.926-.785c-.245-.279-.389-.533-.44-.762l1.422-.315c.053.208.167.42.339.64.173.218.39.42.654.606l1.338-.785a4.974 4.974 0 0 1-.664-.742c-.15-.22-.207-.445-.167-.675.037-.23.236-.45.594-.66.443-.26.984-.388 1.629-.385.64.003 1.303.162 1.986.48l.888-.522.804.47-.872.512c.607.416.99.83 1.148 1.24l-1.387.344a2.52 2.52 0 0 0-.817-.965l-1.36.8c.29.27.511.512.662.728a.877.877 0 0 1 .169.67zm-1.437-1.984 1.137-.668a1.904 1.904 0 0 0-.68-.129c-.201.004-.37.048-.508.13-.133.078-.194.172-.177.28.018.11.093.24.228.387m-1.033 2.057c.191 0 .356-.04.49-.117.133-.079.193-.171.179-.279-.015-.11-.083-.237-.208-.384l-1.104.648c.235.089.449.132.643.132"/><path fill="#FFB839" d="m117.022 145.505-.002.675-.805-.47.002-.674z"/><path fill="#FFF" d="m126.597 147.022-.447.639.637-.451.267 1.54.268-1.54.633.451-.447-.643 1.525-.271-1.525-.27.447-.639-.633.447-.268-1.537-.271 1.541-.633-.451.443.639-1.522.27z"/><path fill="#FFD469" d="m110.539 155.897-.008 2.696-.078.556.007-2.696zM91.835 156.957l-.007 2.696-.174-.548.008-2.697zM110.96 156.93l-.008 2.697-.252.537.007-2.696z"/><path fill="#FFD469" d="m91.759 157.98-.007 2.697-.342-.522.008-2.696zM111.051 157.99l-.008 2.697-.417.5.007-2.697z"/><path fill="#FFD469" d="m92.006 158.995-.007 2.697-.5-.478.008-2.696zM110.805 159.04l-.008 2.696-.565.448.007-2.696z"/><path fill="#FFC950" d="m92.569 159.966-.007 2.696-.642-.415.008-2.696zM110.239 159.488l-.007 2.696-.006.558.008-2.696z"/><path fill="#FFD469" d="m110.234 160.046-.008 2.696-.698.379.008-2.696zM92.664 160.521l-.007 2.697-.095-.556.007-2.696z"/><path fill="#FFC950" d="m93.427 160.861-.008 2.696-.762-.339.007-2.697zM109.536 160.425l-.008 2.696-.179.548.008-2.697z"/><path fill="#FFD469" d="m109.357 160.972-.008 2.697-.806.298.008-2.697zM93.696 161.396l-.008 2.697-.269-.536.008-2.696z"/><path fill="#FFC950" d="m94.548 161.648-.007 2.697-.853-.252.008-2.697zM108.551 161.27l-.008 2.697-.346.519.008-2.697z"/><path fill="#FFD469" d="m108.205 161.789-.008 2.697-.886.204.007-2.696zM94.982 162.146l-.008 2.697-.433-.498.007-2.697z"/><path fill="#FFC950" d="m95.899 162.303-.007 2.696-.918-.156.008-2.697zM107.318 161.994l-.007 2.696-.507.473.008-2.697z"/><path fill="#FFD469" d="m106.812 162.466-.008 2.697-.935.106.007-2.696zM96.48 162.747l-.007 2.696-.581-.444.007-2.696z"/><path fill="#FFC950" d="m97.43 162.801-.007 2.696-.95-.054.007-2.696zM105.876 162.573l-.007 2.696-.646.41.008-2.697z"/><path fill="#FFD469" d="m105.231 162.982-.008 2.697-.951.004.007-2.697zM98.141 163.174l-.007 2.697-.711-.374.007-2.696z"/><path fill="#FFC950" d="m99.091 163.127-.008 2.696-.949.048.007-2.697z"/><path fill="#FFD469" d="m103.514 163.32-.008 2.696-.938-.099.007-2.697z"/><path fill="#FFC950" d="m104.279 162.986-.007 2.697-.766.333.008-2.696zM100.827 163.268l-.008 2.696-.918.15.008-2.697z"/><path fill="#FFD469" d="m99.909 163.417-.008 2.697-.818-.291.008-2.696z"/><path fill="#FFC950" d="m102.575 163.22-.007 2.697-.855.246.007-2.696z"/><path fill="#FFD469" d="m101.72 163.467-.007 2.696-.894-.199.008-2.696z"/><path fill="#FFE088" d="m108.771 154.052.27.536.761.339.097.555.64.415-.079.556.5.477-.253.538.344.522-.418.5.172.55-.566.448-.005.558-.698.379-.179.547-.806.298-.346.519-.887.205-.506.472-.936.107-.645.409-.952.004-.765.334-.939-.1-.855.247-.893-.199-.918.149-.818-.29-.95.047-.711-.373-.95-.054-.581-.444-.917-.157-.434-.498-.852-.252-.269-.535-.763-.34-.095-.555-.641-.415.078-.556-.499-.477.252-.538-.341-.521.417-.502-.173-.549.569-.448.002-.558.698-.379.179-.547.806-.298.348-.518.884-.206.507-.472.935-.107.646-.409.955-.004.762-.334.94.099.855-.245.892.198.918-.149.818.29.95-.047.712.373.948.055.583.445.916.155.434.498z"/><path fill="#FFD469" d="M106.876 154.413c-3.139-1.83-8.21-1.833-11.326-.003-1.8 1.059-2.557 2.495-2.265 3.873.208-.998.96-1.96 2.265-2.726 3.117-1.827 8.187-1.827 11.326.003 1.323.772 2.093 1.747 2.3 2.754.292-1.387-.475-2.837-2.3-3.9z"/><path fill="#FFC950" d="M106.876 155.56c-3.139-1.83-8.21-1.83-11.326-.003-1.304.766-2.057 1.728-2.265 2.726.208 1.006.977 1.982 2.3 2.754 3.14 1.83 8.21 1.83 11.326 0 1.305-.766 2.058-1.728 2.265-2.723-.207-1.007-.977-1.982-2.3-2.754z"/><path fill="#FFB839" d="m105.252 155.987-.002.675-.873.512.002-.675zM101.124 157.585l.002-.674c0-.094.061-.177.18-.247.139-.081.307-.125.508-.129.2-.005.428.039.68.13l-.002.673a1.904 1.904 0 0 0-.68-.129c-.201.004-.37.048-.508.13-.119.069-.18.152-.18.246zM103.323 157.119l-.002.674-1.36.799.002-.674zM99.336 157.42l.002-.674c0 .181.06.36.18.534.152.218.372.466.663.742l-.002.674a4.974 4.974 0 0 1-.664-.742.931.931 0 0 1-.18-.534zm4.804.664-.002.674a2.519 2.519 0 0 0-.817-.965l.002-.674c.372.274.644.595.817.965zM105.527 157.74l-.002.674-1.387.344.002-.674zM100.995 159.025l-.002.674c0-.01 0-.021-.002-.032-.015-.11-.083-.237-.207-.384l.002-.674c.124.147.192.274.207.384a.23.23 0 0 1 .002.032zM100.786 158.609l-.002.674-1.105.648.002-.674zM102.806 159.177l-.002.674a.853.853 0 0 1-.012.14l.002-.675a.853.853 0 0 0 .012-.139zm-5.012.246-.002.674a4.403 4.403 0 0 1-.926-.786c-.245-.278-.389-.532-.44-.76l.002-.675c.051.229.195.483.44.761.24.279.552.541.926.786z"/><path fill="#FFB839" d="m102.794 159.316-.002.674c-.039.23-.234.45-.587.657-.438.257-.974.382-1.608.377-.636-.004-1.293-.16-1.975-.472l.001-.674c.683.311 1.34.467 1.976.472.634.005 1.17-.12 1.608-.377.353-.208.548-.426.587-.657zM98.623 159.878l-.001.674-.897.526.002-.674z"/><path fill="#FFE088" d="M102.794 159.316c-.039.23-.234.45-.587.657-.438.257-.974.382-1.608.377-.636-.005-1.293-.161-1.976-.472l-.896.526-.805-.469.872-.512a4.403 4.403 0 0 1-.926-.786c-.245-.278-.389-.532-.44-.76l1.422-.316c.053.208.167.42.339.64.173.218.391.42.654.606l1.338-.785a4.973 4.973 0 0 1-.664-.742c-.15-.22-.207-.445-.167-.675.037-.23.236-.45.594-.66.443-.26.984-.388 1.629-.385.64.003 1.303.162 1.986.48l.888-.522.805.47-.873.511c.607.417.99.83 1.148 1.241l-1.387.344a2.519 2.519 0 0 0-.817-.965l-1.36.799c.29.27.511.513.662.729a.877.877 0 0 1 .169.67zm-1.437-1.984 1.137-.668a1.904 1.904 0 0 0-.68-.129c-.201.004-.37.048-.508.13-.133.077-.193.172-.177.28.018.11.093.24.228.387m-1.033 2.057c.192 0 .356-.04.49-.118.133-.078.193-.17.179-.278-.015-.11-.083-.237-.207-.384l-1.105.648c.235.089.449.132.643.132"/><path fill="#FFB839" d="m97.727 160.404-.002.674-.805-.469.002-.674z"/><path fill="#FFF" d="m102.6 163.512-.446.639.637-.451.267 1.541.268-1.541.633.451-.447-.643 1.525-.27-1.525-.271.447-.639-.633.447-.268-1.536-.271 1.54-.633-.451.442.639-1.521.271z"/><path fill="#616173" d="M68.541 173.153c-6.496 3.75-6.53 9.82-.077 13.57s16.933 3.751 23.429 0c6.496-3.75 6.53-9.82.076-13.57-6.453-3.75-16.932-3.75-23.428 0z"/><path fill="#748BFD" d="m94.944 179.21-.015-5.033v.07l.014 5.034v-.07z"/><path fill="#FF7BBA" d="m69.917 160.005.015 13.267 10.34 6.009-.014-13.267z"/><path fill="#F46CB4" d="m80.258 166.014.014 13.267h14.671l-.014-13.267z"/><path fill="#FF9FD1" d="m69.917 160.005 10.34 6.009H94.93c.025-2.178-1.403-4.347-4.263-6.01-5.718-3.323-14.993-3.323-20.749 0z"/><path fill="#EFAC41" d="m80.258 172.189.014 7.092 10.341 6.009-.015-7.092z"/><path fill="#FFD469" d="m90.598 178.198.015 7.092c2.878-1.661 4.318-3.839 4.33-6.009l-.014-7.092c-.012 2.17-1.452 4.348-4.33 6.01z"/><path fill="#FFE088" d="m80.258 172.189 10.34 6.01c2.879-1.662 4.319-3.84 4.331-6.01H80.258z"/><path fill="#EA3D5B" d="m65.587 170.131.014 9.15h14.671l-.014-9.15z"/><path fill="#FD546B" d="M69.917 164.121c-2.878 1.662-4.33 3.832-4.33 6.01h14.67l-10.34-6.01z"/><path fill="#E4E8F4" d="m80.258 174.247.014 5.034.175 8.49-.014-5.033z"/><path fill="#E7F1F7" d="m80.258 174.247.175 8.49c3.668-.03 7.353-.857 10.165-2.48l-10.34-6.01z"/><path fill="#DCE8F1" d="m80.433 182.738.014 5.033c3.668-.03 7.353-.857 10.166-2.48l-.014-5.034c-2.813 1.623-6.498 2.45-10.166 2.48z"/><path fill="#1352AB" d="m65.587 171.525.014 7.756c-.012 2.17 1.403 4.347 4.263 6.01 2.911 1.691 6.745 2.518 10.583 2.48l-.014-7.756c-3.839.038-7.672-.789-10.583-2.48-2.86-1.663-4.275-3.84-4.263-6.01z"/><path fill="#3765C7" d="M65.587 171.525c-.012 2.17 1.403 4.347 4.263 6.01 2.91 1.691 6.744 2.518 10.583 2.48l-.175-8.49H65.587z"/></svg>